<?xml version="1.0" encoding="UTF-8"?>
<svg width="206px" height="182px" viewBox="0 0 206 182" version="1.1" xmlns="http://www.w3.org/2000/svg" xmlns:xlink="http://www.w3.org/1999/xlink">
    <!-- Generator: Sketch 42 (36781) - http://www.bohemiancoding.com/sketch -->
    <title>Group</title>
    <desc>Created with Sketch.</desc>
    <defs></defs>
    <g id="Page-1" stroke="none" stroke-width="1" fill="none" fill-rule="evenodd">
        <g id="会社を知る" transform="translate(-314.000000, -2269.000000)">
            <g id="Group" transform="translate(314.000000, 2269.000000)">
                <g id="お店っぽい建物アイコン-(1)" transform="translate(65.066929, 57.160870)" fill="#FFFFFF">
                    <g id="_x32_">
                        <g fill-rule="nonzero">
                            <g id="Group">
                                <path d="M0,0.0242447257 L0,17.7358059 L0,67.9757553 L76,67.9757553 L76,65.8363376 L76,17.7356624 L76,0.0242447257 L0,0.0242447257 Z M47.3711562,4.30293671 L57.258875,4.30293671 L57.258875,17.7358059 C57.2578359,19.0602278 56.7087656,20.2417637 55.8105703,21.1129958 C54.9091094,21.9810717 53.6867266,22.51173 52.3150156,22.5128776 C50.9434531,22.51173 49.7209219,21.9810717 48.8194609,21.1129958 C47.9212656,20.2417637 47.3721953,19.0613755 47.3711563,17.7358059 L47.3711563,4.30293671 L47.3711562,4.30293671 Z M33.0561406,4.30293671 L42.9438594,4.30293671 L42.9438594,17.7358059 C42.9428203,19.0613755 42.39375,20.2417637 41.4954063,21.1129958 C40.5940937,21.9810717 39.37275,22.51173 38.0010391,22.5128776 C36.6284375,22.51173 35.4059063,21.9810717 34.5044453,21.1129958 C33.60625,20.2417637 33.0571797,19.0613755 33.0559922,17.7358059 L33.0559922,4.30293671 L33.0561406,4.30293671 Z M18.7423125,4.30293671 L28.6289922,4.30293671 L28.6289922,17.7358059 C28.6279531,19.0613755 28.0788828,20.2417637 27.1817266,21.1129958 C26.2792266,21.9810717 25.0578828,22.51173 23.6851328,22.5128776 C22.3135703,22.51173 21.0922266,21.9810717 20.1907656,21.1129958 C19.2925703,20.2417637 18.7435,19.0613755 18.7424609,17.7358059 L18.7424609,4.30293671 L18.7423125,4.30293671 Z M4.42729687,4.30293671 L14.3150156,4.30293671 L14.3150156,17.7358059 C14.3138281,19.0613755 13.7649062,20.2417637 12.8665625,21.1129958 C11.96525,21.9810717 10.7427187,22.51173 9.36996875,22.5128776 C7.99840625,22.51173 6.7770625,21.9810717 5.87560156,21.1129958 C4.97740625,20.2417637 4.42833594,19.0613755 4.42714844,17.7358059 L4.42714844,4.30293671 L4.42729687,4.30293671 Z M71.5727031,63.6970633 L50.314375,63.6970633 L50.314375,49.8557637 L25.6868125,49.8557637 L25.6868125,63.6970633 L4.42729687,63.6970633 L4.42729687,25.4179409 C5.8626875,26.2828608 7.55309375,26.7905654 9.37011719,26.7917131 C12.243125,26.7905654 14.8102031,25.5391646 16.5286641,23.5731899 C18.2472734,25.5391646 20.8131641,26.7905654 23.6849844,26.7917131 C26.5579922,26.7917131 29.1240313,25.5403122 30.8424922,23.5741941 C32.5621406,25.5391646 35.1281797,26.7905654 38.0010391,26.7917131 C40.8728594,26.7905654 43.4388984,25.5391646 45.1575078,23.5731899 C46.8761172,25.5391646 49.4420078,26.7905654 52.3150156,26.7917131 C55.1869844,26.7905654 57.752875,25.5391646 59.4725234,23.5741941 C61.1911328,25.5401688 63.7570234,26.7917131 66.6300313,26.7917131 C68.4469063,26.7905654 70.1374609,26.2830042 71.5727031,25.4179409 L71.5727031,63.6970633 Z M71.5727031,17.7358059 C71.5718125,19.0613755 71.0225937,20.2417637 70.1243984,21.1129958 C69.2230859,21.9810717 68.0015937,22.51173 66.6300312,22.5128776 C65.2572812,22.51173 64.0359375,21.9810717 63.1334375,21.1129958 C62.2362812,20.2417637 61.6873594,19.0613755 61.6861719,17.7358059 L61.6861719,4.30293671 L71.5728516,4.30293671 L71.5728516,17.7358059 L71.5727031,17.7358059 Z" id="Shape"></path>
                                <rect id="Rectangle-path" x="15.8638125" y="32.4200759" width="7.379125" height="8.35697046"></rect>
                                <rect id="Rectangle-path" x="52.7570625" y="32.4200759" width="7.379125" height="8.35697046"></rect>
                                <rect id="Rectangle-path" x="34.3099922" y="32.4200759" width="7.38001562" height="8.35697046"></rect>
                            </g>
                        </g>
                    </g>
                </g>
                <g id="人物ボタン-(1)" transform="translate(122.370079, 0.500000)" fill="#FFFFFF">
                    <g id="_x32_">
                        <g fill-rule="nonzero">
                            <path d="M19,0 C8.50643359,0 0,8.28279688 0,18.4997109 C0,28.7170586 8.50643359,37 19,37 C29.4934922,37 38,28.7171309 38,18.4997109 C38,8.28279688 29.4935664,0 19,0 Z M18.9997031,29.0444219 C13.8602773,29.0422539 10.1885273,28.3623789 10.27425,27.7394492 C10.7411602,24.3351602 13.560582,24.0077969 15.3509609,22.6129258 C16.1548984,21.9866719 16.5456602,22.1431992 16.5456602,21.0993223 L16.5456602,19.4291914 C16.0630156,18.9075059 15.8875625,18.9726895 15.4794336,16.924248 C14.6547148,16.924248 14.7078555,15.8802988 14.3188008,14.9546484 C14.0152461,14.2331484 14.2454727,13.9216836 14.5001172,13.7864746 C14.3626641,13.0732129 14.4495,10.6783301 15.5044453,9.43182031 L15.3380469,8.30093555 C15.3380469,8.30093555 15.6698047,8.38194531 16.4992734,8.21985352 C17.3291133,8.05891797 19.3198828,7.57452148 20.4814062,8.54338672 C23.2688398,8.9424375 24.0090234,11.171543 23.4652969,13.7700703 C23.7323359,13.894873 23.9980391,14.200918 23.6806055,14.9546484 C23.2918477,15.8802988 23.3449883,16.924248 22.5202695,16.924248 C22.1123633,18.9726895 21.9366875,18.9075059 21.454043,19.4291914 L21.454043,21.0993223 C21.454043,22.1431992 21.8445078,21.9866719 22.6484453,22.6129258 C24.4390469,24.0077246 27.2582461,24.3350879 27.7254531,27.7394492 C27.8108789,28.3623789 24.1393516,29.0422539 18.9997031,29.0444219 Z" id="Shape"></path>
                        </g>
                    </g>
                </g>
                <g id="人物ボタン-(1)" transform="translate(167.566929, 69.752174)" fill="#FFFFFF">
                    <g id="_x32_">
                        <g fill-rule="nonzero">
                            <path d="M19,0 C8.50643359,0 0,8.28279688 0,18.4997109 C0,28.7170586 8.50643359,37 19,37 C29.4934922,37 38,28.7171309 38,18.4997109 C38,8.28279688 29.4935664,0 19,0 Z M18.9997031,29.0444219 C13.8602773,29.0422539 10.1885273,28.3623789 10.27425,27.7394492 C10.7411602,24.3351602 13.560582,24.0077969 15.3509609,22.6129258 C16.1548984,21.9866719 16.5456602,22.1431992 16.5456602,21.0993223 L16.5456602,19.4291914 C16.0630156,18.9075059 15.8875625,18.9726895 15.4794336,16.924248 C14.6547148,16.924248 14.7078555,15.8802988 14.3188008,14.9546484 C14.0152461,14.2331484 14.2454727,13.9216836 14.5001172,13.7864746 C14.3626641,13.0732129 14.4495,10.6783301 15.5044453,9.43182031 L15.3380469,8.30093555 C15.3380469,8.30093555 15.6698047,8.38194531 16.4992734,8.21985352 C17.3291133,8.05891797 19.3198828,7.57452148 20.4814062,8.54338672 C23.2688398,8.9424375 24.0090234,11.171543 23.4652969,13.7700703 C23.7323359,13.894873 23.9980391,14.200918 23.6806055,14.9546484 C23.2918477,15.8802988 23.3449883,16.924248 22.5202695,16.924248 C22.1123633,18.9726895 21.9366875,18.9075059 21.454043,19.4291914 L21.454043,21.0993223 C21.454043,22.1431992 21.8445078,21.9866719 22.6484453,22.6129258 C24.4390469,24.0077246 27.2582461,24.3350879 27.7254531,27.7394492 C27.8108789,28.3623789 24.1393516,29.0422539 18.9997031,29.0444219 Z" id="Shape"></path>
                        </g>
                    </g>
                </g>
                <g id="人物ボタン-(1)" transform="translate(122.370079, 144.513043)" fill="#FFFFFF">
                    <g id="_x32_">
                        <g fill-rule="nonzero">
                            <path d="M19,0 C8.50643359,0 0,8.28279688 0,18.4997109 C0,28.7170586 8.50643359,37 19,37 C29.4934922,37 38,28.7171309 38,18.4997109 C38,8.28279688 29.4935664,0 19,0 Z M18.9997031,29.0444219 C13.8602773,29.0422539 10.1885273,28.3623789 10.27425,27.7394492 C10.7411602,24.3351602 13.560582,24.0077969 15.3509609,22.6129258 C16.1548984,21.9866719 16.5456602,22.1431992 16.5456602,21.0993223 L16.5456602,19.4291914 C16.0630156,18.9075059 15.8875625,18.9726895 15.4794336,16.924248 C14.6547148,16.924248 14.7078555,15.8802988 14.3188008,14.9546484 C14.0152461,14.2331484 14.2454727,13.9216836 14.5001172,13.7864746 C14.3626641,13.0732129 14.4495,10.6783301 15.5044453,9.43182031 L15.3380469,8.30093555 C15.3380469,8.30093555 15.6698047,8.38194531 16.4992734,8.21985352 C17.3291133,8.05891797 19.3198828,7.57452148 20.4814062,8.54338672 C23.2688398,8.9424375 24.0090234,11.171543 23.4652969,13.7700703 C23.7323359,13.894873 23.9980391,14.200918 23.6806055,14.9546484 C23.2918477,15.8802988 23.3449883,16.924248 22.5202695,16.924248 C22.1123633,18.9726895 21.9366875,18.9075059 21.454043,19.4291914 L21.454043,21.0993223 C21.454043,22.1431992 21.8445078,21.9866719 22.6484453,22.6129258 C24.4390469,24.0077246 27.2582461,24.3350879 27.7254531,27.7394492 C27.8108789,28.3623789 24.1393516,29.0422539 18.9997031,29.0444219 Z" id="Shape"></path>
                        </g>
                    </g>
                </g>
                <g id="人物ボタン-(1)" transform="translate(46.503937, 144.513043)" fill="#FFFFFF">
                    <g id="_x32_">
                        <g fill-rule="nonzero">
                            <path d="M19,0 C8.50643359,0 0,8.28279688 0,18.4997109 C0,28.7170586 8.50643359,37 19,37 C29.4934922,37 38,28.7171309 38,18.4997109 C38,8.28279688 29.4935664,0 19,0 Z M18.9997031,29.0444219 C13.8602773,29.0422539 10.1885273,28.3623789 10.27425,27.7394492 C10.7411602,24.3351602 13.560582,24.0077969 15.3509609,22.6129258 C16.1548984,21.9866719 16.5456602,22.1431992 16.5456602,21.0993223 L16.5456602,19.4291914 C16.0630156,18.9075059 15.8875625,18.9726895 15.4794336,16.924248 C14.6547148,16.924248 14.7078555,15.8802988 14.3188008,14.9546484 C14.0152461,14.2331484 14.2454727,13.9216836 14.5001172,13.7864746 C14.3626641,13.0732129 14.4495,10.6783301 15.5044453,9.43182031 L15.3380469,8.30093555 C15.3380469,8.30093555 15.6698047,8.38194531 16.4992734,8.21985352 C17.3291133,8.05891797 19.3198828,7.57452148 20.4814062,8.54338672 C23.2688398,8.9424375 24.0090234,11.171543 23.4652969,13.7700703 C23.7323359,13.894873 23.9980391,14.200918 23.6806055,14.9546484 C23.2918477,15.8802988 23.3449883,16.924248 22.5202695,16.924248 C22.1123633,18.9726895 21.9366875,18.9075059 21.454043,19.4291914 L21.454043,21.0993223 C21.454043,22.1431992 21.8445078,21.9866719 22.6484453,22.6129258 C24.4390469,24.0077246 27.2582461,24.3350879 27.7254531,27.7394492 C27.8108789,28.3623789 24.1393516,29.0422539 18.9997031,29.0444219 Z" id="Shape"></path>
                        </g>
                    </g>
                </g>
                <g id="人物ボタン-(1)" transform="translate(0.500000, 72.900000)" fill="#FFFFFF">
                    <g id="_x32_">
                        <g fill-rule="nonzero">
                            <path d="M19,0 C8.50643359,0 0,8.28279688 0,18.4997109 C0,28.7170586 8.50643359,37 19,37 C29.4934922,37 38,28.7171309 38,18.4997109 C38,8.28279688 29.4935664,0 19,0 Z M18.9997031,29.0444219 C13.8602773,29.0422539 10.1885273,28.3623789 10.27425,27.7394492 C10.7411602,24.3351602 13.560582,24.0077969 15.3509609,22.6129258 C16.1548984,21.9866719 16.5456602,22.1431992 16.5456602,21.0993223 L16.5456602,19.4291914 C16.0630156,18.9075059 15.8875625,18.9726895 15.4794336,16.924248 C14.6547148,16.924248 14.7078555,15.8802988 14.3188008,14.9546484 C14.0152461,14.2331484 14.2454727,13.9216836 14.5001172,13.7864746 C14.3626641,13.0732129 14.4495,10.6783301 15.5044453,9.43182031 L15.3380469,8.30093555 C15.3380469,8.30093555 15.6698047,8.38194531 16.4992734,8.21985352 C17.3291133,8.05891797 19.3198828,7.57452148 20.4814062,8.54338672 C23.2688398,8.9424375 24.0090234,11.171543 23.4652969,13.7700703 C23.7323359,13.894873 23.9980391,14.200918 23.6806055,14.9546484 C23.2918477,15.8802988 23.3449883,16.924248 22.5202695,16.924248 C22.1123633,18.9726895 21.9366875,18.9075059 21.454043,19.4291914 L21.454043,21.0993223 C21.454043,22.1431992 21.8445078,21.9866719 22.6484453,22.6129258 C24.4390469,24.0077246 27.2582461,24.3350879 27.7254531,27.7394492 C27.8108789,28.3623789 24.1393516,29.0422539 18.9997031,29.0444219 Z" id="Shape"></path>
                        </g>
                    </g>
                </g>
                <g id="人物ボタン-(1)" transform="translate(46.503937, 2.073913)" fill="#FFFFFF">
                    <g id="_x32_">
                        <g fill-rule="nonzero">
                            <path d="M19,0 C8.50643359,0 0,8.28279688 0,18.4997109 C0,28.7170586 8.50643359,37 19,37 C29.4934922,37 38,28.7171309 38,18.4997109 C38,8.28279688 29.4935664,0 19,0 Z M18.9997031,29.0444219 C13.8602773,29.0422539 10.1885273,28.3623789 10.27425,27.7394492 C10.7411602,24.3351602 13.560582,24.0077969 15.3509609,22.6129258 C16.1548984,21.9866719 16.5456602,22.1431992 16.5456602,21.0993223 L16.5456602,19.4291914 C16.0630156,18.9075059 15.8875625,18.9726895 15.4794336,16.924248 C14.6547148,16.924248 14.7078555,15.8802988 14.3188008,14.9546484 C14.0152461,14.2331484 14.2454727,13.9216836 14.5001172,13.7864746 C14.3626641,13.0732129 14.4495,10.6783301 15.5044453,9.43182031 L15.3380469,8.30093555 C15.3380469,8.30093555 15.6698047,8.38194531 16.4992734,8.21985352 C17.3291133,8.05891797 19.3198828,7.57452148 20.4814062,8.54338672 C23.2688398,8.9424375 24.0090234,11.171543 23.4652969,13.7700703 C23.7323359,13.894873 23.9980391,14.200918 23.6806055,14.9546484 C23.2918477,15.8802988 23.3449883,16.924248 22.5202695,16.924248 C22.1123633,18.9726895 21.9366875,18.9075059 21.454043,19.4291914 L21.454043,21.0993223 C21.454043,22.1431992 21.8445078,21.9866719 22.6484453,22.6129258 C24.4390469,24.0077246 27.2582461,24.3350879 27.7254531,27.7394492 C27.8108789,28.3623789 24.1393516,29.0422539 18.9997031,29.0444219 Z" id="Shape"></path>
                        </g>
                    </g>
                </g>
                <path d="M67.5,36.5 L73.5,60.5" id="Line" stroke="#FFFFFF" stroke-width="2" stroke-linecap="square"></path>
                <path d="M134.5,59.5 L139.5,34.5" id="Line" stroke="#FFFFFF" stroke-width="2" stroke-linecap="square"></path>
                <path d="M132.5,122.5 L139.5,149.5" id="Line" stroke="#FFFFFF" stroke-width="2" stroke-linecap="square"></path>
                <path d="M75.5,123.5 L69.5,148.5" id="Line" stroke="#FFFFFF" stroke-width="2" stroke-linecap="square"></path>
                <path d="M67.5,91 L34.5,91" id="Line" stroke="#FFFFFF" stroke-width="2" stroke-linecap="square"></path>
                <path d="M139.5,91 L172.5,91" id="Line" stroke="#FFFFFF" stroke-width="2" stroke-linecap="square"></path>
            </g>
        </g>
    </g>
</svg>