<?xml version="1.0" encoding="UTF-8"?>
<svg width="283px" height="126px" viewBox="0 0 283 126" version="1.1" xmlns="http://www.w3.org/2000/svg" xmlns:xlink="http://www.w3.org/1999/xlink">
    <!-- Generator: Sketch 42 (36781) - http://www.bohemiancoding.com/sketch -->
    <title>Group 5</title>
    <desc>Created with Sketch.</desc>
    <defs></defs>
    <g id="Page-1" stroke="none" stroke-width="1" fill="none" fill-rule="evenodd">
        <g id="Group-5" transform="translate(-2.000000, 0.000000)" fill="#FFFFFF">
            <g id="Page-1" transform="translate(23.000000, 20.000000)">
                <path d="M39.0903188,13.3665333 C39.0903188,17.7238111 35.5800375,21.2567926 31.2507563,21.2567926 C26.9195063,21.2567926 23.4111938,17.7238111 23.4111938,13.3665333 C23.4111938,9.00925556 26.9195063,5.47627407 31.2507563,5.47627407 C35.5800375,5.47627407 39.0903188,9.00925556 39.0903188,13.3665333" id="Fill-1"></path>
                <path d="M61.27065,1.58880556 C59.9181187,0.576268519 58.0084313,0.857638889 57.0024,2.21891667 C57.0024,2.21891667 45.2666813,15.6276019 43.4889,17.5892685 C41.70915,19.5509352 38.7639,23.3078241 31.2491812,23.3078241 C23.7364313,23.3078241 20.7892125,19.5509352 19.0114313,17.5892685 C17.23365,15.6276019 5.49793125,2.21891667 5.49793125,2.21891667 C4.4919,0.857638889 2.5822125,0.576268519 1.22968125,1.58880556 C-0.12285,2.60134259 -0.4024125,4.52337963 0.6055875,5.88465741 C0.6055875,5.88465741 17.0781188,31.9074537 17.6155875,32.8268611 C18.5133375,34.3644907 19.210275,36.1339537 19.2555563,37.6616759 C19.4839313,45.3161389 21.7184625,101.869602 21.7184625,101.869602 C21.7184625,104.080935 23.4982125,105.872194 25.6933688,105.872194 C27.8904937,105.872194 29.6722125,104.080935 29.6722125,101.869602 L30.5739,81.2344537 L31.2491812,65.7689907 L31.9284,81.2344537 L32.8300875,101.869602 C32.8300875,104.080935 34.6098375,105.872194 36.8069625,105.872194 C39.0021188,105.872194 40.7838375,104.080935 40.7838375,101.869602 C40.7838375,101.869602 43.0164,45.3161389 43.2467438,37.6616759 C43.292025,36.1339537 43.9869938,34.3644907 44.8847438,32.8268611 C45.4222125,31.9074537 61.8967125,5.88465741 61.8967125,5.88465741 C62.9027438,4.52337963 62.6231813,2.60134259 61.27065,1.58880556" id="Fill-3"></path>
            </g>
            <g id="Page-1-Copy" transform="translate(109.000000, 20.000000)">
                <path d="M39.0903188,13.3665333 C39.0903188,17.7238111 35.5800375,21.2567926 31.2507563,21.2567926 C26.9195063,21.2567926 23.4111938,17.7238111 23.4111938,13.3665333 C23.4111938,9.00925556 26.9195063,5.47627407 31.2507563,5.47627407 C35.5800375,5.47627407 39.0903188,9.00925556 39.0903188,13.3665333" id="Fill-1"></path>
                <path d="M61.27065,1.58880556 C59.9181187,0.576268519 58.0084313,0.857638889 57.0024,2.21891667 C57.0024,2.21891667 45.2666813,15.6276019 43.4889,17.5892685 C41.70915,19.5509352 38.7639,23.3078241 31.2491812,23.3078241 C23.7364313,23.3078241 20.7892125,19.5509352 19.0114313,17.5892685 C17.23365,15.6276019 5.49793125,2.21891667 5.49793125,2.21891667 C4.4919,0.857638889 2.5822125,0.576268519 1.22968125,1.58880556 C-0.12285,2.60134259 -0.4024125,4.52337963 0.6055875,5.88465741 C0.6055875,5.88465741 17.0781188,31.9074537 17.6155875,32.8268611 C18.5133375,34.3644907 19.210275,36.1339537 19.2555563,37.6616759 C19.4839313,45.3161389 21.7184625,101.869602 21.7184625,101.869602 C21.7184625,104.080935 23.4982125,105.872194 25.6933688,105.872194 C27.8904937,105.872194 29.6722125,104.080935 29.6722125,101.869602 L30.5739,81.2344537 L31.2491812,65.7689907 L31.9284,81.2344537 L32.8300875,101.869602 C32.8300875,104.080935 34.6098375,105.872194 36.8069625,105.872194 C39.0021188,105.872194 40.7838375,104.080935 40.7838375,101.869602 C40.7838375,101.869602 43.0164,45.3161389 43.2467438,37.6616759 C43.292025,36.1339537 43.9869938,34.3644907 44.8847438,32.8268611 C45.4222125,31.9074537 61.8967125,5.88465741 61.8967125,5.88465741 C62.9027438,4.52337963 62.6231813,2.60134259 61.27065,1.58880556" id="Fill-3"></path>
            </g>
            <g id="Page-1-Copy-2" transform="translate(195.000000, 20.000000)">
                <path d="M39.0903188,13.3665333 C39.0903188,17.7238111 35.5800375,21.2567926 31.2507563,21.2567926 C26.9195063,21.2567926 23.4111938,17.7238111 23.4111938,13.3665333 C23.4111938,9.00925556 26.9195063,5.47627407 31.2507563,5.47627407 C35.5800375,5.47627407 39.0903188,9.00925556 39.0903188,13.3665333" id="Fill-1"></path>
                <path d="M61.27065,1.58880556 C59.9181187,0.576268519 58.0084313,0.857638889 57.0024,2.21891667 C57.0024,2.21891667 45.2666813,15.6276019 43.4889,17.5892685 C41.70915,19.5509352 38.7639,23.3078241 31.2491812,23.3078241 C23.7364313,23.3078241 20.7892125,19.5509352 19.0114313,17.5892685 C17.23365,15.6276019 5.49793125,2.21891667 5.49793125,2.21891667 C4.4919,0.857638889 2.5822125,0.576268519 1.22968125,1.58880556 C-0.12285,2.60134259 -0.4024125,4.52337963 0.6055875,5.88465741 C0.6055875,5.88465741 17.0781188,31.9074537 17.6155875,32.8268611 C18.5133375,34.3644907 19.210275,36.1339537 19.2555563,37.6616759 C19.4839313,45.3161389 21.7184625,101.869602 21.7184625,101.869602 C21.7184625,104.080935 23.4982125,105.872194 25.6933688,105.872194 C27.8904937,105.872194 29.6722125,104.080935 29.6722125,101.869602 L30.5739,81.2344537 L31.2491812,65.7689907 L31.9284,81.2344537 L32.8300875,101.869602 C32.8300875,104.080935 34.6098375,105.872194 36.8069625,105.872194 C39.0021188,105.872194 40.7838375,104.080935 40.7838375,101.869602 C40.7838375,101.869602 43.0164,45.3161389 43.2467438,37.6616759 C43.292025,36.1339537 43.9869938,34.3644907 44.8847438,32.8268611 C45.4222125,31.9074537 61.8967125,5.88465741 61.8967125,5.88465741 C62.9027438,4.52337963 62.6231813,2.60134259 61.27065,1.58880556" id="Fill-3"></path>
            </g>
            <g id="Path-4">
                <polygon transform="translate(8.178252, 15.763384) rotate(-44.000000) translate(-8.178252, -15.763384) " points="5.98594395 9.14286484 10.3705593 6.20168837 9.97351498 25.3250799"></polygon>
                <polygon id="Path-4-Copy" transform="translate(12.562867, 9.881031) rotate(-24.000000) translate(-12.562867, -9.881031) " points="10.3705593 3.2605119 14.7551747 0.319335432 14.3581304 19.442727"></polygon>
            </g>
            <g id="Path-4" transform="translate(272.083025, 11.710571) rotate(79.000000) translate(-272.083025, -11.710571) translate(262.583025, -0.789429)">
                <polygon transform="translate(8.178252, 15.763384) rotate(-44.000000) translate(-8.178252, -15.763384) " points="5.98594395 9.14286484 10.3705593 6.20168837 9.97351498 25.3250799"></polygon>
                <polygon id="Path-4-Copy" transform="translate(12.562867, 9.881031) rotate(-24.000000) translate(-12.562867, -9.881031) " points="10.3705593 3.2605119 14.7551747 0.319335432 14.3581304 19.442727"></polygon>
            </g>
        </g>
    </g>
</svg>