<?xml version="1.0" encoding="UTF-8"?>
<svg width="208px" height="119px" viewBox="0 0 208 119" version="1.1" xmlns="http://www.w3.org/2000/svg" xmlns:xlink="http://www.w3.org/1999/xlink">
    <!-- Generator: Sketch 42 (36781) - http://www.bohemiancoding.com/sketch -->
    <title>Group 2</title>
    <desc>Created with Sketch.</desc>
    <defs></defs>
    <g id="Page-1" stroke="none" stroke-width="1" fill="none" fill-rule="evenodd">
        <g id="会社を知る" transform="translate(-315.000000, -2597.000000)" fill="#FFFFFF">
            <g id="Group-2" transform="translate(315.000000, 2597.000000)">
                <g id="お店っぽい建物アイコン-(1)">
                    <g id="_x32_">
                        <g fill-rule="nonzero">
                            <g id="Group">
                                <path d="M0,0.016757384 L0,12.2585717 L0,46.9832426 L52,46.9832426 L52,45.5045274 L52,12.2584726 L52,0.016757384 L0,0.016757384 Z M32.4118438,2.97408861 L39.177125,2.97408861 L39.177125,12.2585717 C39.1764141,13.173981 38.8007344,13.9906308 38.1861797,14.5928059 C37.5693906,15.1927996 36.7330234,15.5595781 35.7944844,15.5603713 C34.8560469,15.5595781 34.0195781,15.1927996 33.4027891,14.5928059 C32.7882344,13.9906308 32.4125547,13.1747743 32.4118438,12.2585717 L32.4118438,2.97408861 L32.4118438,2.97408861 Z M22.6173594,2.97408861 L29.3826406,2.97408861 L29.3826406,12.2585717 C29.3819297,13.1747743 29.00625,13.9906308 28.3915937,14.5928059 C27.7749063,15.1927996 26.93925,15.5595781 26.0007109,15.5603713 C25.0615625,15.5595781 24.2250938,15.1927996 23.6083047,14.5928059 C22.99375,13.9906308 22.6180703,13.1747743 22.6172578,12.2585717 L22.6172578,2.97408861 L22.6173594,2.97408861 Z M12.8236875,2.97408861 L19.5882578,2.97408861 L19.5882578,12.2585717 C19.5875469,13.1747743 19.2118672,13.9906308 18.5980234,14.5928059 C17.9805234,15.1927996 17.1448672,15.5595781 16.2056172,15.5603713 C15.2671797,15.5595781 14.4315234,15.1927996 13.8147344,14.5928059 C13.2001797,13.9906308 12.8245,13.1747743 12.8237891,12.2585717 L12.8237891,2.97408861 L12.8236875,2.97408861 Z M3.02920312,2.97408861 L9.79448438,2.97408861 L9.79448438,12.2585717 C9.79367188,13.1747743 9.41809375,13.9906308 8.8034375,14.5928059 C8.18675,15.1927996 7.35028125,15.5595781 6.41103125,15.5603713 C5.47259375,15.5595781 4.6369375,15.1927996 4.02014844,14.5928059 C3.40559375,13.9906308 3.02991406,13.1747743 3.02910156,12.2585717 L3.02910156,2.97408861 L3.02920312,2.97408861 Z M48.9707969,44.0259114 L34.425625,44.0259114 L34.425625,34.4591308 L17.5751875,34.4591308 L17.5751875,44.0259114 L3.02920312,44.0259114 L3.02920312,17.5682827 C4.0113125,18.1660949 5.16790625,18.5170084 6.41113281,18.5178017 C8.376875,18.5170084 10.1332969,17.6520696 11.3090859,16.2932342 C12.4849766,17.6520696 14.2405859,18.5170084 16.2055156,18.5178017 C18.1712578,18.5178017 19.9269688,17.6528629 21.1027578,16.2939283 C22.2793594,17.6520696 24.0350703,18.5170084 26.0007109,18.5178017 C27.9656406,18.5170084 29.7213516,17.6520696 30.8972422,16.2932342 C32.0731328,17.6520696 33.8287422,18.5170084 35.7944844,18.5178017 C37.7595156,18.5170084 39.515125,17.6520696 40.6917266,16.2939283 C41.8676172,17.6527637 43.6232266,18.5178017 45.5889687,18.5178017 C46.8320937,18.5170084 47.9887891,18.1661941 48.9707969,17.5682827 L48.9707969,44.0259114 Z M48.9707969,12.2585717 C48.9701875,13.1747743 48.5944063,13.9906308 47.9798516,14.5928059 C47.3631641,15.1927996 46.5274063,15.5595781 45.5889688,15.5603713 C44.6497188,15.5595781 43.8140625,15.1927996 43.1965625,14.5928059 C42.5827188,13.9906308 42.2071406,13.1747743 42.2063281,12.2585717 L42.2063281,2.97408861 L48.9708984,2.97408861 L48.9708984,12.2585717 L48.9707969,12.2585717 Z" id="Shape"></path>
                                <rect id="Rectangle-path" x="10.8541875" y="22.4079937" width="5.048875" height="5.77614135"></rect>
                                <rect id="Rectangle-path" x="36.0969375" y="22.4079937" width="5.048875" height="5.77614135"></rect>
                                <rect id="Rectangle-path" x="23.4752578" y="22.4079937" width="5.04948437" height="5.77614135"></rect>
                            </g>
                        </g>
                    </g>
                </g>
                <g id="お店っぽい建物アイコン-(1)" transform="translate(0.000000, 72.000000)">
                    <g id="_x32_">
                        <g fill-rule="nonzero">
                            <g id="Group">
                                <path d="M0,0.016757384 L0,12.2585717 L0,46.9832426 L52,46.9832426 L52,45.5045274 L52,12.2584726 L52,0.016757384 L0,0.016757384 Z M32.4118438,2.97408861 L39.177125,2.97408861 L39.177125,12.2585717 C39.1764141,13.173981 38.8007344,13.9906308 38.1861797,14.5928059 C37.5693906,15.1927996 36.7330234,15.5595781 35.7944844,15.5603713 C34.8560469,15.5595781 34.0195781,15.1927996 33.4027891,14.5928059 C32.7882344,13.9906308 32.4125547,13.1747743 32.4118438,12.2585717 L32.4118438,2.97408861 L32.4118438,2.97408861 Z M22.6173594,2.97408861 L29.3826406,2.97408861 L29.3826406,12.2585717 C29.3819297,13.1747743 29.00625,13.9906308 28.3915937,14.5928059 C27.7749063,15.1927996 26.93925,15.5595781 26.0007109,15.5603713 C25.0615625,15.5595781 24.2250938,15.1927996 23.6083047,14.5928059 C22.99375,13.9906308 22.6180703,13.1747743 22.6172578,12.2585717 L22.6172578,2.97408861 L22.6173594,2.97408861 Z M12.8236875,2.97408861 L19.5882578,2.97408861 L19.5882578,12.2585717 C19.5875469,13.1747743 19.2118672,13.9906308 18.5980234,14.5928059 C17.9805234,15.1927996 17.1448672,15.5595781 16.2056172,15.5603713 C15.2671797,15.5595781 14.4315234,15.1927996 13.8147344,14.5928059 C13.2001797,13.9906308 12.8245,13.1747743 12.8237891,12.2585717 L12.8237891,2.97408861 L12.8236875,2.97408861 Z M3.02920312,2.97408861 L9.79448438,2.97408861 L9.79448438,12.2585717 C9.79367188,13.1747743 9.41809375,13.9906308 8.8034375,14.5928059 C8.18675,15.1927996 7.35028125,15.5595781 6.41103125,15.5603713 C5.47259375,15.5595781 4.6369375,15.1927996 4.02014844,14.5928059 C3.40559375,13.9906308 3.02991406,13.1747743 3.02910156,12.2585717 L3.02910156,2.97408861 L3.02920312,2.97408861 Z M48.9707969,44.0259114 L34.425625,44.0259114 L34.425625,34.4591308 L17.5751875,34.4591308 L17.5751875,44.0259114 L3.02920312,44.0259114 L3.02920312,17.5682827 C4.0113125,18.1660949 5.16790625,18.5170084 6.41113281,18.5178017 C8.376875,18.5170084 10.1332969,17.6520696 11.3090859,16.2932342 C12.4849766,17.6520696 14.2405859,18.5170084 16.2055156,18.5178017 C18.1712578,18.5178017 19.9269688,17.6528629 21.1027578,16.2939283 C22.2793594,17.6520696 24.0350703,18.5170084 26.0007109,18.5178017 C27.9656406,18.5170084 29.7213516,17.6520696 30.8972422,16.2932342 C32.0731328,17.6520696 33.8287422,18.5170084 35.7944844,18.5178017 C37.7595156,18.5170084 39.515125,17.6520696 40.6917266,16.2939283 C41.8676172,17.6527637 43.6232266,18.5178017 45.5889687,18.5178017 C46.8320937,18.5170084 47.9887891,18.1661941 48.9707969,17.5682827 L48.9707969,44.0259114 Z M48.9707969,12.2585717 C48.9701875,13.1747743 48.5944063,13.9906308 47.9798516,14.5928059 C47.3631641,15.1927996 46.5274063,15.5595781 45.5889688,15.5603713 C44.6497188,15.5595781 43.8140625,15.1927996 43.1965625,14.5928059 C42.5827188,13.9906308 42.2071406,13.1747743 42.2063281,12.2585717 L42.2063281,2.97408861 L48.9708984,2.97408861 L48.9708984,12.2585717 L48.9707969,12.2585717 Z" id="Shape"></path>
                                <rect id="Rectangle-path" x="10.8541875" y="22.4079937" width="5.048875" height="5.77614135"></rect>
                                <rect id="Rectangle-path" x="36.0969375" y="22.4079937" width="5.048875" height="5.77614135"></rect>
                                <rect id="Rectangle-path" x="23.4752578" y="22.4079937" width="5.04948437" height="5.77614135"></rect>
                            </g>
                        </g>
                    </g>
                </g>
                <g id="お店っぽい建物アイコン-(1)" transform="translate(78.000000, 0.000000)">
                    <g id="_x32_">
                        <g fill-rule="nonzero">
                            <g id="Group">
                                <path d="M0,0.016757384 L0,12.2585717 L0,46.9832426 L52,46.9832426 L52,45.5045274 L52,12.2584726 L52,0.016757384 L0,0.016757384 Z M32.4118438,2.97408861 L39.177125,2.97408861 L39.177125,12.2585717 C39.1764141,13.173981 38.8007344,13.9906308 38.1861797,14.5928059 C37.5693906,15.1927996 36.7330234,15.5595781 35.7944844,15.5603713 C34.8560469,15.5595781 34.0195781,15.1927996 33.4027891,14.5928059 C32.7882344,13.9906308 32.4125547,13.1747743 32.4118438,12.2585717 L32.4118438,2.97408861 L32.4118438,2.97408861 Z M22.6173594,2.97408861 L29.3826406,2.97408861 L29.3826406,12.2585717 C29.3819297,13.1747743 29.00625,13.9906308 28.3915937,14.5928059 C27.7749063,15.1927996 26.93925,15.5595781 26.0007109,15.5603713 C25.0615625,15.5595781 24.2250938,15.1927996 23.6083047,14.5928059 C22.99375,13.9906308 22.6180703,13.1747743 22.6172578,12.2585717 L22.6172578,2.97408861 L22.6173594,2.97408861 Z M12.8236875,2.97408861 L19.5882578,2.97408861 L19.5882578,12.2585717 C19.5875469,13.1747743 19.2118672,13.9906308 18.5980234,14.5928059 C17.9805234,15.1927996 17.1448672,15.5595781 16.2056172,15.5603713 C15.2671797,15.5595781 14.4315234,15.1927996 13.8147344,14.5928059 C13.2001797,13.9906308 12.8245,13.1747743 12.8237891,12.2585717 L12.8237891,2.97408861 L12.8236875,2.97408861 Z M3.02920312,2.97408861 L9.79448438,2.97408861 L9.79448438,12.2585717 C9.79367188,13.1747743 9.41809375,13.9906308 8.8034375,14.5928059 C8.18675,15.1927996 7.35028125,15.5595781 6.41103125,15.5603713 C5.47259375,15.5595781 4.6369375,15.1927996 4.02014844,14.5928059 C3.40559375,13.9906308 3.02991406,13.1747743 3.02910156,12.2585717 L3.02910156,2.97408861 L3.02920312,2.97408861 Z M48.9707969,44.0259114 L34.425625,44.0259114 L34.425625,34.4591308 L17.5751875,34.4591308 L17.5751875,44.0259114 L3.02920312,44.0259114 L3.02920312,17.5682827 C4.0113125,18.1660949 5.16790625,18.5170084 6.41113281,18.5178017 C8.376875,18.5170084 10.1332969,17.6520696 11.3090859,16.2932342 C12.4849766,17.6520696 14.2405859,18.5170084 16.2055156,18.5178017 C18.1712578,18.5178017 19.9269688,17.6528629 21.1027578,16.2939283 C22.2793594,17.6520696 24.0350703,18.5170084 26.0007109,18.5178017 C27.9656406,18.5170084 29.7213516,17.6520696 30.8972422,16.2932342 C32.0731328,17.6520696 33.8287422,18.5170084 35.7944844,18.5178017 C37.7595156,18.5170084 39.515125,17.6520696 40.6917266,16.2939283 C41.8676172,17.6527637 43.6232266,18.5178017 45.5889687,18.5178017 C46.8320937,18.5170084 47.9887891,18.1661941 48.9707969,17.5682827 L48.9707969,44.0259114 Z M48.9707969,12.2585717 C48.9701875,13.1747743 48.5944063,13.9906308 47.9798516,14.5928059 C47.3631641,15.1927996 46.5274063,15.5595781 45.5889688,15.5603713 C44.6497188,15.5595781 43.8140625,15.1927996 43.1965625,14.5928059 C42.5827188,13.9906308 42.2071406,13.1747743 42.2063281,12.2585717 L42.2063281,2.97408861 L48.9708984,2.97408861 L48.9708984,12.2585717 L48.9707969,12.2585717 Z" id="Shape"></path>
                                <rect id="Rectangle-path" x="10.8541875" y="22.4079937" width="5.048875" height="5.77614135"></rect>
                                <rect id="Rectangle-path" x="36.0969375" y="22.4079937" width="5.048875" height="5.77614135"></rect>
                                <rect id="Rectangle-path" x="23.4752578" y="22.4079937" width="5.04948437" height="5.77614135"></rect>
                            </g>
                        </g>
                    </g>
                </g>
                <g id="お店っぽい建物アイコン-(1)" transform="translate(78.000000, 72.000000)">
                    <g id="_x32_">
                        <g fill-rule="nonzero">
                            <g id="Group">
                                <path d="M0,0.016757384 L0,12.2585717 L0,46.9832426 L52,46.9832426 L52,45.5045274 L52,12.2584726 L52,0.016757384 L0,0.016757384 Z M32.4118438,2.97408861 L39.177125,2.97408861 L39.177125,12.2585717 C39.1764141,13.173981 38.8007344,13.9906308 38.1861797,14.5928059 C37.5693906,15.1927996 36.7330234,15.5595781 35.7944844,15.5603713 C34.8560469,15.5595781 34.0195781,15.1927996 33.4027891,14.5928059 C32.7882344,13.9906308 32.4125547,13.1747743 32.4118438,12.2585717 L32.4118438,2.97408861 L32.4118438,2.97408861 Z M22.6173594,2.97408861 L29.3826406,2.97408861 L29.3826406,12.2585717 C29.3819297,13.1747743 29.00625,13.9906308 28.3915937,14.5928059 C27.7749063,15.1927996 26.93925,15.5595781 26.0007109,15.5603713 C25.0615625,15.5595781 24.2250938,15.1927996 23.6083047,14.5928059 C22.99375,13.9906308 22.6180703,13.1747743 22.6172578,12.2585717 L22.6172578,2.97408861 L22.6173594,2.97408861 Z M12.8236875,2.97408861 L19.5882578,2.97408861 L19.5882578,12.2585717 C19.5875469,13.1747743 19.2118672,13.9906308 18.5980234,14.5928059 C17.9805234,15.1927996 17.1448672,15.5595781 16.2056172,15.5603713 C15.2671797,15.5595781 14.4315234,15.1927996 13.8147344,14.5928059 C13.2001797,13.9906308 12.8245,13.1747743 12.8237891,12.2585717 L12.8237891,2.97408861 L12.8236875,2.97408861 Z M3.02920312,2.97408861 L9.79448438,2.97408861 L9.79448438,12.2585717 C9.79367188,13.1747743 9.41809375,13.9906308 8.8034375,14.5928059 C8.18675,15.1927996 7.35028125,15.5595781 6.41103125,15.5603713 C5.47259375,15.5595781 4.6369375,15.1927996 4.02014844,14.5928059 C3.40559375,13.9906308 3.02991406,13.1747743 3.02910156,12.2585717 L3.02910156,2.97408861 L3.02920312,2.97408861 Z M48.9707969,44.0259114 L34.425625,44.0259114 L34.425625,34.4591308 L17.5751875,34.4591308 L17.5751875,44.0259114 L3.02920312,44.0259114 L3.02920312,17.5682827 C4.0113125,18.1660949 5.16790625,18.5170084 6.41113281,18.5178017 C8.376875,18.5170084 10.1332969,17.6520696 11.3090859,16.2932342 C12.4849766,17.6520696 14.2405859,18.5170084 16.2055156,18.5178017 C18.1712578,18.5178017 19.9269688,17.6528629 21.1027578,16.2939283 C22.2793594,17.6520696 24.0350703,18.5170084 26.0007109,18.5178017 C27.9656406,18.5170084 29.7213516,17.6520696 30.8972422,16.2932342 C32.0731328,17.6520696 33.8287422,18.5170084 35.7944844,18.5178017 C37.7595156,18.5170084 39.515125,17.6520696 40.6917266,16.2939283 C41.8676172,17.6527637 43.6232266,18.5178017 45.5889687,18.5178017 C46.8320937,18.5170084 47.9887891,18.1661941 48.9707969,17.5682827 L48.9707969,44.0259114 Z M48.9707969,12.2585717 C48.9701875,13.1747743 48.5944063,13.9906308 47.9798516,14.5928059 C47.3631641,15.1927996 46.5274063,15.5595781 45.5889688,15.5603713 C44.6497188,15.5595781 43.8140625,15.1927996 43.1965625,14.5928059 C42.5827188,13.9906308 42.2071406,13.1747743 42.2063281,12.2585717 L42.2063281,2.97408861 L48.9708984,2.97408861 L48.9708984,12.2585717 L48.9707969,12.2585717 Z" id="Shape"></path>
                                <rect id="Rectangle-path" x="10.8541875" y="22.4079937" width="5.048875" height="5.77614135"></rect>
                                <rect id="Rectangle-path" x="36.0969375" y="22.4079937" width="5.048875" height="5.77614135"></rect>
                                <rect id="Rectangle-path" x="23.4752578" y="22.4079937" width="5.04948437" height="5.77614135"></rect>
                            </g>
                        </g>
                    </g>
                </g>
                <g id="お店っぽい建物アイコン-(1)" transform="translate(156.000000, 0.000000)">
                    <g id="_x32_">
                        <g fill-rule="nonzero">
                            <g id="Group">
                                <path d="M0,0.016757384 L0,12.2585717 L0,46.9832426 L52,46.9832426 L52,45.5045274 L52,12.2584726 L52,0.016757384 L0,0.016757384 Z M32.4118438,2.97408861 L39.177125,2.97408861 L39.177125,12.2585717 C39.1764141,13.173981 38.8007344,13.9906308 38.1861797,14.5928059 C37.5693906,15.1927996 36.7330234,15.5595781 35.7944844,15.5603713 C34.8560469,15.5595781 34.0195781,15.1927996 33.4027891,14.5928059 C32.7882344,13.9906308 32.4125547,13.1747743 32.4118438,12.2585717 L32.4118438,2.97408861 L32.4118438,2.97408861 Z M22.6173594,2.97408861 L29.3826406,2.97408861 L29.3826406,12.2585717 C29.3819297,13.1747743 29.00625,13.9906308 28.3915937,14.5928059 C27.7749063,15.1927996 26.93925,15.5595781 26.0007109,15.5603713 C25.0615625,15.5595781 24.2250938,15.1927996 23.6083047,14.5928059 C22.99375,13.9906308 22.6180703,13.1747743 22.6172578,12.2585717 L22.6172578,2.97408861 L22.6173594,2.97408861 Z M12.8236875,2.97408861 L19.5882578,2.97408861 L19.5882578,12.2585717 C19.5875469,13.1747743 19.2118672,13.9906308 18.5980234,14.5928059 C17.9805234,15.1927996 17.1448672,15.5595781 16.2056172,15.5603713 C15.2671797,15.5595781 14.4315234,15.1927996 13.8147344,14.5928059 C13.2001797,13.9906308 12.8245,13.1747743 12.8237891,12.2585717 L12.8237891,2.97408861 L12.8236875,2.97408861 Z M3.02920312,2.97408861 L9.79448438,2.97408861 L9.79448438,12.2585717 C9.79367188,13.1747743 9.41809375,13.9906308 8.8034375,14.5928059 C8.18675,15.1927996 7.35028125,15.5595781 6.41103125,15.5603713 C5.47259375,15.5595781 4.6369375,15.1927996 4.02014844,14.5928059 C3.40559375,13.9906308 3.02991406,13.1747743 3.02910156,12.2585717 L3.02910156,2.97408861 L3.02920312,2.97408861 Z M48.9707969,44.0259114 L34.425625,44.0259114 L34.425625,34.4591308 L17.5751875,34.4591308 L17.5751875,44.0259114 L3.02920312,44.0259114 L3.02920312,17.5682827 C4.0113125,18.1660949 5.16790625,18.5170084 6.41113281,18.5178017 C8.376875,18.5170084 10.1332969,17.6520696 11.3090859,16.2932342 C12.4849766,17.6520696 14.2405859,18.5170084 16.2055156,18.5178017 C18.1712578,18.5178017 19.9269688,17.6528629 21.1027578,16.2939283 C22.2793594,17.6520696 24.0350703,18.5170084 26.0007109,18.5178017 C27.9656406,18.5170084 29.7213516,17.6520696 30.8972422,16.2932342 C32.0731328,17.6520696 33.8287422,18.5170084 35.7944844,18.5178017 C37.7595156,18.5170084 39.515125,17.6520696 40.6917266,16.2939283 C41.8676172,17.6527637 43.6232266,18.5178017 45.5889687,18.5178017 C46.8320937,18.5170084 47.9887891,18.1661941 48.9707969,17.5682827 L48.9707969,44.0259114 Z M48.9707969,12.2585717 C48.9701875,13.1747743 48.5944063,13.9906308 47.9798516,14.5928059 C47.3631641,15.1927996 46.5274063,15.5595781 45.5889688,15.5603713 C44.6497188,15.5595781 43.8140625,15.1927996 43.1965625,14.5928059 C42.5827188,13.9906308 42.2071406,13.1747743 42.2063281,12.2585717 L42.2063281,2.97408861 L48.9708984,2.97408861 L48.9708984,12.2585717 L48.9707969,12.2585717 Z" id="Shape"></path>
                                <rect id="Rectangle-path" x="10.8541875" y="22.4079937" width="5.048875" height="5.77614135"></rect>
                                <rect id="Rectangle-path" x="36.0969375" y="22.4079937" width="5.048875" height="5.77614135"></rect>
                                <rect id="Rectangle-path" x="23.4752578" y="22.4079937" width="5.04948437" height="5.77614135"></rect>
                            </g>
                        </g>
                    </g>
                </g>
                <g id="お店っぽい建物アイコン-(1)" transform="translate(156.000000, 72.000000)">
                    <g id="_x32_">
                        <g fill-rule="nonzero">
                            <g id="Group">
                                <path d="M0,0.016757384 L0,12.2585717 L0,46.9832426 L52,46.9832426 L52,45.5045274 L52,12.2584726 L52,0.016757384 L0,0.016757384 Z M32.4118438,2.97408861 L39.177125,2.97408861 L39.177125,12.2585717 C39.1764141,13.173981 38.8007344,13.9906308 38.1861797,14.5928059 C37.5693906,15.1927996 36.7330234,15.5595781 35.7944844,15.5603713 C34.8560469,15.5595781 34.0195781,15.1927996 33.4027891,14.5928059 C32.7882344,13.9906308 32.4125547,13.1747743 32.4118438,12.2585717 L32.4118438,2.97408861 L32.4118438,2.97408861 Z M22.6173594,2.97408861 L29.3826406,2.97408861 L29.3826406,12.2585717 C29.3819297,13.1747743 29.00625,13.9906308 28.3915937,14.5928059 C27.7749063,15.1927996 26.93925,15.5595781 26.0007109,15.5603713 C25.0615625,15.5595781 24.2250938,15.1927996 23.6083047,14.5928059 C22.99375,13.9906308 22.6180703,13.1747743 22.6172578,12.2585717 L22.6172578,2.97408861 L22.6173594,2.97408861 Z M12.8236875,2.97408861 L19.5882578,2.97408861 L19.5882578,12.2585717 C19.5875469,13.1747743 19.2118672,13.9906308 18.5980234,14.5928059 C17.9805234,15.1927996 17.1448672,15.5595781 16.2056172,15.5603713 C15.2671797,15.5595781 14.4315234,15.1927996 13.8147344,14.5928059 C13.2001797,13.9906308 12.8245,13.1747743 12.8237891,12.2585717 L12.8237891,2.97408861 L12.8236875,2.97408861 Z M3.02920312,2.97408861 L9.79448438,2.97408861 L9.79448438,12.2585717 C9.79367188,13.1747743 9.41809375,13.9906308 8.8034375,14.5928059 C8.18675,15.1927996 7.35028125,15.5595781 6.41103125,15.5603713 C5.47259375,15.5595781 4.6369375,15.1927996 4.02014844,14.5928059 C3.40559375,13.9906308 3.02991406,13.1747743 3.02910156,12.2585717 L3.02910156,2.97408861 L3.02920312,2.97408861 Z M48.9707969,44.0259114 L34.425625,44.0259114 L34.425625,34.4591308 L17.5751875,34.4591308 L17.5751875,44.0259114 L3.02920312,44.0259114 L3.02920312,17.5682827 C4.0113125,18.1660949 5.16790625,18.5170084 6.41113281,18.5178017 C8.376875,18.5170084 10.1332969,17.6520696 11.3090859,16.2932342 C12.4849766,17.6520696 14.2405859,18.5170084 16.2055156,18.5178017 C18.1712578,18.5178017 19.9269688,17.6528629 21.1027578,16.2939283 C22.2793594,17.6520696 24.0350703,18.5170084 26.0007109,18.5178017 C27.9656406,18.5170084 29.7213516,17.6520696 30.8972422,16.2932342 C32.0731328,17.6520696 33.8287422,18.5170084 35.7944844,18.5178017 C37.7595156,18.5170084 39.515125,17.6520696 40.6917266,16.2939283 C41.8676172,17.6527637 43.6232266,18.5178017 45.5889687,18.5178017 C46.8320937,18.5170084 47.9887891,18.1661941 48.9707969,17.5682827 L48.9707969,44.0259114 Z M48.9707969,12.2585717 C48.9701875,13.1747743 48.5944063,13.9906308 47.9798516,14.5928059 C47.3631641,15.1927996 46.5274063,15.5595781 45.5889688,15.5603713 C44.6497188,15.5595781 43.8140625,15.1927996 43.1965625,14.5928059 C42.5827188,13.9906308 42.2071406,13.1747743 42.2063281,12.2585717 L42.2063281,2.97408861 L48.9708984,2.97408861 L48.9708984,12.2585717 L48.9707969,12.2585717 Z" id="Shape"></path>
                                <rect id="Rectangle-path" x="10.8541875" y="22.4079937" width="5.048875" height="5.77614135"></rect>
                                <rect id="Rectangle-path" x="36.0969375" y="22.4079937" width="5.048875" height="5.77614135"></rect>
                                <rect id="Rectangle-path" x="23.4752578" y="22.4079937" width="5.04948437" height="5.77614135"></rect>
                            </g>
                        </g>
                    </g>
                </g>
            </g>
        </g>
    </g>
</svg>