<?xml version="1.0" encoding="UTF-8"?>
<svg width="280px" height="119px" viewBox="0 0 280 119" version="1.1" xmlns="http://www.w3.org/2000/svg" xmlns:xlink="http://www.w3.org/1999/xlink">
    <!-- Generator: Sketch 42 (36781) - http://www.bohemiancoding.com/sketch -->
    <title>Group 3</title>
    <desc>Created with Sketch.</desc>
    <defs></defs>
    <g id="Page-1" stroke="none" stroke-width="1" fill="none" fill-rule="evenodd">
        <g id="Group-3" fill-rule="nonzero" fill="#FFFFFF">
            <g id="イイネの手のフリーアイコン" transform="translate(206.977859, 31.235622)">
                <g id="_x32_">
                    <g id="Group">
                        <path d="M72.294293,27.7270335 C70.885391,24.2356189 67.3087941,21.8888443 63.396032,21.8888443 L52.1141328,21.8888443 C51.7557466,21.8888443 51.4375294,21.8844434 51.1526437,21.8754998 C51.2439496,21.7556839 51.3240024,21.6492123 51.3908081,21.5627574 C51.7781102,21.0569467 52.0919117,20.6533485 52.3389076,20.2584101 C52.4369082,20.1275211 52.5793511,19.9678138 52.7461516,19.7682152 C54.1016376,18.1734135 56.9237148,14.8527793 57.6648449,10.2412841 C58.0766471,7.68369585 57.3288222,5.068471 55.6195083,3.06992929 C54.0304161,1.21107823 51.7869416,0.104200143 49.6213833,0.104200143 C47.4336039,0.104200143 45.5372626,1.18893215 44.419941,3.08100233 C44.2552771,3.35612478 44.0594182,3.70648711 43.8323644,4.11249857 C42.7217376,6.07995059 40.4137365,10.1769753 38.1813725,11.7873928 C35.6218174,13.630628 33.3561217,16.1172352 31.1660633,18.5239178 C28.1546795,21.8334791 25.0387426,25.2537707 22.5260511,25.2537707 C20.5607675,25.2537707 18.9693962,26.8441715 18.9693962,28.8005505 L18.9693962,53.0073511 C18.9693962,54.9660014 20.5607675,56.5541309 22.5260511,56.5541309 C25.141159,56.5541309 31.0392892,58.816722 35.3436265,60.4714316 C38.6420326,61.738017 41.4931683,62.8292793 43.4205621,63.2152741 C43.9880544,63.3284178 44.5734944,63.4593068 45.1744607,63.5901958 C47.3800454,64.0782614 49.8840479,64.6304937 52.3722392,64.6304937 C56.3273067,64.6304937 59.3852693,63.2064724 61.4596642,60.3960498 C63.4827797,57.661009 65.7930599,50.5562343 68.8400544,40.8140888 C69.0470239,40.1464413 69.2539933,39.4898668 69.4521313,38.8554384 C74.0726917,33.9556183 73.0020914,29.4771416 72.294293,27.7270335 Z M66.31611,36.9744413 C63.8901662,44.6648093 60.6584233,55.5027599 58.5930023,58.2954373 C57.0217155,60.4248681 54.7937672,61.0837139 52.3722392,61.0837139 C49.645741,61.0837139 46.6745261,60.2496869 44.1193867,59.7373459 C39.8616281,58.887845 27.8341831,53.007493 22.5259087,53.007493 L22.5259087,28.8005505 C28.9691676,28.8005505 34.0815831,19.1116407 40.2644564,14.6619823 C43.5963366,12.2597005 46.3872189,6.74092589 47.4845985,4.8799454 C47.9898432,4.02377229 48.768863,3.64885052 49.6212409,3.64885052 C51.898047,3.64885052 54.6890718,6.32398335 54.1504954,9.67996617 C53.4093654,14.2914613 49.8927369,17.4302422 49.3363552,18.3507241 C48.7821102,19.2757488 46.3739717,21.8576126 46.3739717,23.3327402 C46.3739717,24.6258725 47.297571,25.4356241 52.1139903,25.4356241 L63.3958896,25.4356241 C68.2191462,25.4356241 72.4702099,31.0852877 66.31611,36.9744413 Z" id="Shape"></path>
                        <path d="M0.000142442827,31.6197748 L0.000142442827,54.0808681 C0.000142442827,56.8558002 2.2570066,59.1071763 5.04347318,59.1071763 L11.0594036,59.1071763 C12.9178551,59.1071763 14.4223363,57.6055018 14.4223363,55.7555943 L14.4223363,26.5934665 L5.04347318,26.5934665 C2.2570066,26.5934665 0.000142442827,28.8427132 0.000142442827,31.6197748 Z M7.09336791,49.1366139 C8.37093763,49.1366139 9.40806386,50.1681101 9.40806386,51.4434971 C9.40806386,52.7167547 8.37093763,53.7503804 7.09336791,53.7503804 C5.81366155,53.7503804 4.77639288,52.7167547 4.77639288,51.4434971 C4.77639288,50.1681101 5.81351911,49.1366139 7.09336791,49.1366139 Z" id="Shape"></path>
                    </g>
                </g>
            </g>
            <g id="人脈のフリーアイコン2" transform="translate(89.061823, 0.000000)">
                <g id="_x32_">
                    <g id="Group">
                        <path d="M58.6181291,26.448423 C65.9475536,26.448423 71.8922031,20.528141 71.8922031,13.2260223 C71.8924303,5.92412987 65.9477808,0 58.6181291,0 C51.2866598,0 45.3440551,5.92412987 45.3440551,13.2260223 C45.3442823,20.528141 51.2866598,26.448423 58.6181291,26.448423 Z" id="Shape"></path>
                        <path d="M69.8585491,28.4762486 C69.5697797,28.1901484 68.2611162,28.1161336 67.9069137,28.3352356 C65.2002976,29.9954768 62.023835,30.9667236 58.6181291,30.9667236 C55.2124231,30.9667236 52.0359605,29.9954768 49.3293444,28.3352356 C48.9751419,28.1161336 47.6667056,28.1903748 47.3777091,28.4762486 C45.1500275,30.6955622 42.2121234,35.6520668 41.6195896,39.1896141 C40.1618838,47.8975622 49.5008793,51.0433061 58.6181291,51.0433061 C67.7351516,51.0433061 77.0723295,47.8975622 75.6164414,39.1896141 C75.0239076,35.6520668 72.0860034,30.6955622 69.8585491,28.4762486 Z" id="Shape"></path>
                        <path d="M17.9495925,91.2935733 C25.2808346,91.2935733 31.2236665,85.3732913 31.2236665,78.0693618 C31.2236665,70.7656586 25.2810618,64.8451503 17.9495925,64.8451503 C10.6199408,64.8451503 4.6775633,70.7654323 4.6775633,78.0693618 C4.6775633,85.3732913 10.620168,91.2935733 17.9495925,91.2935733 Z" id="Shape"></path>
                        <path d="M29.1900125,93.3216252 C28.901016,93.0339406 27.5925797,92.9594731 27.2383772,93.1785751 C24.5315339,94.8408534 21.3552985,95.8100631 17.9495925,95.8100631 C14.5438866,95.8100631 11.3676512,94.8408534 8.66285268,93.1785751 C8.30660539,92.9594731 6.99816907,93.0339406 6.70917254,93.3216252 C4.48171817,95.539128 1.5440412,100.497443 0.951053039,104.033406 C-0.504607931,112.742712 8.83256998,115.888683 17.9495925,115.888683 C27.0684327,115.888683 36.4058378,112.742712 34.948132,104.03318 C34.355371,100.497443 31.4192845,95.5389017 29.1900125,93.3216252 Z" id="Shape"></path>
                        <path d="M81.1098746,80.6750464 C81.1098746,87.9789759 87.0524793,93.8992579 94.3839486,93.8992579 C101.7136,93.8992579 107.656205,87.9789759 107.656205,80.6750464 C107.656205,73.3713432 101.7136,67.4508349 94.3839486,67.4508349 C87.0527065,67.4508349 81.1098746,73.3713432 81.1098746,80.6750464 Z" id="Shape"></path>
                        <path d="M111.395789,106.725977 C110.803028,103.190014 107.865124,98.2316989 105.635852,96.0141961 C105.348673,95.7265115 104.040237,95.652044 103.684217,95.871146 C100.979419,97.5334243 97.8029559,98.5026339 94.39725,98.5026339 C90.9897264,98.5026339 87.8153086,97.5334243 85.1084653,95.871146 C84.7524452,95.652044 83.4440089,95.7265115 83.15683,96.0141961 C80.9273308,98.2316989 77.9912442,103.190014 77.3987105,106.725977 C75.9410047,115.43551 85.2781826,118.58148 94.39725,118.58148 C103.514273,118.58148 112.85145,115.43551 111.395789,106.725977 Z" id="Shape"></path>
                        <g id="Shape" transform="translate(52.824102, 72.544041) rotate(6.000000) translate(-52.824102, -72.544041) translate(4.430815, 27.954060)">
                            <g transform="translate(53.281690, 45.516497) scale(-1, 1) translate(-53.281690, -45.516497) translate(9.563380, 4.969543)">
                                <path d="M12.6831953,18.2053705 L8.5640625,17.2816546 C9.44878906,14.4308607 10.8913125,11.7558301 12.8318203,9.43074652 C13.8393438,8.22183844 14.9825781,7.10746797 16.2560859,6.11155153 C17.4940234,5.14158217 18.8416172,4.28262117 20.3045313,3.56806128 L18.6241172,0.165610028 C16.9122109,1.00426462 15.3378281,2.00762674 13.9025547,3.13102228 C12.4174375,4.29367688 11.0807188,5.59689694 9.90236719,7.00751532 C7.57307813,9.79896936 5.87046094,13.0200167 4.84821094,16.448415 L0.134125,15.3933844 L4.84073438,25.7043008 L12.6831953,18.2053705 Z"></path>
                                <path d="M50.5685234,72.8632228 C48.8788203,73.2501727 47.1444844,73.4498524 45.4047109,73.4498524 C44.1167031,73.4498524 42.8246172,73.340649 41.5402344,73.124273 C39.9862422,72.8575822 38.4451641,72.4300195 36.9432812,71.830078 C35.4824062,71.2508942 34.0620859,70.5139972 32.7052031,69.6108134 L30.5895625,72.7650752 C32.1734609,73.8185265 33.8316719,74.6754568 35.528625,75.3494039 C37.2815391,76.0490724 39.0827109,76.5508663 40.8988359,76.8599749 C42.3950547,77.1153844 43.9026016,77.2412841 45.4044844,77.2412841 C47.531,77.2412841 49.6427891,76.976624 51.7006562,76.4825014 L53.0686406,80.8510864 L59.6824531,71.637844 L49.2413203,68.6223426 L50.5685234,72.8632228 Z"></path>
                                <path d="M76.8436562,8.84772702 C78.9792344,11.0839136 80.667125,13.7384123 81.754625,16.6706574 C82.3029062,18.1424206 82.70075,19.6881894 82.9293516,21.2817911 C83.0854531,22.3573538 83.1654297,23.4496128 83.1654297,24.5603733 C83.1654297,25.0508858 83.1504766,25.547039 83.1169453,26.0488329 L86.9163984,26.2931866 C86.9537812,25.7117465 86.9721328,25.1343677 86.9721328,24.5603733 C86.9721328,23.2643733 86.8774297,21.9909359 86.699125,20.7432201 C86.4295156,18.8808969 85.9646094,17.074078 85.32525,15.3563816 C84.0279531,11.8537521 81.9961406,8.70310028 79.4253359,6.05965738 L82.6633672,2.56447354 L71.3447578,1.46860446 L73.9416172,11.9814568 L76.8436562,8.84772702 Z"></path>
                            </g>
                            <path d="M16.1409473,30.484533 L12.0011421,29.5597462 C12.8903088,26.7056472 14.3400717,24.0275152 16.2903182,21.699736 C17.302898,20.4894264 18.4518698,19.373764 19.7317689,18.3766929 C20.9759191,17.405599 22.3302759,16.5456421 23.8005318,15.8302538 L22.1116844,12.4238579 C20.3911867,13.2634848 18.8089027,14.2680102 17.3664262,15.3927081 C15.8738557,16.5567107 14.5304285,17.8614416 13.3461633,19.2736954 C11.0051844,22.0683858 9.29402241,25.2931675 8.26664213,28.7255406 L3.528898,27.6692868 L8.25912804,37.9921574 L16.1409473,30.484533 Z" transform="translate(13.664715, 25.208008) rotate(-17.000000) translate(-13.664715, -25.208008) "></path>
                            <path d="M64.8221854,76.6430051 C63.1240023,77.0304036 61.3809624,77.2303147 59.6324577,77.2303147 C58.3379859,77.2303147 57.0394155,77.1209848 55.7485869,76.9043579 C54.1867958,76.6373579 52.6379836,76.2092995 51.1285634,75.6086624 C49.6603568,75.0288071 48.2329085,74.2910558 46.869216,73.3868249 L44.7429577,76.5447437 C46.3348052,77.5994162 48.001338,78.4573401 49.7068075,79.1320685 C51.4685188,79.8325482 53.27873,80.3349239 55.1039695,80.6443909 C56.6076972,80.9000964 58.1228099,81.0261421 59.63223,81.0261421 C61.7694178,81.0261421 63.8918052,80.7611751 65.96,80.2664797 L67.3348498,84.6401294 L73.9818545,75.4162056 L63.4883216,72.3972081 L64.8221854,76.6430051 Z" transform="translate(59.362406, 78.518669) rotate(-18.000000) translate(-59.362406, -78.518669) "></path>
                            <path d="M80.2119413,9.0818401 C82.3582371,11.3206193 84.0545986,13.9781954 85.1475563,16.9138401 C85.6985892,18.3873096 86.0984296,19.9348706 86.3281784,21.5303198 C86.4850634,22.6071294 86.5654413,23.7006548 86.5654413,24.812703 C86.5654413,25.3037843 86.5504131,25.8005127 86.5167136,26.3028883 L90.3352347,26.5475254 C90.3728052,25.9654112 90.3912488,25.3873629 90.3912488,24.812703 C90.3912488,23.5152005 90.2960704,22.2402868 90.1168709,20.9911244 C89.8459085,19.1266421 89.378669,17.3177284 88.7361009,15.5980406 C87.4322934,12.0913503 85.390284,8.93704569 82.8065775,6.29053807 L86.0608592,2.79130203 L74.685446,1.69416244 L77.295338,12.219203 L80.2119413,9.0818401 Z" transform="translate(82.538347, 14.120844) rotate(-14.000000) translate(-82.538347, -14.120844) "></path>
                        </g>
                    </g>
                </g>
            </g>
            <g id="シンプルなハンドシェイクアイコン" transform="translate(0.000000, 40.515770)">
                <g id="_x32_">
                    <path d="M79.0249456,18.4118378 L67.6229697,28.2953254 L67.5759032,29.2901797 C67.5404025,29.851064 67.3532611,30.6459564 67.0353615,31.4764935 C66.8597859,31.9093447 66.6588296,32.3421958 66.4475927,32.7750469 L53.5178035,21.6751645 C53.0127624,21.2423134 52.3422658,21.0434704 51.6846202,21.125629 C51.5663917,21.1486462 42.0814514,22.3306751 32.6308872,26.2953869 C31.6897182,26.6927532 30.985006,26.8105565 30.5143412,26.8105565 C30.1275286,26.8105565 29.9036014,26.7397466 29.7269013,26.6585471 C29.4685978,26.5295549 29.2918977,26.3661967 29.1161614,26.0270128 C28.9394613,25.6991776 28.8223574,25.219333 28.8223574,24.7043233 C28.8223574,23.9802407 29.0806608,23.2422519 29.3744649,22.8802106 C29.7395915,22.4120345 30.1861609,21.7689916 30.7967401,20.9384545 C31.7139743,19.7105511 32.9592281,18.1194875 34.4412601,16.5639087 C35.922007,15.0081701 37.6380863,13.5118926 39.4367327,12.4588559 C41.86909,11.0322694 43.9501353,10.6815768 45.9129522,10.6689494 C47.1239905,10.6689494 48.2868378,10.8220776 49.4278386,10.9854358 C50.556149,11.1487939 51.6489589,11.3601046 52.8359017,11.3601046 C53.5889654,11.3601046 54.3878105,11.277946 55.2223169,10.938762 L55.2337221,10.938762 C56.5274882,10.3893863 57.7958736,9.58170658 59.0780739,8.66933055 C60.9825797,7.28957759 62.8626688,5.66414804 64.2963492,4.36543479 C64.5787481,4.11991804 64.8370516,3.87424146 65.072384,3.65158206 L61.8641526,0.24887342 C61.1581554,0.903424899 60.2409212,1.72229358 59.2538101,2.55283069 C58.2435675,3.41853296 57.1496332,4.29574384 56.115295,5.02110516 C55.0811175,5.75781524 54.0938458,6.34267576 53.4236705,6.61104986 C53.3880092,6.63502611 53.2008677,6.68185971 52.8359017,6.68185971 C52.2722283,6.6933683 51.3080883,6.54135891 50.1211455,6.36537328 C48.9343634,6.19066637 47.5108031,5.99070449 45.9129522,5.99070449 C44.5264989,5.97935574 42.9858346,6.15518153 41.3638883,6.59954127 C39.7533472,6.15518153 38.2141286,5.99070449 36.8148244,5.99070449 C35.2158491,5.99070449 33.8061035,6.19050653 32.6181969,6.36537328 C31.4312541,6.54135891 30.4671141,6.69320846 29.8920355,6.68185971 C29.5395992,6.68185971 29.3513332,6.63502611 29.3156719,6.61104986 C28.5982695,6.33004828 27.5284307,5.67565664 26.4242157,4.88060436 C24.743637,3.67555831 22.9563958,2.13132831 21.6054432,0.903424899 C21.2403165,0.575589714 20.9108511,0.271890615 20.617047,0.00335667425 L17.3972498,3.40606532 C18.0905568,4.05022709 18.9951007,4.88060436 20.0063072,5.75781524 C21.1347783,6.71606581 22.3928831,7.74528608 23.662393,8.66933055 C24.9433081,9.58186642 26.2129787,10.3895462 27.5054597,10.938762 C28.3401267,11.277946 29.1515015,11.3601046 29.8918749,11.3601046 C31.0786571,11.3601046 32.1841572,11.1614214 33.3124677,10.9854358 C33.394071,10.974087 33.4650723,10.974087 33.5352704,10.9614595 C31.9717958,12.2954978 30.6081529,13.7462204 29.4567107,15.0904886 C28.4811655,16.2247248 27.6694695,17.28927 27.0118238,18.1664809 C26.3769885,19.0321832 25.8833527,19.7335683 25.6595861,20.0145698 C24.5897473,21.3954417 24.1317728,23.0561962 24.1202069,24.7043233 C24.1317728,26.2485533 24.5438053,27.8624742 25.6125196,29.2195297 C26.1416561,29.8865488 26.8476534,30.4825983 27.693565,30.8802842 C28.5396372,31.2776505 29.5153431,31.489121 30.5140199,31.489121 C31.7721247,31.489121 33.0771353,31.1841432 34.4637492,30.5994425 C38.813142,28.7753298 43.3035735,27.5474264 46.676136,26.7982487 C48.3692443,26.4246988 49.7799537,26.1665545 50.7670647,26.0031964 C50.9553307,25.9677116 51.1080959,25.945014 51.2607006,25.9210378 L66.0363634,38.5880075 L66.0363634,38.600635 L66.0477686,38.600635 C66.0477686,38.6473088 66.0236731,38.7753419 65.9181349,38.9740251 C65.7423986,39.3018603 65.3544616,39.7347114 64.8608258,40.0385703 C64.3671899,40.3422694 63.7909869,40.5182551 63.2502846,40.5182551 C63.0506135,40.5182551 62.8623476,40.5537399 62.6740816,40.587946 C62.3446163,40.5182551 62.0037457,40.4245879 61.6754048,40.2840871 C60.6526324,39.8867208 59.6998976,39.2550267 59.0306861,38.7054911 C58.6898155,38.4359981 58.4188218,38.1904814 58.2432462,38.0156147 L58.0435751,37.8282803 L57.9965086,37.7816065 L57.9965086,37.7700979 C57.6429477,37.3954291 57.1620022,37.2080947 56.691498,37.2080947 C56.2678996,37.2080947 55.8454257,37.3601041 55.5045552,37.6639631 C54.7871528,38.3196334 54.7400863,39.4308525 55.399017,40.1437461 C55.4574887,40.2147158 56.3390616,41.1728066 57.795713,42.1678207 C58.5132761,42.6588542 59.394849,43.1615561 60.3946503,43.5589224 C60.6172924,43.641081 60.86403,43.7347482 61.1107676,43.8044392 C61.1820902,43.9564486 61.2635329,44.109417 61.369071,44.2487989 L61.3575052,44.2487989 L61.369071,44.2612665 C61.4045717,44.3309575 61.4757337,44.6119591 61.463204,44.951143 C61.4758943,45.5941859 61.2405619,46.4360718 60.8995307,46.9042479 C60.7342358,47.1497647 60.5702259,47.2904253 60.4058948,47.3839327 C60.2291947,47.4775999 60.0650243,47.535942 59.7471247,47.5472908 L59.6300207,47.5472908 C59.5715491,47.5357822 59.5002265,47.5472908 59.4417548,47.5587994 L59.430189,47.5587994 C57.9023756,47.5587994 56.480261,46.9042479 55.4333932,46.1903952 C54.9042567,45.8397027 54.4817828,45.4778212 54.1993839,45.2195171 C54.0580239,45.0916438 53.9524857,44.986468 53.894014,44.9156582 L53.8228521,44.8459672 L53.8114469,44.8334996 L53.8114469,44.821991 C53.4704157,44.4244649 52.9769405,44.2257817 52.4833047,44.2257817 C52.0723966,44.2257817 51.6602034,44.3662825 51.3308987,44.6587927 C50.5905253,45.290327 50.5090826,46.4017058 51.155323,47.1270672 C51.2137947,47.2082667 52.0368959,48.1323112 53.4476053,49.0916806 C54.3760841,49.7232149 55.5986881,50.3777664 57.0439344,50.7524352 C57.0208027,50.78792 57.0082731,50.8345938 56.9967073,50.8689597 C56.808602,51.2904621 56.5502985,51.7119645 55.8213303,52.132348 C55.3392603,52.4133496 54.9869845,52.5538504 54.7400863,52.6361688 C54.4933487,52.7058598 54.3635544,52.7172085 54.1879788,52.7172085 C53.9526463,52.7172085 53.6117758,52.6703749 53.0481024,52.5538504 C52.9412792,52.5298741 52.835741,52.5298741 52.7302029,52.5183655 C52.6945416,52.5068569 52.6601654,52.4955082 52.6129383,52.4715319 C52.0367353,52.1905303 51.3193329,51.699337 50.7901964,51.2789535 C50.5318929,51.0802704 50.3092508,50.8815872 50.1553611,50.7524352 L49.9797854,50.5892369 L49.9441241,50.553752 L49.932719,50.553752 C49.2278462,49.8752243 48.1111015,49.9107092 47.4406049,50.6005856 C46.7701083,51.3019707 46.7942038,52.4131897 47.4990766,53.0803687 C47.5345772,53.1145748 48.2749507,53.8284275 49.320694,54.5651376 C49.4973941,54.7056384 49.7086311,54.8347904 49.9084628,54.9625039 C49.6271884,55.4194911 49.320694,55.7346988 49.02689,55.933382 C48.5571889,56.2612172 48.0523086,56.4132266 47.3933778,56.4132266 C46.8057696,56.4132266 46.1124627,56.2727258 45.4189951,55.9803754 C45.1836627,55.8867082 44.9598961,55.7462074 44.7370933,55.6296829 C44.8656025,55.1271408 44.9369251,54.6234798 44.9369251,54.1094291 C44.9369251,53.0563925 44.6545262,51.9803386 44.0553522,51.0209691 C43.043985,49.4070482 41.3521618,48.4487976 39.5761651,48.2967882 C39.5761651,48.2373271 39.5888554,48.167796 39.5888554,48.1094538 C39.5888554,46.9512414 39.2707952,45.7701715 38.6247154,44.7171349 C37.4136771,42.7753787 35.3095001,41.6879761 33.1711076,41.6879761 L33.1354463,41.6879761 C33.0413133,41.6879761 32.9585856,41.6994847 32.8771429,41.6994847 C32.7716047,40.786789 32.47764,39.8868806 31.9599087,39.0678521 C30.9612318,37.4652799 29.3624171,36.4601957 27.6346114,36.1438692 C27.6220817,35.0096329 27.3053066,33.8514205 26.6704714,32.8222002 C25.4480279,30.8690953 23.3324457,29.7932013 21.1813629,29.7932013 C20.0173911,29.7932013 18.8304483,30.108409 17.7721753,30.7640794 L15.5153937,32.1553409 C15.456922,32.0388164 15.3868845,31.9098242 15.3398181,31.7932996 C14.9391907,30.8579064 14.6924531,29.9212345 14.6694821,29.2906592 L14.622255,28.2958049 L3.2202791,18.4123173 L0,21.8156653 L10.0979291,30.5762655 C10.2735048,31.6293021 10.6029701,32.6345461 10.9910678,33.5699394 C11.2378054,34.1787761 11.5202043,34.7521281 11.8014788,35.290155 C11.1907389,36.2952392 10.8498684,37.4534516 10.8498684,38.6116641 C10.8498684,39.7698766 11.1666435,40.9509464 11.8255742,42.003024 C12.8242511,43.5940876 14.4232264,44.6004505 16.1508715,44.9156582 C16.1624374,46.0498944 16.4803369,47.2081069 17.1150116,48.2371673 C18.3376157,50.190432 20.4530372,51.2789535 22.6042807,51.2789535 C22.6868478,51.2789535 22.7684511,51.2664859 22.8510183,51.2549773 C22.9681222,52.167673 23.2619263,53.0675814 23.7796576,53.8981185 C25.0021011,55.8525021 27.1176833,56.9283961 29.2687661,56.9283961 C29.480003,56.9283961 29.6923644,56.9044199 29.9036014,56.8815625 C30.0093002,57.6993123 30.2801332,58.5183408 30.7381078,59.2550509 C31.8550131,61.0334489 33.7821687,62.0271843 35.733741,62.0156757 C36.792014,62.0156757 37.8734187,61.7346741 38.8364342,61.1384649 L41.7751176,59.3258608 C42.3514812,59.7005295 42.9504946,60.027086 43.5980202,60.2852302 C44.7733971,60.7877723 46.0660387,61.0916313 47.3940203,61.0916313 C48.8517962,61.10298 50.4038657,60.7054539 51.7318473,59.7700607 C52.5893247,59.1738514 53.318293,58.3548228 53.917467,57.3839448 C54.0115999,57.3839448 54.0941671,57.3954534 54.1884607,57.3954534 C54.7990399,57.3954534 55.4579706,57.3144137 56.1271821,57.103103 C56.7859522,56.9044199 57.4437585,56.6005609 58.1497558,56.2030348 C59.8303344,55.2550141 60.8415409,53.8637525 61.3351767,52.6826827 C61.4407149,52.4130299 61.5234427,52.1675131 61.5934802,51.9333452 C61.9928224,51.8054719 62.3924859,51.6523436 62.7460468,51.4423117 C64.0385277,50.7056016 64.8844393,49.5713654 65.4137365,48.4360103 C65.9313071,47.2904253 66.1655151,46.096728 66.1655151,44.951143 C66.1655151,44.8334996 66.1541099,44.7283238 66.1425441,44.6117992 C67.0000215,44.2726153 67.7644904,43.7815818 68.4107309,43.2195786 C69.0810668,42.6347181 69.6447402,41.9561904 70.0567727,41.1852742 C70.4676807,40.4245879 70.7500796,39.5360283 70.7500796,38.5766588 C70.7500796,37.9449647 70.620446,37.290573 70.3391716,36.6702276 C70.2566044,36.4715445 70.1268102,36.2955589 69.998301,36.1082245 C70.503342,35.2196648 71.0083831,34.2259294 71.4204156,33.1498756 C71.7373513,32.330847 71.9954941,31.4766534 72.1493838,30.5879339 L82.2458672,21.8156653 L79.0249456,18.4118378 Z M18.3490208,40.0269019 L18.2433221,40.0965929 C17.949518,40.2725785 17.6316184,40.3547371 17.3148433,40.3547371 C16.7270745,40.3547371 16.1508715,40.0737355 15.8214062,39.5357086 C15.6342647,39.2431984 15.5516975,38.9268718 15.5516975,38.6115043 C15.5631027,38.0266437 15.8455016,37.4648004 16.3860433,37.1254566 L20.2533661,34.727992 C20.5585753,34.5532851 20.8639453,34.4709666 21.1820054,34.4709666 C21.7811794,34.4709666 22.3459772,34.763317 22.6741575,35.2899952 L24.6726357,34.0609729 L22.6741575,35.3015038 C22.8624234,35.5938541 22.9451512,35.897713 22.9451512,36.2140396 C22.9335854,36.6229145 22.7925466,37.0206005 22.5217135,37.3369271 L19.1950931,39.3952078 C18.8895625,39.5825422 18.6198539,39.7927339 18.3490208,40.0269019 Z M23.5327594,46.3307361 C23.2387947,46.5180705 22.9208951,46.6002291 22.60412,46.6002291 C22.0163512,46.6002291 21.4401482,46.307719 21.1106829,45.7698519 C20.9235414,45.4775015 20.8409742,45.1723638 20.8409742,44.8571562 C20.8523794,44.4482813 20.9935789,44.0496362 21.264412,43.7342687 L24.5899079,41.6761478 C24.8964023,41.4888135 25.1662715,41.2661541 25.4255388,41.0444537 L25.5426428,40.9736439 C25.847852,40.7863095 26.1533826,40.7052698 26.4712821,40.7052698 C27.0704561,40.7166185 27.6352539,40.9976201 27.9634342,41.5354872 C28.1517001,41.8279974 28.2344279,42.1316965 28.2344279,42.4481829 C28.2228621,43.0443922 27.9406238,43.6052765 27.3999215,43.9444604 L23.5327594,46.3307361 Z M34.0645676,49.5940629 L30.1858396,51.9915275 C29.8918749,52.1673533 29.5853805,52.2496717 29.2686054,52.2496717 C28.6694315,52.2496717 28.1046337,51.9573214 27.7764534,51.4306432 C27.5881874,51.1267843 27.5054597,50.8219663 27.5054597,50.5067586 C27.5054597,49.9105493 27.7994244,49.3485461 28.3401267,49.020711 L32.2072888,46.6232463 C32.5010929,46.4483796 32.817868,46.366221 33.1359282,46.366221 C33.7235364,46.366221 34.2872097,46.6472226 34.6282409,47.1852495 C34.804941,47.4777597 34.8876688,47.7929674 34.8876688,48.1094538 C34.8876688,48.6939947 34.6052699,49.2548789 34.0645676,49.5940629 Z M39.6834703,55.1028449 L36.3570105,57.1609657 C36.1571787,57.2901177 35.9575076,57.3367915 35.733741,57.3367915 C35.3456433,57.3367915 34.9577063,57.149617 34.7350642,56.7874158 C34.6168357,56.5887327 34.5583641,56.3898897 34.5583641,56.1672303 C34.5583641,55.769864 34.7580352,55.3951952 35.1104716,55.1850035 L35.1104716,55.1734949 L38.437092,53.1140953 C38.6494534,52.9974109 38.8492852,52.9392285 39.0603615,52.9392285 C39.4597037,52.9507371 39.8362356,53.1380715 40.0590383,53.5001128 C40.188672,53.6989558 40.2357384,53.897639 40.2357384,54.1087898 C40.2355778,54.5066356 40.0473119,54.8813044 39.6834703,55.1028449 Z" id="Shape"></path>
                </g>
            </g>
        </g>
    </g>
</svg>