<?xml version="1.0" encoding="UTF-8"?>
<svg width="250px" height="250px" viewBox="0 0 250 250" version="1.1" xmlns="http://www.w3.org/2000/svg" xmlns:xlink="http://www.w3.org/1999/xlink">
    <!-- Generator: Sketch 42 (36781) - http://www.bohemiancoding.com/sketch -->
    <title>icon-com-3</title>
    <desc>Created with Sketch.</desc>
    <defs></defs>
    <g id="Page-1" stroke="none" stroke-width="1" fill="none" fill-rule="evenodd">
        <g id="icon-com-3">
            <g id="Group-8" transform="translate(39.000000, 21.000000)">
                <g id="検索用の虫眼鏡アイコン素材" transform="translate(28.000000, 52.000000)" fill-rule="nonzero" fill="#E83828">
                    <g id="_x32_">
                        <g id="Group">
                            <path d="M45.8535156,27.2 C34.5182344,27.2 25.2962656,36.4275469 25.2962656,47.7694688 C25.2962656,49.3451563 26.5728594,50.6222813 28.1472188,50.6222813 C29.7218438,50.6222813 30.9981719,49.3451563 30.9981719,47.7694688 C30.9981719,39.5733438 37.6621719,32.9053594 45.8535156,32.9053594 C47.4281406,32.9053594 48.7044688,31.6282344 48.7044688,30.0525469 C48.7044688,28.477125 47.4281406,27.2 45.8535156,27.2 Z" id="Shape"></path>
                            <path d="M96.0651406,80.0888594 C101.218797,72.0042969 104.205219,62.4125781 104.205219,52.1334219 C104.205219,23.3845625 80.8344687,0 52.1026094,0 C41.8292969,0 32.2431562,2.98828125 24.1636406,8.14485937 C17.7262187,12.2514219 12.2479687,17.7328594 8.14379687,24.174 C2.99014062,32.2585625 0,41.854 0,52.1334219 C0,80.8785625 23.3744687,104.266578 52.1026094,104.266578 C62.3759219,104.266578 71.9657812,101.274578 80.0455625,96.118 C86.4827187,92.0114375 91.9609687,86.53 96.0651406,80.0888594 Z M68.9982188,85.0642813 C63.9314219,87.6785625 58.1851563,89.1557031 52.1026094,89.1557031 C31.7034063,89.1557031 15.1021094,72.5448438 15.1021094,52.1334219 C15.1021094,46.0474219 16.5784531,40.2977031 19.1911406,35.2279844 C22.7287344,28.3599844 28.3506875,22.7385625 35.2144375,19.2025625 C40.2812344,16.5882813 46.0237813,15.1111406 52.1023438,15.1111406 C72.5055313,15.1111406 89.1028438,31.7182813 89.1028438,52.1334219 C89.1028438,58.2157031 87.6265,63.9617031 85.0138125,69.0314219 C81.4802031,75.8994219 75.8619688,81.5245625 68.9982188,85.0642813 Z" id="Shape"></path>
                            <path d="M132.683938,116.650281 L102.604297,86.6282812 C98.3226875,92.8842812 92.837,98.3694375 86.5847188,102.657422 L116.664359,132.679422 C118.87675,134.893141 121.776578,136 124.672422,136 C127.571984,136 130.471813,134.893141 132.684203,132.679422 C137.105266,128.251719 137.105266,121.077719 132.683938,116.650281 Z" id="Shape"></path>
                        </g>
                    </g>
                </g>
                <polygon id="Path-2" fill="#FFE200" points="19 4.00390625 34.9960938 0 36 29.0039062"></polygon>
                <polygon id="Path-3" fill="#FFE200" points="0 25 7 15 27 39"></polygon>
            </g>
        </g>
    </g>
</svg>