<?xml version="1.0" encoding="UTF-8"?>
<svg width="250px" height="250px" viewBox="0 0 250 250" version="1.1" xmlns="http://www.w3.org/2000/svg" xmlns:xlink="http://www.w3.org/1999/xlink">
    <!-- Generator: Sketch 42 (36781) - http://www.bohemiancoding.com/sketch -->
    <title>icon-com-1</title>
    <desc>Created with Sketch.</desc>
    <defs></defs>
    <g id="Page-1" stroke="none" stroke-width="1" fill="none" fill-rule="evenodd">
        <g id="icon-com-1">
            <g id="Group-6" transform="translate(16.000000, 20.000000)">
                <polygon id="Path-2" fill="#FFE200" points="21 5 36.9960938 0.99609375 38 30"></polygon>
                <polygon id="Path-3" fill="#FFE200" points="0 26 7 16 27 40"></polygon>
                <g id="お店っぽい建物アイコン-(1)" transform="translate(40.000000, 47.000000)" fill-rule="nonzero" fill="#6FBA2C">
                    <g id="_x32_">
                        <g id="Group">
                            <path d="M0,0.0470632911 L0,34.4283291 L0,131.952937 L143,131.952937 L143,127.799949 L143,34.4280506 L143,0.0470632911 L0,0.0470632911 Z M89.1325703,8.35275949 L107.737094,8.35275949 L107.737094,34.4283291 C107.735139,36.9992658 106.70202,39.2928354 105.011994,40.9840506 C103.315824,42.6691392 101.015814,43.6992405 98.434832,43.7014684 C95.8541289,43.6992405 93.5538398,42.6691392 91.8576699,40.9840506 C90.1676445,39.2928354 89.1345254,37.0014937 89.1325703,34.4283291 L89.1325703,8.35275949 L89.1325703,8.35275949 Z M62.1977383,8.35275949 L80.8022617,8.35275949 L80.8022617,34.4283291 C80.8003066,37.0014937 79.7671875,39.2928354 78.0768828,40.9840506 C76.3809922,42.6691392 74.0829375,43.6992405 71.5019551,43.7014684 C68.9192969,43.6992405 66.6190078,42.6691392 64.9228379,40.9840506 C63.2328125,39.2928354 62.1996934,37.0014937 62.197459,34.4283291 L62.197459,8.35275949 L62.1977383,8.35275949 Z M35.2651406,8.35275949 L53.867709,8.35275949 L53.867709,34.4283291 C53.8657539,37.0014937 52.8326348,39.2928354 51.1445645,40.9840506 C49.4464395,42.6691392 47.1483848,43.6992405 44.5654473,43.7014684 C41.9847441,43.6992405 39.6866895,42.6691392 37.9905195,40.9840506 C36.3004941,39.2928354 35.267375,37.0014937 35.2654199,34.4283291 L35.2654199,8.35275949 L35.2651406,8.35275949 Z M8.33030859,8.35275949 L26.934832,8.35275949 L26.934832,34.4283291 C26.9325977,37.0014937 25.8997578,39.2928354 24.2094531,40.9840506 C22.5135625,42.6691392 20.2132734,43.6992405 17.6303359,43.7014684 C15.0496328,43.6992405 12.7515781,42.6691392 11.0554082,40.9840506 C9.36538281,39.2928354 8.33226367,37.0014937 8.3300293,34.4283291 L8.3300293,8.35275949 L8.33030859,8.35275949 Z M134.669691,123.647241 L94.6704688,123.647241 L94.6704688,96.7788354 L48.3317656,96.7788354 L48.3317656,123.647241 L8.33030859,123.647241 L8.33030859,49.3407089 C11.0311094,51.0196709 14.2117422,52.0052152 17.6306152,52.007443 C23.0364063,52.0052152 27.8665664,49.5760253 31.0999863,45.7597215 C34.3336855,49.5760253 39.1616113,52.0052152 44.565168,52.007443 C49.970959,52.007443 54.7991641,49.5782532 58.032584,45.7616709 C61.2682383,49.5760253 66.0964434,52.0052152 71.5019551,52.007443 C76.9055117,52.0052152 81.7337168,49.5760253 84.967416,45.7597215 C88.2011152,49.5760253 93.029041,52.0052152 98.434832,52.007443 C103.838668,52.0052152 108.666594,49.5760253 111.902248,45.7616709 C115.135947,49.5779747 119.963873,52.007443 125.369664,52.007443 C128.788258,52.0052152 131.96917,51.0199494 134.669691,49.3407089 L134.669691,123.647241 Z M134.669691,34.4283291 C134.668016,37.0014937 133.634617,39.2928354 131.944592,40.9840506 C130.248701,42.6691392 127.950367,43.6992405 125.369664,43.7014684 C122.786727,43.6992405 120.488672,42.6691392 118.790547,40.9840506 C117.102477,39.2928354 116.069637,37.0014937 116.067402,34.4283291 L116.067402,8.35275949 L134.669971,8.35275949 L134.669971,34.4283291 L134.669691,34.4283291 Z" id="Shape"></path>
                            <rect id="Rectangle-path" x="29.8490156" y="62.9330886" width="13.8844062" height="16.2223544"></rect>
                            <rect id="Rectangle-path" x="99.2665781" y="62.9330886" width="13.8844062" height="16.2223544"></rect>
                            <rect id="Rectangle-path" x="64.556959" y="62.9330886" width="13.886082" height="16.2223544"></rect>
                        </g>
                    </g>
                </g>
            </g>
        </g>
    </g>
</svg>