<?xml version="1.0" encoding="UTF-8"?>
<svg width="250px" height="250px" viewBox="0 0 250 250" version="1.1" xmlns="http://www.w3.org/2000/svg" xmlns:xlink="http://www.w3.org/1999/xlink">
    <!-- Generator: Sketch 42 (36781) - http://www.bohemiancoding.com/sketch -->
    <title>icon-com-2</title>
    <desc>Created with Sketch.</desc>
    <defs>
        <polygon id="path-1" points="76.1634 51.8055097 76.1634 1.96534839 1.3464 1.96534839 1.3464 51.8055097"></polygon>
        <polygon id="path-3" points="2.12646462 0.612258065 37.7166185 0.612258065 37.7166185 36.2195387 2.12646462 36.2195387 2.12646462 0.612258065"></polygon>
    </defs>
    <g id="Page-1" stroke="none" stroke-width="1" fill="none" fill-rule="evenodd">
        <g id="icon-com-2">
            <g id="Group-7" transform="translate(29.000000, 21.000000)">
                <g id="Page-1" transform="translate(22.000000, 34.015385)">
                    <g>
                        <polygon id="Fill-1" fill="#6FBA2C" points="76.6692415 145.386565 115.823118 95.6123387 76.6692415 45.7038871"></polygon>
                        <g id="Group-13" transform="translate(0.000000, 1.741403)">
                            <g id="Group-4" transform="translate(75.323077, 91.838710)">
                                <mask id="mask-2" fill="white">
                                    <use xlink:href="#path-1"></use>
                                </mask>
                                <g id="Clip-3"></g>
                                <path d="M40.5520615,1.96534839 L1.3464,51.8055097 L72.7597385,51.8055097 C75.5961231,51.8055097 77.1849692,48.5346387 75.4313538,46.3046065 L40.5520615,1.96534839 Z" id="Fill-2" fill="#FFE200" mask="url(#mask-2)"></path>
                            </g>
                            <path d="M76.6687708,43.9638968 L115.874432,93.8040581 L149.802771,50.6751871 C151.942417,47.9529935 150.005202,43.9638968 146.547402,43.9638968 L76.6687708,43.9638968 Z" id="Fill-5" fill="#00A0E9"></path>
                            <g id="Group-9" transform="translate(0.000000, 42.387097)" fill="#E83828">
                                <path d="M65.4065585,1.5768 L4.06297385,1.5768 C0.81702,1.5768 -1.11313385,5.20089677 0.69462,7.89954194 L62.0405585,99.2578645 C64.2743585,102.587606 69.4622354,101.0028 69.4622354,96.9972194 L69.4622354,5.6341871 C69.4622354,3.39238065 67.64742,1.5768 65.4065585,1.5768" id="Fill-7"></path>
                            </g>
                            <g id="Group-12" transform="translate(51.784615, 0.000000)">
                                <mask id="mask-4" fill="white">
                                    <use xlink:href="#path-3"></use>
                                </mask>
                                <g id="Clip-11"></g>
                                <path d="M37.7166185,18.4169581 C37.7166185,8.58315161 29.7488492,0.612022581 19.9215415,0.612022581 C10.0942338,0.612022581 2.12646462,8.58315161 2.12646462,18.4169581 C2.12646462,28.2484097 10.0942338,36.2195387 19.9215415,36.2195387 C29.7488492,36.2195387 37.7166185,28.2484097 37.7166185,18.4169581" id="Fill-10" fill="#E83828" mask="url(#mask-4)"></path>
                            </g>
                        </g>
                    </g>
                </g>
                <polygon id="Path-2-Copy" fill="#FFE200" points="19 4.00390625 34.9960938 0 36 29.0039062"></polygon>
                <polygon id="Path-3-Copy" fill="#FFE200" points="0 25 7 15 27 39"></polygon>
            </g>
        </g>
    </g>
</svg>