<?xml version="1.0" encoding="UTF-8"?>
<svg width="26px" height="26px" viewBox="0 0 26 26" version="1.1" xmlns="http://www.w3.org/2000/svg" xmlns:xlink="http://www.w3.org/1999/xlink">
    <!-- Generator: Sketch 42 (36781) - http://www.bohemiancoding.com/sketch -->
    <title>矢印ボタン　右1</title>
    <desc>Created with Sketch.</desc>
    <defs></defs>
    <g id="Page-1" stroke="none" stroke-width="1" fill="none" fill-rule="evenodd">
        <g id="矢印ボタン-右1" transform="translate(13.000000, 13.000000) rotate(-270.000000) translate(-13.000000, -13.000000) " fill="#B1B1B1">
            <g id="_x32_">
                <g fill-rule="nonzero">
                    <path d="M13,0 C5.82024219,0 0,5.82019141 0,13 C0,20.1798086 5.82024219,26 13,26 C20.1798086,26 26,20.1798086 26,13 C26,5.82019141 20.1798086,0 13,0 Z M19.5147266,13.1724531 L13.3198203,19.0663281 C12.7211094,19.6363984 11.774293,19.6130898 11.2046289,19.0139219 C10.6349648,18.4152109 10.6587305,17.4675312 11.2570352,16.8987305 L13.7821836,14.4964727 L7.80025391,14.4964727 C6.97343359,14.4964727 6.30388281,13.8268711 6.30388281,13.0000508 C6.30388281,12.1732305 6.97348437,11.5040352 7.80025391,11.5040352 L13.7822344,11.5040352 L11.2570859,9.10137109 C10.6587812,8.53297656 10.6350156,7.58489062 11.2046797,6.98663672 C11.7743437,6.38751953 12.7211602,6.36370312 13.3198711,6.93423047 L19.5147266,12.8275977 C19.5618516,12.8726406 19.5884609,12.9348984 19.5884609,13 C19.5884609,13.0651016 19.5618516,13.1273594 19.5147266,13.1724531 Z" id="Shape"></path>
                </g>
            </g>
        </g>
    </g>
</svg>