<?xml version="1.0" encoding="UTF-8"?>
<svg width="370px" height="36px" viewBox="0 0 370 36" version="1.1" xmlns="http://www.w3.org/2000/svg" xmlns:xlink="http://www.w3.org/1999/xlink">
    <!-- Generator: Sketch 42 (36781) - http://www.bohemiancoding.com/sketch -->
    <title>Group 2</title>
    <desc>Created with Sketch.</desc>
    <defs>
        <polygon id="path-1" points="18.4186 12.419129 18.4186 0.471145161 0.3256 0.471145161 0.3256 12.419129"></polygon>
        <polygon id="path-3" points="0.514243077 0.146774194 9.12101231 0.146774194 9.12101231 8.68276613 0.514243077 8.68276613 0.514243077 0.146774194"></polygon>
        <polygon id="path-5" points="0 18.3333333 182.412736 18.3333333 182.412736 1.03166667 0 1.03166667"></polygon>
    </defs>
    <g id="Symbols" stroke="none" stroke-width="1" fill="none" fill-rule="evenodd">
        <g id="header" transform="translate(-29.000000, -14.000000)">
            <g id="Group-2" transform="translate(29.000000, 14.000000)">
                <g id="Page-1" transform="translate(0.766129, 0.000000)">
                    <g>
                        <polygon id="Fill-1" fill="#6FBA2C" points="18.5409277 34.8529435 28.0095123 22.9207661 18.5409277 10.9564113"></polygon>
                        <g id="Group-13" transform="translate(0.000000, 0.417460)">
                            <g id="Group-4" transform="translate(18.215385, 22.016129)">
                                <mask id="mask-2" fill="white">
                                    <use xlink:href="#path-1"></use>
                                </mask>
                                <g id="Clip-3"></g>
                                <path d="M9.80670769,0.471145161 L0.3256,12.419129 L17.5954923,12.419129 C18.2814154,12.419129 18.6656462,11.6350161 18.2415692,11.1004194 L9.80670769,0.471145161 Z" id="Fill-2" fill="#FFE200" mask="url(#mask-2)"></path>
                            </g>
                            <path d="M18.5408138,10.5392903 L28.0219215,22.4872742 L36.2268138,12.1481613 C36.7442446,11.4955806 36.2757677,10.5392903 35.4395677,10.5392903 L18.5408138,10.5392903 Z" id="Fill-5" fill="#00A0E9"></path>
                            <g id="Group-9" transform="translate(0.000000, 10.161290)" fill="#E83828">
                                <path d="M15.8172723,0.378 L0.982549231,0.378 C0.19758,0.378 -0.269189231,1.24679032 0.16798,1.89372581 L15.0032723,23.7946935 C15.5434723,24.5929194 16.7980569,24.213 16.7980569,23.2527581 L16.7980569,1.35066129 C16.7980569,0.813241935 16.35918,0.378 15.8172723,0.378" id="Fill-7"></path>
                            </g>
                            <g id="Group-12" transform="translate(12.523077, 0.000000)">
                                <mask id="mask-4" fill="white">
                                    <use xlink:href="#path-3"></use>
                                </mask>
                                <g id="Clip-11"></g>
                                <path d="M9.12101231,4.41502419 C9.12101231,2.05760484 7.19416615,0.146717742 4.81762769,0.146717742 C2.44108923,0.146717742 0.514243077,2.05760484 0.514243077,4.41502419 C0.514243077,6.77187903 2.44108923,8.68276613 4.81762769,8.68276613 C7.19416615,8.68276613 9.12101231,6.77187903 9.12101231,4.41502419" id="Fill-10" fill="#E83828" mask="url(#mask-4)"></path>
                            </g>
                        </g>
                    </g>
                </g>
                <g id="Page-1" transform="translate(50.000000, 9.000000)">
                    <g>
                        <polygon id="Fill-1" fill="#221814" points="0 1.7865 0 5.88316667 5.02750909 5.88316667 5.02750909 18.6531667 9.69400909 18.6531667 9.69400909 5.88316667 14.7464727 5.88316667 14.7464727 1.7865"></polygon>
                        <polygon id="Fill-2" fill="#221814" points="16.9108636 18.654 21.5773636 18.654 21.5773636 1.78733333 16.9108636 1.78733333"></polygon>
                        <polygon id="Fill-3" fill="#221814" points="24.6570873 1.7865 24.6570873 18.6531667 38.3205327 18.6531667 38.3205327 14.6798333 29.2770055 14.6798333 29.2770055 12.0048333 37.3589509 12.0048333 37.3589509 8.31816667 29.2770055 8.31816667 29.2770055 5.73816667 38.2007509 5.73816667 38.2007509 1.7865"></polygon>
                        <g id="Group-19" transform="translate(0.000000, 0.635667)">
                            <path d="M55.4960809,11.152 L51.9358991,11.152 L51.9358991,14.2586667 L55.5443264,14.2586667 C56.9866991,14.2586667 57.7802536,13.7053333 57.7802536,12.717 L57.7802536,12.6686667 C57.7802536,11.752 57.0598991,11.152 55.4960809,11.152 Z M57.1081445,6.357 C57.1081445,5.417 56.3628355,4.91033333 54.9903355,4.91033333 L51.9358991,4.91033333 L51.9358991,7.87366667 L54.8705536,7.87366667 C56.2896355,7.87366667 57.1081445,7.39033333 57.1081445,6.40366667 L57.1081445,6.357 Z M47.3891809,1.152 L56.0251173,1.152 C58.1412627,1.152 59.6335445,1.68033333 60.6200809,2.64533333 C61.2938536,3.34366667 61.7014445,4.23533333 61.7014445,5.39366667 L61.7014445,5.43866667 C61.7014445,7.39033333 60.5951264,8.54866667 59.1045082,9.19866667 C61.1491173,9.87366667 62.4467536,11.032 62.4467536,13.3203333 L62.4467536,13.3703333 C62.4467536,16.2603333 60.0910445,18.0203333 56.0733627,18.0203333 L47.3891809,18.0203333 L47.3891809,1.152 Z" id="Fill-4" fill="#221814"></path>
                            <path d="M72.3591982,9.24766667 C73.9213527,9.24766667 74.8596436,8.476 74.8596436,7.24766667 L74.8596436,7.19933333 C74.8596436,5.84933333 73.8747709,5.176 72.3342436,5.176 L69.2565164,5.176 L69.2565164,9.24766667 L72.3591982,9.24766667 Z M64.5900164,1.151 L72.5505164,1.151 C75.1241618,1.151 76.9059164,1.82433333 78.0355255,2.95933333 C79.0220618,3.946 79.5278073,5.22266667 79.5278073,6.886 L79.5278073,6.93433333 C79.5278073,9.536 78.1569709,11.2476667 76.0624527,12.1393333 L80.0801345,18.021 L74.7165709,18.021 L71.3244164,12.911 L69.2565164,12.911 L69.2565164,18.021 L64.5900164,18.021 L64.5900164,1.151 Z" id="Fill-6" fill="#221814"></path>
                            <polygon id="Fill-8" fill="#221814" points="81.88518 1.15033333 95.42718 1.15033333 95.42718 5.102 86.5034345 5.102 86.5034345 7.682 94.58538 7.682 94.58538 11.3686667 86.5034345 11.3686667 86.5034345 14.0436667 95.5486255 14.0436667 95.5486255 18.0186667 81.88518 18.0186667"></polygon>
                            <path d="M107.864858,11.344 L105.988276,6.57233333 L104.088404,11.344 L107.864858,11.344 Z M103.77564,1.03233333 L108.274113,1.03233333 L115.441058,18.019 L110.438504,18.019 L109.235695,14.9856667 L102.717567,14.9856667 L101.514758,18.019 L96.6319855,18.019 L103.77564,1.03233333 Z" id="Fill-10" fill="#221814"></path>
                            <polygon id="Fill-12" fill="#221814" points="117.079075 1.15033333 121.745575 1.15033333 121.745575 7.99366667 127.566638 1.15033333 133.074938 1.15033333 126.699884 8.38033333 133.291211 18.0186667 127.711375 18.0186667 123.452465 11.7536667 121.745575 13.6336667 121.745575 18.0186667 117.079075 18.0186667"></polygon>
                            <mask id="mask-6" fill="white">
                                <use xlink:href="#path-5"></use>
                            </mask>
                            <g id="Clip-15"></g>
                            <polygon id="Fill-14" fill="#221814" mask="url(#mask-6)" points="141.4224 18.0183333 146.0889 18.0183333 146.0889 1.15 141.4224 1.15"></polygon>
                            <path d="M148.904272,4.98166667 L153.474281,4.98166667 L153.474281,6.815 C154.316081,5.73 155.51889,4.69333333 157.372181,4.69333333 C160.137145,4.69333333 161.797454,6.52333333 161.797454,9.48833333 L161.797454,18.0183333 L157.250735,18.0183333 L157.250735,10.9583333 C157.250735,9.51333333 156.505426,8.74166667 155.399108,8.74166667 C154.29279,8.74166667 153.474281,9.51333333 153.474281,10.9583333 L153.474281,18.0183333 L148.904272,18.0183333 L148.904272,4.98166667 Z" id="Fill-16" fill="#221814" mask="url(#mask-6)"></path>
                            <path d="M163.650412,11.5621667 L163.650412,11.5138333 C163.650412,7.82716667 166.488575,4.71883333 170.601085,4.71883333 C173.271221,4.71883333 175.051312,5.87383333 176.15763,7.6105 L173.079903,9.92383333 C172.429421,9.0805 171.732357,8.54883333 170.650994,8.54883333 C169.158712,8.54883333 168.075685,9.87383333 168.075685,11.4638333 L168.075685,11.5138333 C168.075685,13.1988333 169.133757,14.4788333 170.674285,14.4788333 C171.780603,14.4788333 172.477666,13.9705 173.176394,13.1271667 L176.23083,15.3455 C175.028021,17.1288333 173.296175,18.3321667 170.458012,18.3321667 C166.511866,18.3321667 163.650412,15.2488333 163.650412,11.5621667" id="Fill-17" fill="#221814" mask="url(#mask-6)"></path>
                            <polygon id="Fill-18" fill="#221814" mask="url(#mask-6)" points="177.6747 18.0183333 182.412736 18.0183333 182.412736 13.3216667 177.6747 13.3216667"></polygon>
                        </g>
                    </g>
                </g>
                <rect id="Rectangle" fill="#6FBA2C" x="265" y="4" width="105" height="32" rx="3"></rect>
                <path d="M289.824,26.784 L289.824,22.416 C289.408,23.008 288.656,24.096 287.168,25.312 C286.304,26.016 285.696,26.432 285.536,26.432 C285.12,26.432 284.864,25.984 284.864,25.696 C284.864,25.488 284.944,25.36 285.28,25.152 C287.856,23.616 289.12,21.68 289.6,20.96 L286.304,20.96 C286.16,20.96 285.664,20.96 285.664,20.368 C285.664,19.776 286.144,19.776 286.304,19.776 L289.808,19.776 L289.808,19.104 C289.808,18.944 289.808,18.48 290.416,18.48 C291.04,18.48 291.04,18.944 291.04,19.104 L291.04,19.776 L294.768,19.776 C294.928,19.776 295.408,19.776 295.408,20.368 C295.408,20.96 294.928,20.96 294.768,20.96 L291.376,20.96 C292.576,23.168 294.08,24.32 294.8,24.816 C295.232,25.12 295.344,25.216 295.344,25.424 C295.344,25.808 295.04,26.224 294.624,26.224 C294.4,26.224 294,25.872 293.696,25.584 C291.984,24.016 291.424,23.008 291.056,22.352 L291.056,26.784 C291.056,26.96 291.056,27.424 290.432,27.424 C289.824,27.424 289.824,26.96 289.824,26.784 Z M294.736,13.152 C294.736,13.52 294.64,13.664 292.912,13.968 C290.432,14.4 287.488,14.56 286.448,14.56 C285.984,14.56 285.76,14.336 285.76,13.872 C285.76,13.552 285.968,13.392 286.368,13.392 C287.92,13.376 290.8,13.152 292.544,12.832 C292.8,12.784 294.016,12.496 294.144,12.496 C294.432,12.496 294.736,12.752 294.736,13.152 Z M290.336,17.84 C291.056,17.84 291.136,17.44 291.136,17.296 C291.136,16.912 290.784,15.936 290.624,15.504 C290.464,15.056 290.352,14.8 289.984,14.8 C289.696,14.8 289.312,14.992 289.312,15.312 C289.312,15.472 289.392,15.696 289.456,15.872 C289.648,16.384 289.728,16.688 289.904,17.312 C289.984,17.6 290.096,17.84 290.336,17.84 Z M283.952,21.344 L283.952,25.984 C283.952,26.64 283.856,27.376 282.656,27.376 L281.392,27.376 C281.216,27.376 280.72,27.376 280.72,26.624 C280.72,26.112 281.072,26.064 281.344,26.064 L282.24,26.064 C282.592,26.064 282.656,25.808 282.656,25.616 L282.656,21.872 C282.32,21.984 281.184,22.4 280.928,22.4 C280.56,22.4 280.384,22.032 280.384,21.68 C280.384,21.264 280.592,21.184 280.976,21.072 C281.376,20.96 282.4,20.624 282.656,20.544 L282.656,16.56 L281.136,16.56 C280.992,16.56 280.512,16.56 280.512,15.968 C280.512,15.36 280.992,15.36 281.136,15.36 L282.656,15.36 L282.656,13.024 C282.656,12.864 282.656,12.384 283.296,12.384 C283.952,12.384 283.952,12.864 283.952,13.024 L283.952,15.36 L284.912,15.36 C285.072,15.36 285.536,15.36 285.536,15.968 C285.536,16.56 285.056,16.56 284.912,16.56 L283.952,16.56 L283.952,20.064 C284.288,19.92 284.864,19.68 284.96,19.68 C285.168,19.68 285.408,19.872 285.408,20.304 C285.408,20.72 285.312,20.784 283.952,21.344 Z M286.672,15.376 C287.008,15.376 287.12,15.584 287.344,16.064 C287.696,16.832 288.048,17.712 288.048,17.968 C288.048,18.272 287.728,18.512 287.408,18.512 C287.072,18.512 286.944,18.304 286.832,17.936 C286.704,17.504 286.48,16.992 286.208,16.416 C286.064,16.112 286.032,16.016 286.032,15.92 C286.032,15.68 286.272,15.376 286.672,15.376 Z M292.544,17.952 C292.592,17.776 293.024,16.96 293.104,16.784 C293.44,16.096 293.728,15.376 293.856,15.008 C293.984,14.656 294.128,14.48 294.432,14.48 C294.72,14.48 295.152,14.656 295.152,15.072 C295.152,15.312 294.64,16.576 293.984,17.728 C293.632,18.368 293.504,18.576 293.184,18.576 C292.848,18.576 292.464,18.304 292.544,17.952 Z M309.184,22.304 L304.848,22.304 L304.848,26.336 C304.848,26.784 304.848,27.184 304.224,27.184 C303.584,27.184 303.584,26.8 303.584,26.336 L303.584,22.304 L299.408,22.304 C299.328,22.96 299.072,24.944 298.064,26.544 C297.792,26.96 297.632,27.12 297.36,27.12 C296.944,27.12 296.64,26.656 296.64,26.256 C296.64,26.016 296.704,25.936 297.008,25.472 C297.536,24.688 297.824,23.744 297.984,23.024 C298.112,22.464 298.208,20.96 298.208,20.464 L298.208,14.784 C298.208,14.016 298.304,13.072 299.792,13.072 L308.816,13.072 C309.632,13.072 310.544,13.184 310.544,14.656 L310.544,25.552 C310.544,26.384 310.416,27.264 308.96,27.264 L307.6,27.264 C307.008,27.264 306.704,27.152 306.704,26.544 C306.704,25.936 307.136,25.952 307.568,25.952 L308.592,25.968 C309.056,25.968 309.184,25.712 309.184,25.36 L309.184,22.304 Z M299.552,17.056 L303.584,17.056 L303.584,14.336 L300.16,14.336 C299.728,14.336 299.552,14.528 299.552,14.928 L299.552,17.056 Z M303.584,21.088 L303.584,18.272 L299.552,18.272 L299.552,20.256 C299.552,20.832 299.552,20.896 299.536,21.088 L303.584,21.088 Z M309.184,21.088 L309.184,18.272 L304.848,18.272 L304.848,21.088 L309.184,21.088 Z M304.848,17.056 L309.184,17.056 L309.184,14.928 C309.184,14.544 309.024,14.336 308.592,14.336 L304.848,14.336 L304.848,17.056 Z M322.8,16.224 L317.152,16.224 L317.152,13.824 C317.152,13.52 317.104,13.072 316.4,13.072 C315.664,13.072 315.664,13.616 315.664,13.824 L315.664,16.224 L313.52,16.224 C313.344,16.224 312.768,16.224 312.768,16.912 C312.768,17.6 313.344,17.6 313.52,17.6 L315.664,17.6 L315.664,21.328 C315.664,21.536 315.664,22.08 316.416,22.08 C317.152,22.08 317.152,21.52 317.152,21.328 L317.152,17.6 L322.8,17.6 L322.8,18.768 C322.8,20.656 322.736,21.552 322.144,22.544 C321.216,24.112 319.712,24.992 317.328,25.392 C316.608,25.52 316.336,25.568 316.336,26.064 C316.336,26.224 316.416,26.864 317.136,26.864 C317.44,26.864 318.576,26.624 319.568,26.272 C324.288,24.56 324.288,20.736 324.288,19.008 L324.288,17.6 L326.48,17.6 C326.672,17.6 327.232,17.6 327.232,16.896 C327.232,16.224 326.656,16.224 326.48,16.224 L324.288,16.224 L324.288,13.744 C324.288,13.536 324.288,12.976 323.552,12.976 C322.8,12.976 322.8,13.536 322.8,13.744 L322.8,16.224 Z M337.632,17.888 C338.48,17.248 339.312,16.592 340.896,15.12 C341.664,14.4 341.776,14.208 341.776,13.92 C341.776,13.52 341.344,13.136 340.912,13.136 C340.592,13.136 340.512,13.216 339.712,14.096 C335.84,18.32 330.096,20.448 329.84,20.544 C329.376,20.72 329.072,20.832 329.072,21.248 C329.072,21.632 329.328,22.064 329.808,22.064 C330.192,22.064 331.6,21.408 332.112,21.168 C334.352,20.096 335.504,19.344 336.096,18.96 L336.096,26.208 C336.096,26.544 336.16,26.976 336.848,26.976 C337.632,26.976 337.632,26.448 337.632,26.208 L337.632,17.888 Z M350.752,18.624 C353.312,19.488 355.12,20.336 356.976,21.424 C357.744,21.872 357.856,21.92 358.016,21.92 C358.528,21.92 358.768,21.392 358.768,21.024 C358.768,20.576 358.608,20.496 357.552,19.92 C356.08,19.136 353.872,18.016 350.752,17.136 L350.752,13.568 C350.752,13.344 350.736,12.816 349.984,12.816 C349.216,12.816 349.216,13.36 349.216,13.568 L349.216,26.336 C349.216,26.56 349.216,27.088 349.984,27.088 C350.752,27.088 350.752,26.544 350.752,26.336 L350.752,18.624 Z" id="採用サイト" fill="#FFFFFF"></path>
            </g>
        </g>
    </g>
</svg>