<?xml version="1.0" encoding="UTF-8"?>
<svg width="189px" height="23px" viewBox="0 0 189 23" version="1.1" xmlns="http://www.w3.org/2000/svg" xmlns:xlink="http://www.w3.org/1999/xlink">
    <!-- Generator: Sketch 42 (36781) - http://www.bohemiancoding.com/sketch -->
    <title>ロゴのコンセプト copy</title>
    <desc>Created with Sketch.</desc>
    <defs></defs>
    <g id="Page-1" stroke="none" stroke-width="1" fill="none" fill-rule="evenodd">
        <path d="M16.048,20.76 L3.952,20.76 C2.536,20.76 0.904,20.568 0.904,17.976 L0.904,6.504 C0.904,5.088 1.096,3.48 3.688,3.48 L16.048,3.48 C17.464,3.48 19.096,3.648 19.096,6.24 L19.096,17.712 C19.096,19.968 18.352,20.76 16.048,20.76 Z M3.208,6.72 L3.208,17.496 C3.208,18.288 3.568,18.648 4.336,18.648 L15.664,18.648 C16.456,18.648 16.792,18.288 16.792,17.496 L16.792,6.72 C16.792,5.928 16.432,5.592 15.664,5.592 L4.336,5.592 C3.544,5.592 3.208,5.928 3.208,6.72 Z M40.624,0.36 C40.336,0.36 39.88,0.528 39.88,1.056 C39.88,1.2 39.904,1.32 39.928,1.416 C39.976,1.584 40.48,3.048 40.576,3.36 C40.696,3.768 41.008,3.936 41.368,3.936 C41.632,3.936 42.184,3.792 42.184,3.168 C42.184,2.76 41.8,1.776 41.608,1.368 C41.32,0.768 41.152,0.36 40.624,0.36 Z M43.672,0.12 C43.192,0.12 42.904,0.432 42.904,0.84 C42.904,1.008 42.928,1.152 43.168,1.752 C43.264,2.016 43.456,2.544 43.648,3.096 C43.768,3.456 44.008,3.648 44.392,3.648 C44.824,3.648 45.232,3.432 45.232,2.904 C45.232,2.424 44.728,1.272 44.68,1.152 C44.416,0.552 44.224,0.12 43.672,0.12 Z M25.768,18.84 C25.504,18.84 24.64,18.84 24.64,19.92 C24.64,20.952 25.504,20.952 25.768,20.952 L39.712,20.952 C42.304,20.952 42.496,19.344 42.496,17.928 L42.496,7.392 C42.496,4.8 40.864,4.608 39.472,4.608 L25.912,4.608 C25.624,4.608 24.784,4.632 24.784,5.664 C24.784,6.72 25.624,6.72 25.912,6.72 L39.04,6.72 C39.808,6.72 40.168,7.056 40.168,7.848 L40.168,17.712 C40.168,18.48 39.832,18.84 39.04,18.84 L25.768,18.84 Z M58.984,4.392 C58.888,10.032 57.352,14.808 56.152,16.92 C55.264,18.504 53.872,20.088 51.832,20.088 C49.072,20.088 47.344,16.872 47.344,13.224 C47.344,7.032 51.688,2.448 58.648,2.448 C64.936,2.448 68.608,6.144 68.608,11.808 C68.608,15.288 67.408,19.368 62.488,21.144 C60.88,21.72 58.912,22.008 58.312,22.008 C57.4,22.008 57.256,21.096 57.256,20.808 C57.256,20.016 57.64,19.968 58.984,19.8 C61.696,19.488 63.256,18.624 64.24,17.64 C65.872,16.008 66.352,13.488 66.352,11.64 C66.352,9.864 65.92,7.992 64.312,6.408 C62.728,4.848 61.144,4.44 58.984,4.392 Z M56.848,4.512 C55.216,4.8 54.112,5.112 52.84,6.072 C49.888,8.328 49.408,11.64 49.408,13.392 C49.408,15.192 50.008,17.928 51.88,17.928 C53.176,17.928 53.944,16.656 54.424,15.744 C55.192,14.232 56.656,10.2 56.848,4.512 Z M74.056,18.6 C73.792,18.6 72.928,18.6 72.928,19.656 C72.928,20.712 73.792,20.712 74.056,20.712 L87.76,20.712 C90.04,20.712 90.784,19.92 90.784,17.688 L90.784,6.768 C90.784,4.176 89.152,3.984 87.76,3.984 L74.2,3.984 C73.912,3.984 73.072,3.984 73.072,5.04 C73.072,6.072 73.912,6.072 74.2,6.072 L87.328,6.072 C88.096,6.072 88.456,6.432 88.456,7.224 L88.456,17.472 C88.456,18.24 88.12,18.6 87.328,18.6 L74.056,18.6 Z M96.736,4.344 C96.736,4.008 96.976,3.096 97.912,3.096 C98.728,3.096 102.304,4.704 103.432,5.256 C104.752,5.928 104.848,6.288 104.848,6.696 C104.848,7.248 104.368,8.064 103.672,8.064 C103.384,8.064 103.216,7.992 102.184,7.368 C100.6,6.432 97.96,5.424 97.408,5.208 C97.12,5.112 96.736,4.944 96.736,4.344 Z M115.216,4.776 C115.624,4.776 116.488,5.064 116.488,5.904 C116.488,6.552 114.568,11.688 112.048,14.64 C109.024,18.216 105.016,19.848 102.112,20.664 C100.6,21.096 98.776,21.408 98.08,21.408 C97.696,21.408 97.48,21.384 97.288,21.216 C96.904,20.904 96.76,20.4 96.76,20.04 C96.76,19.224 97.216,19.128 98.224,19.008 C108.472,17.904 112.048,11.688 114.16,5.736 C114.328,5.28 114.544,4.776 115.216,4.776 Z M127.336,6.816 L127.336,2.568 C127.336,2.256 127.336,1.44 126.208,1.44 C125.104,1.44 125.08,2.28 125.08,2.568 L125.08,6.984 L120.712,7.296 C120.208,7.344 119.656,7.608 119.656,8.352 C119.656,9.12 120.208,9.432 120.808,9.384 L125.08,9.024 L125.08,17.04 C125.08,20.544 126.304,21.744 130.312,21.744 L135.568,21.744 C136.576,21.744 138.784,21.672 139.288,21.552 C139.936,21.408 139.984,20.736 139.984,20.496 C139.984,19.512 139.36,19.464 139.024,19.464 C138.832,19.464 138.256,19.512 138.04,19.536 C137.032,19.632 135.424,19.704 134.824,19.704 L130.552,19.704 C127.504,19.704 127.336,19.056 127.336,16.944 L127.336,8.832 L136.576,8.088 C137.056,8.04 137.248,8.136 137.248,8.544 C137.248,8.808 137.152,9.168 136.912,9.672 C135.664,12.192 133.624,13.272 132.592,13.824 C132.28,13.992 131.968,14.232 131.968,14.664 C131.968,15.168 132.472,15.792 133.072,15.792 C133.864,15.792 136.456,14.088 137.896,12.168 C139.048,10.632 139.816,8.472 139.816,7.608 C139.816,5.88 138.352,6 137.92,6.024 L127.336,6.816 Z M159.664,5.472 L145.336,5.472 C145.072,5.472 144.232,5.472 144.232,4.464 C144.232,3.432 145.072,3.432 145.336,3.432 L160.672,3.432 C160.624,3.288 160.624,3.144 160.624,3 C160.624,1.584 161.776,0.504 163.12,0.504 C164.512,0.504 165.616,1.608 165.616,3 C165.616,4.392 164.464,5.592 162.928,5.496 C162.88,6.144 162.376,9.336 161.296,11.928 C157.648,20.616 148.384,21.816 147.88,21.816 C147.064,21.816 146.776,21.072 146.776,20.616 C146.776,19.968 147.28,19.824 147.712,19.752 C152.536,18.84 156.112,16.464 158.104,13.296 C160.072,10.176 160.432,6.528 160.432,6.216 C160.432,5.928 160.432,5.472 159.664,5.472 Z M163.12,1.728 C162.4,1.728 161.848,2.304 161.848,3 C161.848,3.696 162.424,4.272 163.12,4.272 C163.816,4.272 164.392,3.72 164.392,3 C164.392,2.28 163.816,1.728 163.12,1.728 Z M176.128,9.936 C179.968,11.232 182.68,12.504 185.464,14.136 C186.616,14.808 186.784,14.88 187.024,14.88 C187.792,14.88 188.152,14.088 188.152,13.536 C188.152,12.864 187.912,12.744 186.328,11.88 C184.12,10.704 180.808,9.024 176.128,7.704 L176.128,2.352 C176.128,2.016 176.104,1.224 174.976,1.224 C173.824,1.224 173.824,2.04 173.824,2.352 L173.824,21.504 C173.824,21.84 173.824,22.632 174.976,22.632 C176.128,22.632 176.128,21.816 176.128,21.504 L176.128,9.936 Z" id="ロゴのコンセプト-copy" fill="#222222"></path>
    </g>
</svg>