<?xml version="1.0" encoding="UTF-8"?>
<svg width="144px" height="24px" viewBox="0 0 144 24" version="1.1" xmlns="http://www.w3.org/2000/svg" xmlns:xlink="http://www.w3.org/1999/xlink">
    <!-- Generator: Sketch 42 (36781) - http://www.bohemiancoding.com/sketch -->
    <title>主な業務内容 copy</title>
    <desc>Created with Sketch.</desc>
    <defs></defs>
    <g id="Page-1" stroke="none" stroke-width="1" fill="none" fill-rule="evenodd">
        <path d="M7.392,1.752 C7.392,2.112 7.608,2.376 8.16,2.592 C9.432,3.072 10.44,3.528 11.832,4.392 C12.72,4.944 13.032,5.136 13.224,5.136 C13.824,5.136 14.328,4.488 14.328,3.888 C14.328,3.408 14.16,3.216 12.672,2.424 C10.728,1.392 8.808,0.672 8.352,0.672 C7.608,0.672 7.392,1.416 7.392,1.752 Z M13.056,7.464 L21.24,7.464 C21.912,7.464 22.56,7.464 22.56,6.504 C22.56,5.544 21.912,5.544 21.24,5.544 L2.736,5.544 C2.064,5.544 1.44,5.544 1.44,6.504 C1.44,7.464 2.064,7.464 2.736,7.464 L10.944,7.464 L10.944,12.6 L3.696,12.6 C2.976,12.6 2.4,12.6 2.4,13.584 C2.4,14.52 3.024,14.52 3.696,14.52 L10.944,14.52 L10.944,20.376 L2.136,20.376 C1.416,20.376 0.84,20.376 0.84,21.36 C0.84,22.272 1.464,22.272 2.136,22.272 L21.864,22.272 C22.584,22.272 23.16,22.272 23.16,21.312 C23.16,20.376 22.536,20.376 21.864,20.376 L13.056,20.376 L13.056,14.52 L20.304,14.52 C21.024,14.52 21.576,14.52 21.576,13.536 C21.576,12.6 20.952,12.6 20.304,12.6 L13.056,12.6 L13.056,7.464 Z M36.504,6.552 L31.848,6.552 C31.584,7.776 30.36,12.696 28.752,16.752 C27.84,19.08 27.576,19.224 27.024,19.224 C26.376,19.224 25.776,18.744 25.776,18.192 C25.776,18 25.824,17.88 26.232,17.064 C26.928,15.696 28.536,11.664 29.688,6.552 L26.496,6.552 C26.208,6.552 25.392,6.552 25.392,5.544 C25.392,4.56 26.232,4.56 26.496,4.56 L30.048,4.56 C30.12,4.152 30.336,2.28 30.384,2.016 C30.504,1.32 31.152,1.296 31.488,1.296 C32.112,1.296 32.592,1.536 32.592,2.232 C32.592,2.472 32.496,3.096 32.208,4.56 L36.504,4.56 C36.768,4.56 37.608,4.56 37.608,5.568 C37.608,6.552 36.768,6.552 36.504,6.552 Z M41.64,16.56 L41.64,17.256 C41.64,18.6 41.544,19.488 41.112,20.232 C40.344,21.552 38.76,22.2 36.768,22.2 C32.016,22.2 31.176,19.272 31.176,17.856 C31.176,15.456 33.144,13.344 37.056,13.344 C38.208,13.344 39.024,13.488 39.624,13.608 L39.336,6.696 C39.288,5.304 39.984,4.8 41.016,4.512 C42.048,4.224 43.992,4.104 45.264,4.104 C46.056,4.104 46.536,4.296 46.536,5.184 C46.536,5.808 46.272,6.264 45.576,6.264 C42.384,6.264 41.376,6.264 41.424,7.56 L41.664,14.28 C42.456,14.688 44.52,15.792 46.008,17.064 C46.512,17.496 46.704,17.712 46.704,18.168 C46.704,18.84 46.2,19.368 45.6,19.368 C45.264,19.368 45.096,19.248 44.496,18.672 C43.704,17.904 42.888,17.376 41.64,16.56 Z M39.624,17.352 L39.624,15.6 C38.976,15.408 38.112,15.168 36.936,15.168 C34.656,15.168 33.24,16.248 33.24,17.832 C33.24,19.56 34.848,20.232 36.672,20.232 C38.904,20.232 39.624,19.272 39.624,17.352 Z M60.96,17.472 L60.96,21.864 C60.96,22.512 60.96,23.16 60,23.16 C59.064,23.16 59.064,22.512 59.064,21.864 L59.064,17.448 C57.288,19.128 55.68,20.232 53.4,21.288 C52.416,21.744 50.808,22.416 50.328,22.416 C49.776,22.416 49.368,21.84 49.368,21.312 C49.368,20.76 49.632,20.688 50.712,20.328 C52.2,19.848 54.96,18.792 57.624,16.56 L50.112,16.56 C49.488,16.56 48.84,16.56 48.84,15.768 C48.84,14.952 49.488,14.952 50.112,14.952 L59.064,14.952 L59.064,13.2 L51.672,13.2 C51.048,13.2 50.424,13.2 50.424,12.432 C50.424,11.664 51.048,11.664 51.672,11.664 L59.064,11.664 L59.064,9.984 L51.12,9.984 C50.52,9.984 49.848,9.984 49.848,9.192 C49.848,8.424 50.52,8.4 51.12,8.4 L55.584,8.4 C55.44,7.824 55.032,6.624 54.792,6.096 L50.112,6.096 C49.464,6.096 48.84,6.096 48.84,5.28 C48.84,4.464 49.464,4.464 50.112,4.464 L53.088,4.464 C52.848,3.888 52.608,3.48 52.08,2.472 C51.96,2.232 51.84,1.944 51.84,1.752 C51.84,1.128 52.536,0.888 52.968,0.888 C53.28,0.888 53.52,0.96 53.832,1.488 C53.976,1.752 54.624,2.976 55.128,4.464 L56.904,4.464 L56.904,1.92 C56.904,1.272 56.904,0.648 57.816,0.648 C58.776,0.648 58.776,1.2 58.776,1.92 L58.776,4.464 L61.248,4.464 L61.248,1.92 C61.248,1.272 61.248,0.648 62.16,0.648 C63.12,0.648 63.12,1.2 63.12,1.92 L63.12,4.464 L64.824,4.464 C65.4,3.48 65.784,2.64 66.24,1.56 C66.456,1.008 66.72,0.888 67.08,0.888 C67.512,0.888 68.208,1.152 68.208,1.776 C68.208,1.968 68.136,2.208 67.896,2.64 C67.2,3.912 67.056,4.152 66.84,4.464 L69.888,4.464 C70.536,4.464 71.16,4.464 71.16,5.28 C71.16,6.096 70.536,6.096 69.888,6.096 L65.112,6.096 C64.872,6.936 64.68,7.512 64.368,8.4 L69,8.4 C69.6,8.4 70.272,8.424 70.272,9.192 C70.272,9.984 69.6,9.984 69,9.984 L60.96,9.984 L60.96,11.664 L68.424,11.664 C69.048,11.664 69.696,11.664 69.696,12.432 C69.696,13.2 69.024,13.2 68.424,13.2 L60.96,13.2 L60.96,14.952 L69.888,14.952 C70.512,14.952 71.16,14.952 71.16,15.768 C71.16,16.56 70.512,16.56 69.888,16.56 L62.4,16.56 C64.992,18.696 66.744,19.536 69.408,20.376 C70.536,20.736 70.728,20.808 70.728,21.336 C70.728,21.576 70.488,22.464 69.744,22.464 C69.312,22.464 66.984,21.48 65.808,20.904 C63.672,19.848 62.136,18.552 60.96,17.472 Z M57.6,8.4 L62.4,8.4 C62.616,7.872 62.952,6.792 63.096,6.096 L56.808,6.096 C56.928,6.432 57.456,7.92 57.6,8.4 Z M94.2,4.272 L93.432,4.272 C92.808,6.168 92.04,7.32 90.672,8.664 C91.008,8.88 91.416,9.144 92.064,9.432 C92.496,9.648 93.576,10.104 94.128,10.248 C94.8,10.44 95.112,10.68 95.112,11.112 C95.112,11.52 94.752,12.24 94.2,12.24 C93.864,12.24 91.512,11.4 89.232,9.84 C87.048,11.328 84.504,12.192 84.144,12.192 C83.712,12.192 83.232,11.688 83.232,11.184 C83.232,10.728 83.472,10.536 83.904,10.392 C85.056,10.032 86.496,9.48 87.768,8.664 C86.568,7.56 85.824,6.456 85.32,5.664 C84.768,6.288 83.976,7.224 83.472,7.224 C83.04,7.224 82.488,6.72 82.488,6.264 C82.488,6 82.56,5.88 83.208,5.28 C84.408,4.176 85.68,2.112 85.992,1.392 C86.184,0.912 86.376,0.624 86.88,0.624 C87.816,0.624 87.96,1.128 87.96,1.344 C87.96,1.608 87.816,1.992 87.456,2.592 L94.2,2.592 C94.416,2.592 95.136,2.592 95.136,3.432 C95.136,4.272 94.416,4.272 94.2,4.272 Z M91.392,4.272 L86.4,4.272 L86.352,4.344 C87.36,5.856 87.984,6.6 89.184,7.584 C90.504,6.384 91.008,5.256 91.392,4.272 Z M86.256,15.504 L83.232,15.504 C83.04,15.504 82.296,15.504 82.296,14.64 C82.296,13.776 83.04,13.776 83.232,13.776 L86.568,13.776 C86.592,13.536 86.64,12.696 86.688,12.312 C86.736,11.856 87.12,11.664 87.576,11.664 C88.44,11.664 88.488,12.144 88.488,12.552 C88.488,12.96 88.464,13.296 88.416,13.776 L91.584,13.776 C92.88,13.776 94.2,13.848 94.2,15.984 C94.2,16.992 93.912,20.352 93.312,21.6 C92.88,22.512 92.28,23.016 90.912,23.016 L88.608,23.016 C88.032,23.016 87.576,22.728 87.576,21.936 C87.576,21.288 88.056,21.144 88.512,21.144 L90.384,21.168 C90.888,21.168 91.392,21.144 91.752,20.28 C92.064,19.512 92.328,17.16 92.328,16.56 C92.328,15.816 92.064,15.504 91.152,15.504 L88.152,15.504 C87.864,17.184 87.144,19.152 85.632,20.712 C84.84,21.528 83.064,22.872 82.56,22.872 C82.056,22.872 81.456,22.344 81.456,21.72 C81.456,21.408 81.576,21.288 82.56,20.688 C85.104,19.128 85.824,17.28 86.256,15.504 Z M77.16,10.416 L73.728,10.416 C73.536,10.416 72.768,10.416 72.768,9.504 C72.768,8.616 73.536,8.616 73.728,8.616 L79.032,8.616 C78.84,8.52 78.024,7.728 77.808,7.56 C76.848,6.792 76.608,6.624 75.48,5.856 C75.288,5.736 75.144,5.496 75.144,5.256 C75.144,4.704 75.672,4.2 76.152,4.2 C76.56,4.2 77.784,5.136 78.264,5.496 C78.6,5.184 80.256,3.6 80.256,3.336 C80.256,3.168 80.112,3.12 79.92,3.12 L74.376,3.12 C74.184,3.12 73.416,3.12 73.416,2.256 C73.416,1.392 74.184,1.392 74.376,1.392 L80.52,1.392 C81.312,1.392 82.512,1.392 82.512,2.76 C82.512,3.48 81.984,4.08 80.856,5.232 C80.184,5.904 79.872,6.192 79.536,6.504 C80.184,7.056 80.328,7.224 80.328,7.608 C80.328,8.016 80.04,8.448 79.512,8.616 L80.952,8.616 C81.744,8.616 83.112,8.616 83.112,10.08 C83.112,10.752 82.8,11.712 81.864,13.536 C81.6,14.04 81.384,14.376 80.952,14.376 C80.448,14.376 79.992,13.968 79.992,13.512 C79.992,13.32 80.16,12.984 80.52,12.336 C80.808,11.808 81.168,11.016 81.168,10.824 C81.168,10.488 80.976,10.416 80.568,10.416 L79.2,10.416 L79.2,20.904 C79.2,21.912 79.056,23.016 77.256,23.016 L75.048,23.016 C74.592,23.016 74.136,22.632 74.136,21.96 C74.136,21.456 74.424,21.144 75.096,21.144 L76.752,21.168 C77.28,21.168 77.424,20.88 77.424,20.472 L77.424,13.224 C76.848,14.424 76.2,15.648 74.616,17.688 C74.088,18.384 73.848,18.624 73.536,18.624 C72.96,18.624 72.672,18.024 72.672,17.616 C72.672,17.376 72.744,17.232 73.392,16.536 C74.448,15.36 76.368,12.48 77.16,10.416 Z M106.872,6.024 C106.656,7.368 105.936,11.64 101.448,14.568 C100.632,15.096 100.512,15.264 100.512,15.576 C100.512,16.176 101.016,16.8 101.568,16.8 C101.88,16.8 102.408,16.488 103.296,15.744 C106.08,13.416 107.352,10.704 108.072,8.928 C108.648,10.464 109.632,12.816 112.656,15.576 C113.856,16.68 114.144,16.848 114.48,16.848 C115.032,16.848 115.536,16.248 115.536,15.624 C115.536,15.432 115.464,15.216 114.984,14.88 C110.928,11.976 109.56,8.784 109.176,6.024 L114.864,6.024 C115.608,6.024 116.04,6.384 116.04,7.2 L116.04,19.728 C116.04,20.496 115.68,20.904 114.864,20.904 L112.992,20.904 C112.104,20.904 111.696,21 111.696,21.792 C111.696,22.392 111.96,22.92 112.608,22.92 L115.248,22.92 C117.84,22.92 118.032,21.288 118.032,19.872 L118.032,7.944 C118.032,6.36 118.032,5.472 117.36,4.824 C116.664,4.152 115.944,4.152 114.24,4.152 L109.056,4.152 L109.056,1.872 C109.056,1.128 109.056,0.576 108,0.576 C107.04,0.576 107.04,1.2 107.04,1.872 L107.04,4.152 L101.76,4.152 C100.176,4.152 99.288,4.152 98.64,4.824 C97.968,5.52 97.968,6.264 97.968,7.944 L97.968,21.696 C97.968,22.44 97.968,23.016 99.024,23.016 C99.984,23.016 99.984,22.392 99.984,21.696 L99.984,7.2 C99.984,6.456 100.344,6.024 101.16,6.024 L106.872,6.024 Z M126.336,14.352 L137.424,14.352 C138.624,14.352 139.992,14.52 139.992,16.728 L139.992,22.224 C139.992,22.464 139.992,23.184 139.008,23.184 C138.048,23.184 138.048,22.56 138.048,22.032 L125.904,22.032 C125.904,22.584 125.904,23.184 124.944,23.184 C123.96,23.184 123.96,22.464 123.96,22.224 L123.96,16.92 C123.96,15.624 124.224,15.12 124.776,14.712 C124.104,15 122.472,15.672 121.896,15.672 C121.224,15.672 120.936,14.904 120.936,14.472 C120.936,13.896 121.272,13.8 122.376,13.512 C123.168,13.296 126.936,12.12 129.696,9.768 C130.608,9 131.064,8.424 132,8.424 C132.816,8.424 133.152,8.712 133.776,9.264 C135.696,11.016 138.168,12.528 142.32,13.656 C142.656,13.752 143.064,13.896 143.064,14.424 C143.064,14.904 142.728,15.624 142.104,15.624 C141.696,15.624 136.8,14.136 133.584,11.52 C133.248,11.232 132.744,10.776 132.504,10.56 C132.336,10.392 132.168,10.296 132,10.296 C131.832,10.296 131.688,10.368 131.064,10.944 C128.808,12.936 126.336,14.04 125.328,14.472 C125.64,14.4 125.928,14.352 126.336,14.352 Z M125.904,17.016 L125.904,20.256 L138.048,20.256 L138.048,17.016 C138.048,16.44 137.808,16.104 137.136,16.104 L126.816,16.104 C126.168,16.104 125.904,16.392 125.904,17.016 Z M132.96,2.616 L139.896,2.616 C141.12,2.616 142.488,2.784 142.488,4.992 L142.488,6.912 C142.488,7.176 142.488,7.872 141.48,7.872 C140.496,7.872 140.496,7.176 140.496,6.912 L140.496,5.4 C140.496,4.776 140.232,4.488 139.608,4.488 L124.392,4.488 C123.744,4.488 123.48,4.776 123.48,5.4 L123.48,6.912 C123.48,7.176 123.48,7.872 122.472,7.872 C121.464,7.872 121.464,7.176 121.464,6.912 L121.464,5.184 C121.464,4.032 121.608,2.616 123.84,2.616 L130.968,2.616 L130.968,1.488 C130.968,1.2 130.968,0.528 131.976,0.528 C132.96,0.528 132.96,1.2 132.96,1.488 L132.96,2.616 Z M129.408,6.528 C129.408,6.84 129.408,7.008 128.256,7.92 C126.072,9.696 123.624,10.896 123.024,10.896 C122.424,10.896 122.088,10.128 122.088,9.744 C122.088,9.336 122.184,9.216 123.96,8.448 C125.472,7.8 126.864,6.744 127.776,5.88 C127.896,5.784 128.088,5.592 128.328,5.592 C128.832,5.592 129.408,6 129.408,6.528 Z M135.552,5.616 C135.792,5.616 136.032,5.832 136.44,6.168 C138.672,7.968 141.072,8.88 141.336,8.976 C141.696,9.12 141.984,9.24 141.984,9.72 C141.984,10.272 141.552,10.92 141.024,10.92 C140.472,10.92 137.76,9.576 135.672,7.968 C134.712,7.224 134.472,7.008 134.472,6.6 C134.472,6.024 135.072,5.616 135.552,5.616 Z" id="主な業務内容-copy" fill="#222222"></path>
    </g>
</svg>