<?xml version="1.0" encoding="UTF-8"?>
<svg width="214px" height="24px" viewBox="0 0 214 24" version="1.1" xmlns="http://www.w3.org/2000/svg" xmlns:xlink="http://www.w3.org/1999/xlink">
    <!-- Generator: Sketch 42 (36781) - http://www.bohemiancoding.com/sketch -->
    <title>タイブレイクの特徴 copy</title>
    <desc>Created with Sketch.</desc>
    <defs></defs>
    <g id="Page-1" stroke="none" stroke-width="1" fill="none" fill-rule="evenodd">
        <path d="M16.144,6.312 C16.6,6.312 16.792,6.552 16.792,6.864 C16.792,7.32 15.928,10.584 13.696,13.416 C11.944,11.976 10.456,11.088 8.896,10.2 C8.2,9.792 7.816,9.624 7.408,9.624 C6.808,9.624 6.376,10.2 6.376,10.656 C6.376,11.136 6.736,11.352 6.88,11.424 C8.656,12.456 10.384,13.416 12.184,15.072 C9.568,17.52 6.4,19.344 2.896,20.136 C2.224,20.28 1.768,20.472 1.768,21.072 C1.768,21.432 1.984,22.248 2.944,22.248 C3.592,22.248 5.224,21.744 6.856,21.048 C10.864,19.368 14.368,16.584 16.648,12.864 C18.376,10.032 19.264,6.6 19.264,5.88 C19.264,4.344 17.944,4.344 17.512,4.344 L8.992,4.344 C9.328,3.768 9.904,2.712 9.904,2.232 C9.904,1.464 9.016,1.344 8.728,1.344 C8.032,1.344 7.912,1.584 7.48,2.52 C5.104,7.488 2.272,9.312 0.76,10.272 C0.4,10.512 0.16,10.728 0.16,11.136 C0.16,11.664 0.592,12.24 1.264,12.24 C2.104,12.24 5.128,9.96 7.72,6.312 L16.144,6.312 Z M36.448,8.832 C37.72,7.872 38.968,6.888 41.344,4.68 C42.496,3.6 42.664,3.312 42.664,2.88 C42.664,2.28 42.016,1.704 41.368,1.704 C40.888,1.704 40.768,1.824 39.568,3.144 C33.76,9.48 25.144,12.672 24.76,12.816 C24.064,13.08 23.608,13.248 23.608,13.872 C23.608,14.448 23.992,15.096 24.712,15.096 C25.288,15.096 27.4,14.112 28.168,13.752 C31.528,12.144 33.256,11.016 34.144,10.44 L34.144,21.312 C34.144,21.816 34.24,22.464 35.272,22.464 C36.448,22.464 36.448,21.672 36.448,21.312 L36.448,8.832 Z M64.36,0.264 C63.88,0.264 63.52,0.552 63.52,0.96 C63.52,1.104 63.544,1.248 63.592,1.368 C63.664,1.632 64.168,2.856 64.264,3.12 C64.408,3.48 64.696,3.648 65.056,3.648 C65.248,3.648 65.968,3.576 65.968,2.856 C65.968,2.472 65.56,1.608 65.368,1.2 C65.128,0.72 64.888,0.264 64.36,0.264 Z M67.744,0.096 C67.192,0.096 66.904,0.456 66.904,0.84 C66.904,0.96 66.928,1.08 66.976,1.2 C67.072,1.44 67.408,2.232 67.48,2.424 C67.888,3.48 67.96,3.696 68.488,3.696 C68.728,3.696 69.376,3.576 69.376,2.88 C69.376,2.568 68.944,1.536 68.752,1.104 C68.536,0.6 68.296,0.096 67.744,0.096 Z M63.592,6.336 C64.36,6.336 64.36,6.792 64.36,7.08 C64.36,8.04 63.568,11.496 62.176,13.704 C60.352,16.656 57.112,19.008 52,20.064 C51.544,20.16 51.064,20.328 51.064,20.928 C51.064,21.336 51.328,22.152 52.168,22.152 C52.648,22.152 60.232,21 64.168,14.616 C65.992,11.664 66.856,7.032 66.856,6.048 C66.856,4.368 65.632,4.296 64.912,4.296 L49.624,4.296 C49.36,4.296 48.52,4.296 48.52,5.328 C48.52,6.336 49.36,6.336 49.624,6.336 L63.592,6.336 Z M74.296,19.848 C74.296,21.192 74.944,21.744 76.192,21.744 C76.864,21.744 77.872,21.576 78.88,21.336 C82.12,20.568 86.08,19.248 89.056,15.336 C90.88,12.96 92.32,9.168 92.32,8.616 C92.32,7.896 91.696,7.536 91.168,7.536 C90.64,7.536 90.4,7.872 90.232,8.328 C89.128,11.424 87.328,15.552 82.624,17.88 C80.056,19.152 77.44,19.392 77.248,19.392 C76.672,19.392 76.576,18.984 76.576,18.624 L76.576,2.88 C76.576,2.544 76.576,1.728 75.424,1.728 C74.296,1.728 74.296,2.568 74.296,2.88 L74.296,19.848 Z M108.448,8.832 C109.72,7.872 110.968,6.888 113.344,4.68 C114.496,3.6 114.664,3.312 114.664,2.88 C114.664,2.28 114.016,1.704 113.368,1.704 C112.888,1.704 112.768,1.824 111.568,3.144 C105.76,9.48 97.144,12.672 96.76,12.816 C96.064,13.08 95.608,13.248 95.608,13.872 C95.608,14.448 95.992,15.096 96.712,15.096 C97.288,15.096 99.4,14.112 100.168,13.752 C103.528,12.144 105.256,11.016 106.144,10.44 L106.144,21.312 C106.144,21.816 106.24,22.464 107.272,22.464 C108.448,22.464 108.448,21.672 108.448,21.312 L108.448,8.832 Z M128.776,4.728 C129.16,4.08 130,2.76 130,2.208 C130,1.296 128.992,1.224 128.776,1.224 C128.056,1.224 127.864,1.608 127.576,2.208 C126.952,3.528 125.296,7.032 121.48,9.864 C120.568,10.536 120.448,10.632 120.448,11.04 C120.448,11.712 121.024,12.216 121.624,12.216 C121.792,12.216 122.056,12.192 122.512,11.832 C123.136,11.376 125.152,9.816 127.408,6.744 L135.688,6.744 C135.904,6.744 136.336,6.792 136.336,7.272 C136.336,7.488 136.24,7.8 136.192,7.992 C133.36,17.664 126.256,19.272 122.416,20.136 C122.056,20.208 121.672,20.376 121.672,20.952 C121.672,21.432 121.96,22.152 122.776,22.152 C123.52,22.152 125.2,21.672 125.656,21.528 C127.432,21 133.072,19.272 136.576,13.056 C137.896,10.68 138.976,7.296 138.976,6.24 C138.976,4.728 137.464,4.728 137.152,4.728 L128.776,4.728 Z M154.984,4.392 C154.888,10.032 153.352,14.808 152.152,16.92 C151.264,18.504 149.872,20.088 147.832,20.088 C145.072,20.088 143.344,16.872 143.344,13.224 C143.344,7.032 147.688,2.448 154.648,2.448 C160.936,2.448 164.608,6.144 164.608,11.808 C164.608,15.288 163.408,19.368 158.488,21.144 C156.88,21.72 154.912,22.008 154.312,22.008 C153.4,22.008 153.256,21.096 153.256,20.808 C153.256,20.016 153.64,19.968 154.984,19.8 C157.696,19.488 159.256,18.624 160.24,17.64 C161.872,16.008 162.352,13.488 162.352,11.64 C162.352,9.864 161.92,7.992 160.312,6.408 C158.728,4.848 157.144,4.44 154.984,4.392 Z M152.848,4.512 C151.216,4.8 150.112,5.112 148.84,6.072 C145.888,8.328 145.408,11.64 145.408,13.392 C145.408,15.192 146.008,17.928 147.88,17.928 C149.176,17.928 149.944,16.656 150.424,15.744 C151.192,14.232 152.656,10.2 152.848,4.512 Z M172.984,14.832 L172.984,22.272 C172.984,22.536 172.984,23.208 172.024,23.208 C171.064,23.208 171.064,22.536 171.064,22.272 L171.064,15.528 C170.32,15.768 169,16.224 168.472,16.392 C167.992,16.536 167.776,16.608 167.512,16.608 C166.936,16.608 166.648,15.936 166.648,15.456 C166.648,14.856 167.032,14.664 167.488,14.544 C168.784,14.232 169.84,13.92 171.064,13.512 L171.064,7.152 L169.408,7.152 C169.216,8.472 169.024,9.576 168.688,10.632 C168.544,11.04 168.352,11.448 167.896,11.448 C167.632,11.448 166.816,11.208 166.816,10.584 C166.816,10.32 167.2,8.976 167.272,8.688 C167.656,6.888 167.872,4.56 167.92,2.952 C167.944,2.232 168.184,1.968 168.736,1.968 C169.552,1.968 169.72,2.4 169.72,3.048 C169.72,3.504 169.648,4.728 169.6,5.328 L171.064,5.328 L171.064,1.512 C171.064,1.224 171.064,0.552 172.024,0.552 C172.984,0.552 172.984,1.224 172.984,1.512 L172.984,5.328 L174.256,5.328 C174.496,5.328 175.216,5.328 175.216,6.24 C175.216,7.152 174.496,7.152 174.256,7.152 L172.984,7.152 L172.984,12.84 C173.176,12.768 173.248,12.744 173.728,12.528 C174.232,12.312 174.424,12.24 174.616,12.24 C174.88,12.24 175.288,12.528 175.288,13.176 C175.288,13.848 175.072,13.992 172.984,14.832 Z M178,15.216 C178.432,15.216 179.44,16.416 179.896,16.968 C180.832,18.072 180.952,18.24 180.952,18.528 C180.952,19.08 180.28,19.608 179.752,19.608 C179.488,19.608 179.272,19.512 178.912,18.984 C178.672,18.624 177.592,17.352 177.088,16.848 C176.872,16.632 176.8,16.44 176.8,16.248 C176.8,15.744 177.328,15.216 178,15.216 Z M184.504,14.472 L176.608,14.472 C176.368,14.472 175.672,14.472 175.672,13.536 C175.672,12.6 176.368,12.6 176.608,12.6 L184.504,12.6 L184.504,9.936 L176.2,9.936 C175.96,9.936 175.264,9.936 175.264,9 C175.264,8.088 175.96,8.088 176.2,8.088 L181.24,8.088 L181.24,4.8 L177.088,4.8 C176.824,4.8 176.128,4.8 176.128,3.864 C176.128,2.952 176.824,2.952 177.088,2.952 L181.24,2.952 L181.24,1.512 C181.24,1.248 181.24,0.552 182.224,0.552 C183.184,0.552 183.184,1.248 183.184,1.512 L183.184,2.952 L187.432,2.952 C187.672,2.952 188.368,2.952 188.368,3.864 C188.368,4.8 187.672,4.8 187.432,4.8 L183.184,4.8 L183.184,8.088 L188.248,8.088 C188.512,8.088 189.208,8.088 189.208,9 C189.208,9.936 188.512,9.936 188.248,9.936 L186.472,9.936 L186.472,12.6 L188.056,12.6 C188.296,12.6 188.992,12.6 188.992,13.536 C188.992,14.472 188.296,14.472 188.056,14.472 L186.472,14.472 L186.472,20.472 C186.472,21.696 186.28,23.04 184.096,23.04 L181.504,23.04 C180.88,23.04 180.52,22.584 180.52,21.888 C180.52,21.216 180.928,21 181.456,21 L183.592,21 C184.312,21 184.504,20.616 184.504,20.112 L184.504,14.472 Z M201.544,11.328 L201.544,13.968 L203.776,13.968 C203.992,13.968 204.736,13.968 204.736,14.808 C204.736,15.624 203.992,15.624 203.776,15.624 L201.544,15.624 L201.544,18.84 C201.928,18.768 202.312,18.72 203.008,18.6 C203.536,18.504 204.448,18.336 204.592,18.336 C205.024,18.336 205.288,18.624 205.288,19.128 C205.288,19.872 204.88,19.968 204.064,20.16 C202.24,20.568 197.008,21.336 196.672,21.336 C196.096,21.336 195.856,20.856 195.856,20.376 C195.856,19.968 196.024,19.632 196.456,19.536 C196.672,19.488 199.408,19.128 199.72,19.08 L199.72,15.624 L197.368,15.624 C197.152,15.624 196.432,15.624 196.432,14.808 C196.432,13.968 197.176,13.968 197.368,13.968 L199.72,13.968 L199.72,11.328 L197.032,11.328 C196.816,11.328 196.096,11.328 196.096,10.488 C196.096,9.648 196.816,9.648 197.032,9.648 L203.824,9.648 C204.088,9.648 204.256,9.672 204.352,9.72 C204.304,9.576 204.28,9.48 204.28,9.36 C204.28,9.024 204.376,8.856 204.592,8.568 C206.224,6.192 206.92,3.744 207.52,1.56 C207.64,1.08 207.76,0.648 208.48,0.648 C208.576,0.648 209.44,0.648 209.44,1.392 C209.44,1.752 209.08,3.216 208.552,4.752 L212.296,4.752 C212.56,4.752 213.232,4.752 213.232,5.688 C213.232,6.624 212.632,6.624 212.248,6.624 C212.224,7.704 212.056,13.176 210.016,17.112 C211.024,19.08 211.528,19.632 212.584,20.784 C213.016,21.264 213.136,21.48 213.136,21.744 C213.136,22.2 212.8,22.944 212.104,22.944 C211.672,22.944 211.384,22.68 210.664,21.744 C209.992,20.88 209.392,19.968 208.864,19.008 C207.64,20.736 206.2,21.96 205.48,22.536 C205.072,22.872 204.88,22.92 204.616,22.92 C204.064,22.92 203.632,22.344 203.632,21.864 C203.632,21.6 203.752,21.36 204.208,21 C205.96,19.632 207.208,18.072 207.904,16.968 C206.848,14.328 206.512,11.616 206.272,9.624 C205.912,10.152 205.672,10.416 205.312,10.416 C205.072,10.416 204.856,10.296 204.736,10.224 C204.904,11.184 204.232,11.328 203.824,11.328 L201.544,11.328 Z M210.496,6.624 L207.808,6.624 C207.76,6.72 207.736,6.744 207.712,6.84 C207.856,9.912 208.216,12.432 209.032,14.832 C210.28,11.784 210.448,8.4 210.496,6.624 Z M190.84,5.208 C190.84,4.848 190.912,4.728 191.776,3.888 C192.88,2.808 193.48,1.824 193.792,1.344 C194.08,0.864 194.296,0.696 194.68,0.696 C195.16,0.696 195.736,1.008 195.736,1.512 C195.736,2.136 194.512,3.792 193.744,4.704 C193.192,5.328 192.328,6.336 191.8,6.336 C191.272,6.336 190.84,5.736 190.84,5.208 Z M192.928,22.176 L192.928,12.696 C191.968,13.992 191.728,14.136 191.392,14.136 C190.888,14.136 190.48,13.512 190.48,12.888 C190.48,12.576 190.576,12.336 190.936,11.928 C192.208,10.464 193.336,8.856 194.152,7.104 C194.584,6.168 194.704,5.952 195.232,5.952 C195.64,5.952 196.192,6.24 196.192,6.84 C196.192,7.512 195.112,9.384 194.848,9.888 L194.848,22.176 C194.848,22.416 194.848,23.136 193.888,23.136 C192.928,23.136 192.928,22.416 192.928,22.176 Z M199.936,5.808 L199.936,1.512 C199.936,1.296 199.936,0.576 200.776,0.576 C201.616,0.576 201.64,1.296 201.64,1.512 L201.64,5.808 L202.912,5.808 C203.392,5.808 203.584,5.568 203.584,5.136 L203.584,2.76 C203.584,2.544 203.584,1.824 204.424,1.824 C205.264,1.824 205.264,2.544 205.264,2.76 L205.264,5.376 C205.264,6.36 205.12,7.464 203.32,7.464 L198.448,7.464 C197.488,7.464 196.336,7.368 196.336,5.52 L196.336,2.76 C196.336,2.568 196.336,1.824 197.176,1.824 C197.992,1.824 197.992,2.568 197.992,2.76 L197.992,5.136 C197.992,5.616 198.256,5.808 198.688,5.808 L199.936,5.808 Z" id="タイブレイクの特徴-copy" fill="#222222"></path>
    </g>
</svg>