<?xml version="1.0" encoding="UTF-8"?>
<svg width="312px" height="212px" viewBox="0 0 312 212" version="1.1" xmlns="http://www.w3.org/2000/svg" xmlns:xlink="http://www.w3.org/1999/xlink">
    <!-- Generator: Sketch 42 (36781) - http://www.bohemiancoding.com/sketch -->
    <title>Group 11</title>
    <desc>Created with Sketch.</desc>
    <defs></defs>
    <g id="Page-1" stroke="none" stroke-width="1" fill="none" fill-rule="evenodd">
        <g id="Group-11">
            <polygon id="Triangle-2-Copy-2" fill="#FFFFFF" points="156 12 312 212 0 212"></polygon>
            <path d="M154.76,69.17 C166.46,69.17 175.91,62.15 175.91,50.36 C175.91,41.36 169.7,35.42 161.87,33.62 L161.87,33.26 C168.89,30.65 173.66,25.34 173.66,17.33 C173.66,6.71 165.56,0.77 154.49,0.77 C146.84,0.77 140.99,4.1 136.04,8.69 L140.45,13.91 C144.14,10.22 148.82,7.52 154.13,7.34 C160.97,7.52 165.29,11.57 165.29,17.96 C165.29,25.07 160.61,30.56 147.02,30.56 L147.02,36.86 C162.23,36.86 167.54,42.17 167.54,50.09 C167.54,57.65 161.96,62.33 154.13,62.33 C146.66,62.33 141.62,58.82 137.75,54.77 L133.61,60.17 C137.93,64.85 144.41,69.17 154.76,69.17 Z" id="3" fill="#EB0028"></path>
            <path d="M137.38,124.08 L135.98,126.18 C134.84,125.26 132.58,123.96 131.22,123.36 L132.5,121.4 C133.92,122.02 136.38,123.36 137.38,124.08 Z M129.92,121.04 L129.98,123.34 C129.08,123.58 127.86,123.84 126.54,124.02 C125.6,126.8 123.9,130.24 122.3,132.5 L119.88,131.28 C121.48,129.34 123.04,126.42 123.92,124.28 C123.58,124.3 123.24,124.3 122.9,124.3 C122.08,124.3 121.28,124.28 120.42,124.24 L120.24,121.92 C121.1,122.02 122.16,122.06 122.88,122.06 C123.46,122.06 124.06,122.04 124.66,122 C124.94,120.9 125.16,119.7 125.2,118.68 L127.94,118.96 C127.78,119.6 127.54,120.6 127.26,121.66 C128.22,121.5 129.14,121.28 129.92,121.04 Z M130.4,132.06 L130.4,131.68 C129.88,131.56 129.36,131.48 128.8,131.48 C127.66,131.48 126.92,131.96 126.92,132.66 C126.92,133.4 127.54,133.9 128.62,133.9 C129.96,133.9 130.4,133.12 130.4,132.06 Z M130.08,125.12 L132.58,125.12 C132.52,125.96 132.56,126.78 132.58,127.66 C132.6,128.22 132.64,129.18 132.7,130.16 C134.4,130.8 135.8,131.8 136.8,132.7 L135.48,134.82 C134.78,134.18 133.88,133.38 132.8,132.72 L132.8,132.9 C132.8,134.74 131.8,136.18 128.98,136.18 C126.52,136.18 124.58,135.08 124.58,132.9 C124.58,130.96 126.2,129.46 128.96,129.46 C129.42,129.46 129.88,129.5 130.3,129.54 C130.24,128.06 130.14,126.32 130.08,125.12 Z M147.46,121.04 L147.48,123.6 C149.96,123.82 153.54,123.82 155.98,123.6 L155.98,121.04 C153.84,121.3 149.9,121.38 147.46,121.04 Z M146.78,129.3 C146.58,130.22 146.44,131.06 146.44,131.88 C146.44,133.9 148.06,135.14 151.48,135.14 C153.72,135.14 155.32,134.98 156.6,134.74 L156.54,132.06 C154.82,132.42 153.36,132.58 151.58,132.58 C149.58,132.58 148.82,132.06 148.82,131.18 C148.82,130.64 148.9,130.16 149.06,129.52 L146.78,129.3 Z M141.64,119.5 C141.64,120.12 141.52,120.88 141.44,121.44 C141.22,122.96 140.62,126.3 140.62,129.28 C140.62,131.96 141,134.38 141.4,135.76 L143.68,135.6 C143.66,135.32 143.66,135 143.64,134.78 C143.64,134.58 143.7,134.14 143.76,133.86 C143.96,132.8 144.62,130.66 145.18,129 L143.94,128.04 C143.66,128.68 143.34,129.34 143.06,130.04 C143,129.62 142.98,129.14 142.98,128.76 C142.98,126.78 143.66,122.82 143.94,121.5 C144.02,121.14 144.26,120.14 144.42,119.74 L141.64,119.5 Z M167.38,131.82 C167.38,131.64 167.38,131.4 167.36,131.14 C166.84,131.06 166.28,131 165.72,131 C164.18,131 163.26,131.52 163.26,132.36 C163.26,133.34 164.26,133.7 165.64,133.7 C166.92,133.7 167.38,133.12 167.38,131.82 Z M175.94,132.74 L174.42,135.1 C173.3,133.98 171.8,132.8 170.04,132 C170.06,132.26 170.06,132.48 170.06,132.68 C170.06,134.42 169.16,136.1 165.84,136.1 C163.02,136.1 160.7,135.18 160.7,132.48 C160.7,130.42 162.46,128.78 166.1,128.78 C166.5,128.78 166.9,128.8 167.28,128.84 C167.22,127.3 167.14,125.6 167.14,124.56 C167.14,123.36 167.12,122.18 167.1,121.34 C167.08,120.36 167.02,119.52 166.9,119.02 L169.88,119.02 C169.8,119.6 169.74,120.56 169.7,121.34 L169.7,122.78 C171.26,122.74 173.58,122.66 175.22,122.48 L175.32,124.84 C173.66,125 171.3,125.08 169.7,125.12 C169.74,126.32 169.82,127.88 169.92,129.34 C172.44,130.1 174.58,131.46 175.94,132.74 Z M183.04,118.88 C183.02,119.44 182.98,120.24 182.88,120.96 C182.58,123 182.32,125.46 182.32,127.3 C182.32,128.62 182.46,129.84 182.56,130.6 L185.02,130.44 C184.9,129.52 184.9,128.88 184.92,128.34 C185.02,125.74 187.06,122.22 189.4,122.22 C191.04,122.22 192.06,123.92 192.06,126.98 C192.06,131.78 188.98,133.22 184.58,133.9 L186.08,136.2 C191.32,135.24 194.76,132.56 194.76,126.96 C194.76,122.6 192.62,119.9 189.86,119.9 C187.62,119.9 185.9,121.58 184.96,123.1 C185.08,122 185.48,119.98 185.76,119 L183.04,118.88 Z M54.92,153.4 L53.54,153.4 L53.54,154.28 L54.92,154.28 L54.92,153.4 Z M54.92,156.96 L54.92,156.02 L53.54,156.02 L53.54,156.96 L54.92,156.96 Z M51.4,154.28 L51.4,153.4 L48.9,153.4 L48.9,151.68 L51.4,151.68 L51.4,150.2 L53.54,150.2 L53.54,151.68 L56.92,151.68 L56.92,154.28 L57.9,154.28 L57.9,156.02 L56.92,156.02 L56.92,158.68 L53.54,158.68 L53.54,159.62 L57.04,159.62 L57.04,161.34 L53.54,161.34 L53.54,162.32 L57.52,162.32 L57.52,164.04 L53.54,164.04 L53.54,165.86 L51.4,165.86 L51.4,164.04 L48.16,164.04 L48.16,162.32 L51.4,162.32 L51.4,161.34 L48.66,161.34 L48.66,159.62 L51.4,159.62 L51.4,158.68 L48.9,158.68 L48.9,156.96 L51.4,156.96 L51.4,156.02 L47.6,156.02 L47.6,154.28 L51.4,154.28 Z M43.08,154.44 L43.08,166.78 C43.72,166.3 44.28,165.62 44.74,164.78 C44.16,163.7 43.66,162.34 43.28,160.6 L45.08,160.08 C45.26,160.96 45.48,161.72 45.74,162.38 C46.06,161.3 46.28,160.12 46.44,158.84 L45.48,158.84 L45.12,159.66 L43.18,159.22 C43.96,157.48 44.86,155.28 45.52,153.58 L43.92,153.58 L43.92,152.38 C43.66,153.08 43.38,153.76 43.08,154.44 Z M47.32,157.08 L48.56,157.3 C48.36,160.26 47.9,162.68 47.12,164.62 C48.44,165.98 50.24,166.34 52.44,166.36 C53.36,166.36 56.94,166.36 58.06,166.32 C57.74,166.84 57.42,167.84 57.32,168.46 L52.32,168.46 C49.7,168.46 47.66,168.04 46.12,166.58 C45.58,167.42 44.94,168.12 44.2,168.7 C43.98,168.24 43.5,167.54 43.08,167.1 L43.08,168.7 L41,168.7 L41,158.32 C40.62,158.9 40.22,159.46 39.82,159.94 C39.66,159.36 39.14,157.98 38.78,157.36 C40.26,155.58 41.58,152.86 42.36,150.12 L44.48,150.76 L44.18,151.66 L46.44,151.66 L46.78,151.58 L48.26,151.96 C47.72,153.46 46.98,155.32 46.22,157.12 L46.96,157.12 L47.32,157.08 Z M71,158.98 L71,159.96 L73.76,159.96 L73.76,158.98 L71,158.98 Z M71,156.4 L71,157.32 L73.76,157.32 L73.76,156.4 L71,156.4 Z M76.02,161.54 L71.58,161.54 C71.88,162.24 72.26,162.88 72.72,163.48 C73.64,162.92 74.62,162.18 75.28,161.62 L77.02,163.02 C76.04,163.66 74.96,164.3 74,164.8 C74.96,165.6 76.12,166.22 77.48,166.6 C77,167.06 76.36,167.92 76.04,168.52 C73.86,167.72 72.2,166.32 71,164.46 L71,166.4 C71,167.58 70.72,168.1 69.94,168.42 C69.18,168.74 68.04,168.76 66.4,168.76 C66.32,168.26 66.06,167.58 65.8,167.02 C65.04,167.38 64.3,167.72 63.62,168 L62.52,166.1 C63.84,165.7 65.8,164.96 67.72,164.22 L68.14,165.92 C67.54,166.22 66.92,166.5 66.32,166.78 C67.16,166.82 67.98,166.82 68.24,166.8 C68.6,166.8 68.72,166.7 68.72,166.38 L68.72,161.54 L64.76,161.54 C65.72,162.02 66.92,162.72 67.54,163.26 L66.18,164.66 C65.56,164.1 64.34,163.28 63.36,162.74 L64.58,161.54 L64.3,161.54 L64.3,159.96 L68.72,159.96 L68.72,158.98 L63.38,158.98 L63.38,157.32 L68.72,157.32 L68.72,156.4 L64.52,156.4 L64.52,154.82 L68.72,154.82 L68.72,153.84 L63,153.84 L63,157.56 C63,160.8 62.7,165.72 60.92,168.82 C60.5,168.42 59.5,167.76 58.98,167.52 C60.62,164.66 60.74,160.5 60.74,157.56 L60.74,151.76 L67.88,151.76 L67.88,150.08 L70.36,150.08 L70.36,151.76 L77.58,151.76 L77.58,153.84 L71,153.84 L71,154.82 L76.02,154.82 L76.02,157.32 L77.8,157.32 L77.8,158.98 L76.02,158.98 L76.02,161.54 Z M93.3,156.6 C93.78,157.32 94.52,158.52 94.9,159.32 L93.38,160 C92.88,158.9 92.46,158.12 91.82,157.22 L93.3,156.6 Z M95.54,155.68 C96.04,156.38 96.8,157.56 97.22,158.34 L95.72,159.06 C95.18,157.98 94.72,157.24 94.08,156.36 L95.54,155.68 Z M79.96,153.32 C80.76,153.3 81.52,153.26 81.9,153.22 C83.56,153.08 86.84,152.78 90.46,152.46 C92.5,152.3 94.66,152.18 96.06,152.12 L96.08,154.68 C95.02,154.68 93.32,154.7 92.26,154.94 C89.86,155.58 88.08,158.14 88.08,160.48 C88.08,163.74 91.12,164.92 94.48,165.08 L93.56,167.82 C89.4,167.56 85.48,165.32 85.48,161.02 C85.48,158.16 87.06,155.92 88.4,154.92 C86.68,155.1 82.52,155.54 80.22,156.04 L79.96,153.32 Z M107.44,159.12 L107.44,159.16 C107.44,160.38 107.52,161.46 107.66,162.44 C108.62,161.48 109.5,160.28 110.16,158.68 C109.12,158.7 108.2,158.88 107.44,159.12 Z M103.66,164.76 C104.22,164.76 104.9,164.54 105.64,164.12 C105.42,162.88 105.26,161.52 105.22,160.16 C103.74,161.16 102.74,162.68 102.74,163.8 C102.74,164.42 103.02,164.76 103.66,164.76 Z M111,155.48 L113.44,156.04 C113.34,156.26 113.2,156.68 113.08,157.06 C115.38,157.82 116.9,159.6 116.9,161.92 C116.9,164.7 115.24,167.44 110.38,168.16 L109.06,166.08 C112.88,165.66 114.44,163.74 114.44,161.8 C114.44,160.6 113.74,159.54 112.4,159.02 C111.3,161.72 109.72,163.78 108.22,165.02 C108.36,165.54 108.52,166.02 108.68,166.5 L106.4,167.18 C106.32,166.94 106.22,166.66 106.14,166.38 C105.18,166.86 104.12,167.18 103.08,167.18 C101.62,167.18 100.4,166.3 100.4,164.28 C100.4,161.76 102.5,159.08 105.26,157.78 C105.32,156.94 105.38,156.1 105.46,155.3 L104.82,155.3 C103.78,155.3 102.24,155.22 101.32,155.18 L101.24,152.88 C101.94,152.98 103.68,153.14 104.9,153.14 L105.66,153.14 L105.78,152.08 C105.82,151.72 105.86,151.24 105.84,150.9 L108.44,150.96 C108.3,151.36 108.22,151.72 108.16,152.02 C108.08,152.34 108.02,152.7 107.96,153.08 C110.36,153 112.5,152.76 114.68,152.24 L114.7,154.52 C112.76,154.88 110.1,155.12 107.66,155.24 C107.6,155.82 107.54,156.42 107.52,157.02 C108.46,156.8 109.5,156.66 110.48,156.66 L110.82,156.66 C110.9,156.26 110.98,155.76 111,155.48 Z M121.44,158.5 L122.46,161.1 C124.16,160.38 128.1,158.74 130.4,158.74 C132.12,158.74 133.24,159.78 133.24,161.26 C133.24,163.96 129.88,165.14 125.38,165.26 L126.42,167.72 C132.72,167.34 135.86,164.88 135.86,161.3 C135.86,158.3 133.76,156.44 130.64,156.44 C128.24,156.44 124.88,157.58 123.54,157.98 C122.94,158.18 122.02,158.4 121.44,158.5 Z M140.02,153.28 L140.26,156 C142.56,155.5 146.74,155.06 148.44,154.88 C147.12,155.88 145.52,158.12 145.52,160.98 C145.52,165.26 149.44,167.5 153.6,167.78 L154.52,165.04 C151.18,164.86 148.12,163.7 148.12,160.44 C148.12,158.1 149.92,155.54 152.3,154.9 C153.36,154.66 155.06,154.64 156.12,154.64 L156.1,152.08 C154.72,152.14 152.54,152.26 150.5,152.42 C146.88,152.74 143.6,153.02 141.96,153.18 C141.56,153.22 140.8,153.26 140.02,153.28 Z M171.56,158.82 C172.84,160.04 173.6,161.32 173.6,162.66 C173.6,164.3 172.08,165.56 169.32,165.56 C167.36,165.56 166.36,164.66 166.36,163.04 C166.36,162.68 166.4,162.18 166.44,161.6 L167.24,161.6 C168.46,161.6 169.62,161.52 170.74,161.42 L170.8,159.06 C169.5,159.2 168.04,159.3 166.82,159.3 L166.68,159.3 C166.78,158.42 166.9,157.48 167.02,156.6 C168.62,156.6 169.7,156.54 170.88,156.42 L170.96,154.06 C170.02,154.2 168.74,154.28 167.32,154.3 C167.42,153.66 167.48,153.14 167.54,152.8 C167.62,152.28 167.72,151.76 167.88,151.04 L165.1,150.88 C165.14,151.54 165.1,152.1 165.06,152.64 C165.02,153.08 164.98,153.62 164.9,154.22 C163.46,154.1 161.98,153.86 160.84,153.48 L160.7,155.78 C161.86,156.1 163.26,156.34 164.64,156.48 C164.52,157.38 164.42,158.3 164.3,159.18 C163.02,159.06 161.68,158.84 160.4,158.4 L160.26,160.8 C161.32,161.1 162.62,161.32 164.06,161.46 C163.98,162.28 163.92,162.98 163.92,163.46 C163.92,166.76 166.12,168.12 169.24,168.12 C173.58,168.12 176.26,165.96 176.26,162.98 C176.26,161.3 175.66,159.9 174.34,158.22 L171.56,158.82 Z M184.58,153.36 L185.22,150.96 C187.1,151.54 191.4,152.3 193.14,152.5 L192.54,154.94 C190.54,154.68 186.12,153.76 184.58,153.36 Z M185.34,154.94 C185.08,156.04 184.74,158.42 184.6,159.56 C186.4,158.26 188.36,157.68 190.42,157.68 C193.9,157.68 195.92,159.82 195.92,162.22 C195.92,165.84 193.06,168.62 184.82,167.9 L184.06,165.3 C190,166.14 193.14,164.68 193.14,162.16 C193.14,160.88 191.92,159.94 190.18,159.94 C187.94,159.94 185.96,160.76 184.72,162.26 C184.36,162.7 184.14,163.02 183.98,163.42 L181.68,162.84 C182.06,160.9 182.54,157.04 182.66,154.58 L185.34,154.94 Z M203.74,152.76 L200.7,152.72 C200.82,153.32 200.84,154.16 200.84,154.72 C200.84,155.94 200.88,158.24 201.06,160.06 C201.62,165.38 203.52,167.34 205.68,167.34 C207.28,167.34 208.52,166.12 209.84,162.68 L207.84,160.28 C207.46,161.84 206.68,164.16 205.74,164.16 C204.5,164.16 203.9,162.22 203.62,159.36 C203.5,157.94 203.48,156.44 203.5,155.16 C203.5,154.62 203.6,153.46 203.74,152.76 Z M213.64,153.18 L211.12,154.02 C213.28,156.46 214.34,161.12 214.64,164.3 L217.26,163.3 C217.04,160.26 215.52,155.48 213.64,153.18 Z M229.16,159.42 L229.16,157.08 C230.26,156.98 231.68,156.88 232.96,156.88 C234.08,156.88 235.28,156.94 236.44,157.06 L236.38,159.44 C235.4,159.32 234.18,159.2 232.98,159.2 C231.6,159.2 230.4,159.26 229.16,159.42 Z M230.72,153.06 L230.72,155.56 C229.54,155.82 228.2,156.04 226.88,156.2 C226.7,157.06 226.5,157.94 226.28,158.74 C225.56,161.52 224.22,165.58 223.14,167.9 L220.36,166.98 C221.54,165 223.04,160.84 223.78,158.06 C223.92,157.54 224.06,156.98 224.2,156.42 C223.74,156.44 223.3,156.46 222.9,156.46 C221.94,156.46 221.2,156.42 220.5,156.38 L220.44,153.9 C221.46,154.02 222.12,154.06 222.94,154.06 C223.52,154.06 224.1,154.04 224.7,154 C224.78,153.56 224.84,153.18 224.88,152.86 C224.98,152.12 225,151.32 224.96,150.86 L227.98,151.1 C227.84,151.64 227.66,152.52 227.56,152.96 L227.4,153.72 C228.52,153.54 229.64,153.32 230.72,153.06 Z M227.94,161.84 L230.32,162.06 C230.16,162.62 230.04,163.28 230.04,163.72 C230.04,164.58 230.54,165.22 232.66,165.22 C233.98,165.22 235.36,165.08 236.78,164.82 L236.68,167.36 C235.56,167.5 234.22,167.64 232.64,167.64 C229.3,167.64 227.6,166.48 227.6,164.48 C227.6,163.58 227.78,162.62 227.94,161.84 Z M243.74,152.76 L240.7,152.72 C240.82,153.32 240.84,154.16 240.84,154.72 C240.84,155.94 240.88,158.24 241.06,160.06 C241.62,165.38 243.52,167.34 245.68,167.34 C247.28,167.34 248.52,166.12 249.84,162.68 L247.84,160.28 C247.46,161.84 246.68,164.16 245.74,164.16 C244.5,164.16 243.9,162.22 243.62,159.36 C243.5,157.94 243.48,156.44 243.5,155.16 C243.5,154.62 243.6,153.46 243.74,152.76 Z M253.64,153.18 L251.12,154.02 C253.28,156.46 254.34,161.12 254.64,164.3 L257.26,163.3 C257.04,160.26 255.52,155.48 253.64,153.18 Z M262.36,162.04 C264.16,162.04 265.6,163.5 265.6,165.28 C265.6,167.06 264.16,168.52 262.36,168.52 C260.6,168.52 259.14,167.06 259.14,165.28 C259.14,163.5 260.6,162.04 262.36,162.04 Z M262.36,167.06 C263.36,167.06 264.16,166.28 264.16,165.28 C264.16,164.28 263.36,163.48 262.36,163.48 C261.4,163.48 260.58,164.28 260.58,165.28 C260.58,166.28 261.4,167.06 262.36,167.06 Z" id="なにより-健康であってもらいたい。" fill="#222222"></path>
        </g>
    </g>
</svg>