<?xml version="1.0" encoding="UTF-8"?>
<svg width="312px" height="212px" viewBox="0 0 312 212" version="1.1" xmlns="http://www.w3.org/2000/svg" xmlns:xlink="http://www.w3.org/1999/xlink">
    <!-- Generator: Sketch 42 (36781) - http://www.bohemiancoding.com/sketch -->
    <title>Group 10</title>
    <desc>Created with Sketch.</desc>
    <defs></defs>
    <g id="Page-1" stroke="none" stroke-width="1" fill="none" fill-rule="evenodd">
        <g id="Group-10">
            <polygon id="Triangle-2-Copy" fill="#FFFFFF" points="156 12 312 212 0 212"></polygon>
            <path d="M132.96,68 L174.45,68 L174.45,60.89 L156.18,60.89 C152.85,60.89 148.8,61.25 145.38,61.52 C160.86,46.85 171.21,33.44 171.21,20.3 C171.21,8.51 163.83,0.77 152.04,0.77 C143.67,0.77 138,4.64 132.6,10.49 L137.37,15.17 C140.97,10.85 145.65,7.52 151.05,7.52 C159.24,7.52 163.2,13.01 163.2,20.57 C163.2,31.91 153.66,45.05 132.96,63.14 L132.96,68 Z" id="2" fill="#EB0028"></path>
            <path d="M91.96,102.1 L94.28,102.84 C93.72,104.24 93.02,105.64 92.22,107.02 L92.22,120.72 L89.86,120.72 L89.86,110.46 C89.34,111.12 88.8,111.7 88.26,112.24 C88.02,111.66 87.32,110.38 86.88,109.8 C88.9,107.96 90.84,105.06 91.96,102.1 Z M105.86,110.42 L100.8,110.42 L100.8,117.7 L105.52,117.7 L105.52,119.98 L93.56,119.98 L93.56,117.7 L98.36,117.7 L98.36,110.42 L93.06,110.42 L93.06,108.1 L98.36,108.1 L98.36,102.46 L100.8,102.46 L100.8,108.1 L105.86,108.1 L105.86,110.42 Z M121.24,116.12 L121.24,115.18 L117.64,115.18 L117.64,116.12 L121.24,116.12 Z M117.64,112.5 L117.64,113.36 L121.24,113.36 L121.24,112.5 L117.64,112.5 Z M112.08,108.52 L115.22,108.52 L115.22,107.56 L112.08,107.56 L112.08,108.52 Z M120.88,107.56 L117.64,107.56 L117.64,108.52 L120.88,108.52 L120.88,107.56 Z M125.74,113.36 L125.74,115.18 L123.66,115.18 L123.66,118.66 L121.24,118.66 L121.24,117.84 L117.64,117.84 L117.64,118.46 C117.64,119.64 117.36,120.12 116.58,120.46 C115.82,120.76 114.74,120.8 113.04,120.8 C112.92,120.24 112.56,119.42 112.26,118.92 C113.22,118.96 114.4,118.96 114.72,118.96 C115.1,118.94 115.22,118.82 115.22,118.46 L115.22,117.84 L109.14,117.84 L109.14,116.12 L115.22,116.12 L115.22,115.18 L107.3,115.18 L107.3,113.36 L115.22,113.36 L115.22,112.5 L109.3,112.5 L109.3,110.9 L115.22,110.9 L115.22,110.02 L109.8,110.02 L109.8,106.06 L115.22,106.06 L115.22,105.24 L107.76,105.24 L107.76,103.36 L115.22,103.36 L115.22,102.06 L117.64,102.06 L117.64,103.36 L125.28,103.36 L125.28,105.24 L117.64,105.24 L117.64,106.06 L123.32,106.06 L123.32,110.02 L117.64,110.02 L117.64,110.9 L123.66,110.9 L123.66,113.36 L125.74,113.36 Z M138.96,116.12 C138.94,115.22 138.9,113.76 138.88,112.66 C140.1,112.1 141.22,111.66 142.1,111.32 C142.78,111.04 143.82,110.64 144.46,110.48 L143.46,108.18 C142.74,108.52 142.04,108.86 141.28,109.2 C140.46,109.56 139.62,109.9 138.6,110.38 C138.16,109.36 137.16,108.84 135.96,108.84 C135.3,108.84 134.24,108.98 133.72,109.24 C134.14,108.66 134.54,107.94 134.86,107.24 C136.98,107.16 139.42,107 141.32,106.72 L141.34,104.4 C139.6,104.72 137.6,104.88 135.74,104.98 C135.98,104.18 136.12,103.5 136.22,103.02 L133.62,102.8 C133.6,103.36 133.46,104.16 133.22,105.06 L132.26,105.06 C131.26,105.06 129.78,105 128.78,104.84 L128.78,107.16 C129.86,107.26 131.32,107.3 132.12,107.3 L132.36,107.3 C131.48,109.06 130.08,110.82 128,112.74 L130.12,114.32 C130.8,113.46 131.36,112.74 131.96,112.14 C132.72,111.42 133.94,110.78 135.06,110.78 C135.6,110.78 136.12,110.96 136.44,111.46 C134.18,112.62 131.78,114.22 131.78,116.74 C131.78,119.3 134.12,120.04 137.22,120.04 C139.08,120.04 141.5,119.88 142.82,119.72 L142.9,117.14 C141.16,117.5 138.96,117.72 137.28,117.72 C135.34,117.72 134.4,117.42 134.4,116.32 C134.4,115.34 135.2,114.56 136.66,113.76 C136.64,114.62 136.62,115.54 136.58,116.12 L138.96,116.12 Z M165.64,111.96 C163.04,109.34 161.92,106.24 161.38,103.76 L158.98,104.5 C159.12,104.9 159.26,105.28 159.4,105.66 C161,112.9 158.82,117.48 154.98,117.48 C153.26,117.48 151.84,116.48 151.84,114.3 C151.84,110.96 154.58,107.46 155.94,106.4 C156.22,106.22 156.64,106.08 156.92,105.96 L156.18,103.76 C154.88,104.2 151.56,104.74 149.48,104.9 C149.1,104.94 148.7,104.96 148.36,104.96 L148.7,107.54 C149.16,107.44 149.48,107.36 149.86,107.28 C150.56,107.14 151.66,106.96 152.42,106.86 C150.84,108.66 149.3,111.66 149.3,114.64 C149.3,118.04 151.56,120.16 154.86,120.16 C160.02,120.16 162.18,115.82 162,111.26 C162.58,112.26 163.18,113.14 163.8,113.94 L165.64,111.96 Z M181.32,105.06 C180.82,105.48 180.24,105.82 179.5,106.26 C178.56,106.78 176.84,107.66 175.22,108.6 C174.42,107.08 173.5,105.18 172.74,103.12 L170.24,104.14 C171.14,106.24 172.1,108.34 173.02,110.04 C171.12,111.44 169.74,113.06 169.74,115.26 C169.74,118.66 172.72,119.76 176.66,119.76 C179.24,119.76 181.34,119.56 183.02,119.28 L183.06,116.42 C181.3,116.82 178.62,117.14 176.58,117.14 C173.84,117.14 172.46,116.38 172.46,114.96 C172.46,113.58 173.56,112.44 175.22,111.36 C177.02,110.2 179.5,109.04 180.74,108.42 C181.46,108.06 182.1,107.72 182.7,107.36 L181.32,105.06 Z M191.04,102.88 C191.02,103.44 190.98,104.24 190.88,104.96 C190.58,107 190.32,109.46 190.32,111.3 C190.32,112.62 190.46,113.84 190.56,114.6 L193.02,114.44 C192.9,113.52 192.9,112.88 192.92,112.34 C193.02,109.74 195.06,106.22 197.4,106.22 C199.04,106.22 200.06,107.92 200.06,110.98 C200.06,115.78 196.98,117.22 192.58,117.9 L194.08,120.2 C199.32,119.24 202.76,116.56 202.76,110.96 C202.76,106.6 200.62,103.9 197.86,103.9 C195.62,103.9 193.9,105.58 192.96,107.1 C193.08,106 193.48,103.98 193.76,103 L191.04,102.88 Z M221.3,108.6 C221.78,109.32 222.52,110.52 222.9,111.32 L221.38,112 C220.88,110.9 220.46,110.12 219.82,109.22 L221.3,108.6 Z M223.54,107.68 C224.04,108.38 224.8,109.56 225.22,110.34 L223.72,111.06 C223.18,109.98 222.72,109.24 222.08,108.36 L223.54,107.68 Z M207.96,105.32 C208.76,105.3 209.52,105.26 209.9,105.22 C211.56,105.08 214.84,104.78 218.46,104.46 C220.5,104.3 222.66,104.18 224.06,104.12 L224.08,106.68 C223.02,106.68 221.32,106.7 220.26,106.94 C217.86,107.58 216.08,110.14 216.08,112.48 C216.08,115.74 219.12,116.92 222.48,117.08 L221.56,119.82 C217.4,119.56 213.48,117.32 213.48,113.02 C213.48,110.16 215.06,107.92 216.4,106.92 C214.68,107.1 210.52,107.54 208.22,108.04 L207.96,105.32 Z M45.82,140.06 L51.1,140.06 L51.1,145.86 C51.42,145.88 51.68,145.88 51.86,145.88 C52.14,145.88 52.28,145.8 52.44,145.56 C52.72,145.12 52.88,143.4 52.98,138.58 L46.7,138.58 C46.42,139.1 46.14,139.6 45.82,140.06 Z M48.44,150.56 L52.32,150.56 C53.44,150.56 53.6,150.2 53.76,148 C54.26,148.38 55.24,148.74 55.88,148.86 C55.56,151.86 54.9,152.64 52.48,152.64 L48.22,152.64 C45.48,152.64 44.62,152 44.62,149.7 L44.62,144.2 L48.9,144.2 L48.9,142.08 L45.28,142.08 L45.28,140.84 C45.04,141.16 44.8,141.44 44.54,141.72 C44.14,141.3 43.24,140.54 42.7,140.2 L42.88,140.02 L41.98,140.02 L41.98,143.06 L43.5,142.66 L43.76,144.78 C43.18,144.96 42.58,145.12 41.98,145.3 L41.98,150.06 C41.98,151.24 41.78,151.88 41.14,152.24 C40.48,152.64 39.54,152.72 38.16,152.72 C38.1,152.08 37.8,151.06 37.5,150.4 C38.28,150.44 39.1,150.44 39.36,150.42 C39.6,150.42 39.7,150.34 39.7,150.04 L39.7,145.94 L37.48,146.54 L36.98,144.24 C37.74,144.08 38.68,143.86 39.7,143.62 L39.7,140.02 L37.38,140.02 L37.38,137.84 L39.7,137.84 L39.7,134.08 L41.98,134.08 L41.98,137.84 L43.52,137.84 L43.52,139.3 C44.66,137.88 45.54,135.96 46.04,134 L48.32,134.48 C48.14,135.16 47.9,135.82 47.66,136.46 L55.28,136.46 C55.28,136.46 55.26,137.14 55.26,137.42 C55.12,143.88 54.98,146.28 54.46,147.04 C54.06,147.6 53.7,147.8 53.16,147.92 C52.66,148 51.9,148 51.08,147.98 C51.04,147.48 50.9,146.8 50.7,146.24 L46.92,146.24 L46.92,149.68 C46.92,150.44 47.16,150.56 48.44,150.56 Z M62.78,134.84 L62.4,137.14 C64.76,137.54 68.46,137.96 70.54,138.14 L70.86,135.8 C68.8,135.68 65,135.26 62.78,134.84 Z M71.56,141.14 L70.1,139.48 C69.88,139.56 69.34,139.68 68.98,139.72 C67.34,139.94 62.84,140.14 61.9,140.14 C61.18,140.14 60.46,140.12 60,140.08 L60.24,142.82 C60.66,142.74 61.26,142.64 61.94,142.58 C63.08,142.48 65.44,142.28 66.84,142.22 C65.02,144.14 60.98,148.16 59.96,149.2 C59.44,149.72 58.94,150.14 58.58,150.42 L60.94,152.06 C62.3,150.32 63.78,148.72 64.48,148.02 C64.94,147.54 65.36,147.22 65.76,147.22 C66.16,147.22 66.58,147.48 66.82,148.18 C66.96,148.68 67.18,149.6 67.4,150.18 C67.88,151.48 68.9,151.88 70.78,151.88 C71.8,151.88 73.84,151.76 74.66,151.6 L74.82,149 C73.82,149.2 72.46,149.34 70.94,149.34 C70.16,149.34 69.72,149.04 69.54,148.42 C69.36,147.92 69.18,147.16 69,146.62 C68.72,145.88 68.36,145.46 67.78,145.28 C67.58,145.18 67.22,145.12 67.04,145.12 C67.5,144.62 69.36,142.92 70.26,142.14 C70.62,141.86 71.04,141.5 71.56,141.14 Z M87.52,139.04 L88.3,139.16 C88.22,138.5 88.14,137.82 88.08,137.14 L84.6,137.14 L84.6,134.9 L90.1,134.9 C90.4,140.56 91.6,145.38 95.76,147.46 C95.2,147.86 94.34,148.7 93.9,149.28 C91.44,147.82 89.98,145.52 89.1,142.72 C88.1,145.58 86.58,147.78 84.4,149.3 C84.04,148.84 83.12,147.92 82.56,147.5 C85.36,145.84 86.9,142.86 87.52,139.04 Z M82.56,137.54 C81.88,136.6 80.42,135.36 79.22,134.52 L77.46,135.96 C78.64,136.84 80.06,138.16 80.68,139.12 L82.56,137.54 Z M82.06,141.82 L82.06,148.1 C82.88,149.44 84.38,149.98 86.46,150.06 C88.8,150.16 93.3,150.1 95.96,149.9 C95.7,150.46 95.34,151.62 95.22,152.3 C92.82,152.42 88.8,152.46 86.42,152.36 C83.96,152.26 82.32,151.7 81.02,150.14 C80.14,150.92 79.26,151.7 78.18,152.54 L77.02,150.06 C77.86,149.56 78.86,148.9 79.74,148.22 L79.74,144 L77.44,144 L77.44,141.82 L82.06,141.82 Z M106.04,148.38 C106.04,148.16 106.04,147.88 106.02,147.54 C105.5,147.46 104.96,147.4 104.4,147.4 C103,147.4 102.24,147.94 102.24,148.62 C102.24,149.36 102.94,149.84 104.3,149.84 C105.36,149.84 106.04,149.52 106.04,148.38 Z M113.96,148.88 L112.54,151.1 C111.48,150.1 110.12,149.08 108.54,148.36 C108.56,148.62 108.56,148.86 108.56,149.06 C108.56,150.76 107.28,152.06 104.66,152.06 C101.5,152.06 99.82,150.86 99.82,148.76 C99.82,146.76 101.66,145.36 104.72,145.36 C105.14,145.36 105.54,145.38 105.94,145.42 C105.9,144.82 105.88,144.2 105.86,143.62 L104.84,143.62 C103.68,143.62 101.4,143.52 100.08,143.36 L100.1,141.02 C101.24,141.24 103.82,141.38 104.88,141.38 L105.82,141.38 L105.82,139.32 L104.88,139.32 C103.62,139.32 101.72,139.2 100.58,139.02 L100.56,136.76 C101.8,137 103.64,137.14 104.86,137.14 L105.84,137.14 L105.84,136.24 C105.84,135.88 105.82,135.26 105.74,134.88 L108.44,134.88 C108.38,135.28 108.32,135.78 108.3,136.28 L108.28,137.06 C109.82,137 111.28,136.84 113,136.58 L113.06,138.86 C111.76,138.98 110.16,139.14 108.26,139.24 L108.24,141.3 C110.24,141.22 111.9,141.04 113.52,140.84 L113.52,143.18 C111.74,143.38 110.2,143.52 108.28,143.58 C108.32,144.32 108.36,145.12 108.42,145.88 C110.92,146.6 112.82,147.92 113.96,148.88 Z M135.38,140.08 L133.98,142.18 C132.84,141.26 130.58,139.96 129.22,139.36 L130.5,137.4 C131.92,138.02 134.38,139.36 135.38,140.08 Z M127.92,137.04 L127.98,139.34 C127.08,139.58 125.86,139.84 124.54,140.02 C123.6,142.8 121.9,146.24 120.3,148.5 L117.88,147.28 C119.48,145.34 121.04,142.42 121.92,140.28 C121.58,140.3 121.24,140.3 120.9,140.3 C120.08,140.3 119.28,140.28 118.42,140.24 L118.24,137.92 C119.1,138.02 120.16,138.06 120.88,138.06 C121.46,138.06 122.06,138.04 122.66,138 C122.94,136.9 123.16,135.7 123.2,134.68 L125.94,134.96 C125.78,135.6 125.54,136.6 125.26,137.66 C126.22,137.5 127.14,137.28 127.92,137.04 Z M128.4,148.06 L128.4,147.68 C127.88,147.56 127.36,147.48 126.8,147.48 C125.66,147.48 124.92,147.96 124.92,148.66 C124.92,149.4 125.54,149.9 126.62,149.9 C127.96,149.9 128.4,149.12 128.4,148.06 Z M128.08,141.12 L130.58,141.12 C130.52,141.96 130.56,142.78 130.58,143.66 C130.6,144.22 130.64,145.18 130.7,146.16 C132.4,146.8 133.8,147.8 134.8,148.7 L133.48,150.82 C132.78,150.18 131.88,149.38 130.8,148.72 L130.8,148.9 C130.8,150.74 129.8,152.18 126.98,152.18 C124.52,152.18 122.58,151.08 122.58,148.9 C122.58,146.96 124.2,145.46 126.96,145.46 C127.42,145.46 127.88,145.5 128.3,145.54 C128.24,144.06 128.14,142.32 128.08,141.12 Z M141.74,136.76 L138.7,136.72 C138.82,137.32 138.84,138.16 138.84,138.72 C138.84,139.94 138.88,142.24 139.06,144.06 C139.62,149.38 141.52,151.34 143.68,151.34 C145.28,151.34 146.52,150.12 147.84,146.68 L145.84,144.28 C145.46,145.84 144.68,148.16 143.74,148.16 C142.5,148.16 141.9,146.22 141.62,143.36 C141.5,141.94 141.48,140.44 141.5,139.16 C141.5,138.62 141.6,137.46 141.74,136.76 Z M151.64,137.18 L149.12,138.02 C151.28,140.46 152.34,145.12 152.64,148.3 L155.26,147.3 C155.04,144.26 153.52,139.48 151.64,137.18 Z M171.3,140.6 C171.78,141.32 172.52,142.52 172.9,143.32 L171.38,144 C170.88,142.9 170.46,142.12 169.82,141.22 L171.3,140.6 Z M173.54,139.68 C174.04,140.38 174.8,141.56 175.22,142.34 L173.72,143.06 C173.18,141.98 172.72,141.24 172.08,140.36 L173.54,139.68 Z M157.96,137.32 C158.76,137.3 159.52,137.26 159.9,137.22 C161.56,137.08 164.84,136.78 168.46,136.46 C170.5,136.3 172.66,136.18 174.06,136.12 L174.08,138.68 C173.02,138.68 171.32,138.7 170.26,138.94 C167.86,139.58 166.08,142.14 166.08,144.48 C166.08,147.74 169.12,148.92 172.48,149.08 L171.56,151.82 C167.4,151.56 163.48,149.32 163.48,145.02 C163.48,142.16 165.06,139.92 166.4,138.92 C164.68,139.1 160.52,139.54 158.22,140.04 L157.96,137.32 Z M186,145.36 L184.56,147.3 C184.14,146.74 183.46,145.94 182.78,145.2 L182.78,152.74 L180.42,152.74 L180.42,145.84 C179.62,146.58 178.78,147.24 177.94,147.76 C177.74,147.12 177.18,145.96 176.82,145.5 C179,144.32 181.1,142.22 182.42,139.9 L177.58,139.9 L177.58,137.76 L180.42,137.76 L180.42,134.08 L182.78,134.08 L182.78,137.76 L183.68,137.76 L184.1,137.66 L185.44,138.52 C184.84,140.04 184.04,141.48 183.08,142.8 C184.04,143.58 185.58,144.96 186,145.36 Z M191.76,149.84 L196.02,149.84 L196.02,152.16 L184.7,152.16 L184.7,149.84 L189.32,149.84 L189.32,142.52 L185.52,142.52 L185.52,140.22 L189.32,140.22 L189.32,134.24 L191.76,134.24 L191.76,140.22 L195.54,140.22 L195.54,142.52 L191.76,142.52 L191.76,149.84 Z M210.58,137.84 L210.58,136.54 L202.5,136.54 L202.5,137.84 L210.58,137.84 Z M213.12,134.68 L213.12,139.68 L200.1,139.68 L200.1,134.68 L213.12,134.68 Z M201.56,146.78 L201.56,147.66 L211.36,147.66 L211.36,146.78 L201.56,146.78 Z M201.56,144.4 L201.56,145.26 L211.36,145.26 L211.36,144.4 L201.56,144.4 Z M201.56,142.04 L201.56,142.9 L211.36,142.9 L211.36,142.04 L201.56,142.04 Z M213.82,149.28 L210.66,149.28 C212.52,149.84 214.56,150.56 215.94,151.1 L213.84,152.78 C212.3,152.06 209.54,151.08 207.42,150.46 L209.08,149.28 L203.66,149.28 L205.18,150.34 C203.56,151.28 201,152.24 198.98,152.74 C198.54,152.24 197.72,151.5 197.18,151.04 C198.9,150.66 200.94,149.96 202.3,149.28 L199.2,149.28 L199.2,140.42 L213.82,140.42 L213.82,149.28 Z M228.38,144.16 L224.64,144.16 L224.64,146.92 L228.38,146.92 L228.38,144.16 Z M230.58,148.88 L224.64,148.88 L224.64,150.2 L222.44,150.2 L222.44,142.2 L230.58,142.2 L230.58,148.88 Z M231.48,138.66 L231.48,140.66 L221.5,140.66 L221.5,138.66 L231.48,138.66 Z M235,135 L235,150 C235,151.24 234.74,151.92 233.98,152.3 C233.22,152.7 232.1,152.76 230.44,152.76 C230.34,152.1 229.98,151.02 229.62,150.4 C230.68,150.46 231.84,150.46 232.18,150.44 C232.52,150.42 232.66,150.3 232.66,149.98 L232.66,137.26 L220.36,137.26 L220.36,152.74 L218.04,152.74 L218.04,135 L235,135 Z M255.62,142.4 L255.62,140.04 L247.76,140.04 L247.76,134.1 L245.2,134.1 L245.2,140.04 L237.5,140.04 L237.5,142.4 L245.2,142.4 L245.2,149.46 L238.58,149.46 L238.58,151.84 L254.56,151.84 L254.56,149.46 L247.76,149.46 L247.76,142.4 L255.62,142.4 Z M271.3,140.6 C271.78,141.32 272.52,142.52 272.9,143.32 L271.38,144 C270.88,142.9 270.46,142.12 269.82,141.22 L271.3,140.6 Z M273.54,139.68 C274.04,140.38 274.8,141.56 275.22,142.34 L273.72,143.06 C273.18,141.98 272.72,141.24 272.08,140.36 L273.54,139.68 Z M257.96,137.32 C258.76,137.3 259.52,137.26 259.9,137.22 C261.56,137.08 264.84,136.78 268.46,136.46 C270.5,136.3 272.66,136.18 274.06,136.12 L274.08,138.68 C273.02,138.68 271.32,138.7 270.26,138.94 C267.86,139.58 266.08,142.14 266.08,144.48 C266.08,147.74 269.12,148.92 272.48,149.08 L271.56,151.82 C267.4,151.56 263.48,149.32 263.48,145.02 C263.48,142.16 265.06,139.92 266.4,138.92 C264.68,139.1 260.52,139.54 258.22,140.04 L257.96,137.32 Z M80.54,177.26 L80.54,179.68 C81.38,179.52 82.26,179.32 83.18,179.14 L83.18,177.26 L80.54,177.26 Z M83.18,169.02 L80.54,169.02 L80.54,171.04 L83.18,171.04 L83.18,169.02 Z M83.18,175.18 L83.18,173.12 L80.54,173.12 L80.54,175.18 L83.18,175.18 Z M95.2,170.36 L95.2,171.42 C95.02,179.62 94.84,182.56 94.18,183.48 C93.72,184.16 93.24,184.38 92.52,184.5 C91.88,184.62 90.84,184.6 89.8,184.56 C89.76,183.92 89.52,182.92 89.1,182.3 C90.08,182.36 90.98,182.38 91.42,182.38 C91.74,182.38 91.94,182.32 92.12,182.04 C92.58,181.5 92.76,179.02 92.88,172.6 L90.76,172.6 C90.46,177.88 89.38,182.08 85.52,184.74 C85.16,184.16 84.42,183.36 83.86,182.94 C84.84,182.28 85.62,181.54 86.22,180.68 C83.16,181.44 79.88,182.2 77.44,182.78 L77.06,180.34 C77.46,180.26 77.94,180.18 78.44,180.08 L78.44,166.88 L85.38,166.88 L85.38,178.66 L86.24,178.48 L86.46,180.36 C87.8,178.28 88.28,175.7 88.46,172.6 L85.92,172.6 L85.92,170.36 L88.54,170.36 C88.56,169 88.56,167.58 88.56,166.06 L90.9,166.06 C90.9,167.56 90.9,169 90.86,170.36 L95.2,170.36 Z M99.22,167.2 C99.22,167.7 99.2,168.36 99.1,168.92 C98.84,170.52 98.44,173.58 98.44,176.82 C98.44,179.28 99.16,182.04 99.58,183.24 L101.8,183.02 C101.78,182.74 101.76,182.4 101.74,182.2 C101.74,181.98 101.8,181.54 101.88,181.24 C102.12,180.12 102.64,178.12 103.22,176.4 L101.96,175.62 C101.64,176.34 101.3,177.3 101.04,177.9 C100.52,175.44 101.22,171.3 101.7,169.1 C101.78,168.68 102,167.98 102.16,167.5 L99.22,167.2 Z M114.88,170.68 C114.06,170.84 113.02,170.96 111.9,171.04 C111.9,169.96 111.9,168.94 111.92,168.5 C111.94,168.06 111.94,167.6 112.02,167.16 L109.12,167.16 C109.22,167.5 109.3,168.1 109.34,168.52 C109.38,169.06 109.42,170.08 109.44,171.18 C108.68,171.2 107.92,171.22 107.2,171.22 C106.14,171.22 105.18,171.16 104.2,171.02 L104.2,173.54 C105.18,173.58 106.4,173.64 107.26,173.64 C107.98,173.64 108.74,173.62 109.48,173.6 L109.48,174.32 C109.48,177.66 109.16,179.42 107.64,181 C107.08,181.62 106.08,182.24 105.32,182.58 L107.62,184.38 C111.56,181.86 111.92,179 111.92,174.32 L111.92,173.5 C113.04,173.44 114.06,173.36 114.86,173.26 L114.88,170.68 Z M125.44,175.12 L125.44,175.16 C125.44,176.38 125.52,177.46 125.66,178.44 C126.62,177.48 127.5,176.28 128.16,174.68 C127.12,174.7 126.2,174.88 125.44,175.12 Z M121.66,180.76 C122.22,180.76 122.9,180.54 123.64,180.12 C123.42,178.88 123.26,177.52 123.22,176.16 C121.74,177.16 120.74,178.68 120.74,179.8 C120.74,180.42 121.02,180.76 121.66,180.76 Z M129,171.48 L131.44,172.04 C131.34,172.26 131.2,172.68 131.08,173.06 C133.38,173.82 134.9,175.6 134.9,177.92 C134.9,180.7 133.24,183.44 128.38,184.16 L127.06,182.08 C130.88,181.66 132.44,179.74 132.44,177.8 C132.44,176.6 131.74,175.54 130.4,175.02 C129.3,177.72 127.72,179.78 126.22,181.02 C126.36,181.54 126.52,182.02 126.68,182.5 L124.4,183.18 C124.32,182.94 124.22,182.66 124.14,182.38 C123.18,182.86 122.12,183.18 121.08,183.18 C119.62,183.18 118.4,182.3 118.4,180.28 C118.4,177.76 120.5,175.08 123.26,173.78 C123.32,172.94 123.38,172.1 123.46,171.3 L122.82,171.3 C121.78,171.3 120.24,171.22 119.32,171.18 L119.24,168.88 C119.94,168.98 121.68,169.14 122.9,169.14 L123.66,169.14 L123.78,168.08 C123.82,167.72 123.86,167.24 123.84,166.9 L126.44,166.96 C126.3,167.36 126.22,167.72 126.16,168.02 C126.08,168.34 126.02,168.7 125.96,169.08 C128.36,169 130.5,168.76 132.68,168.24 L132.7,170.52 C130.76,170.88 128.1,171.12 125.66,171.24 C125.6,171.82 125.54,172.42 125.52,173.02 C126.46,172.8 127.5,172.66 128.48,172.66 L128.82,172.66 C128.9,172.26 128.98,171.76 129,171.48 Z M139.44,174.5 L140.46,177.1 C142.16,176.38 146.1,174.74 148.4,174.74 C150.12,174.74 151.24,175.78 151.24,177.26 C151.24,179.96 147.88,181.14 143.38,181.26 L144.42,183.72 C150.72,183.34 153.86,180.88 153.86,177.3 C153.86,174.3 151.76,172.44 148.64,172.44 C146.24,172.44 142.88,173.58 141.54,173.98 C140.94,174.18 140.02,174.4 139.44,174.5 Z M158.02,169.28 L158.26,172 C160.56,171.5 164.74,171.06 166.44,170.88 C165.12,171.88 163.52,174.12 163.52,176.98 C163.52,181.26 167.44,183.5 171.6,183.78 L172.52,181.04 C169.18,180.86 166.12,179.7 166.12,176.44 C166.12,174.1 167.92,171.54 170.3,170.9 C171.36,170.66 173.06,170.64 174.12,170.64 L174.1,168.08 C172.72,168.14 170.54,168.26 168.5,168.42 C164.88,168.74 161.6,169.02 159.96,169.18 C159.56,169.22 158.8,169.26 158.02,169.28 Z M187.26,169.84 L185.32,171.06 C184.84,170.04 183.7,168.44 182.72,167.32 L184.54,166.22 C185.52,167.32 186.74,168.8 187.26,169.84 Z M179.68,166.36 L182.02,167.04 C181.24,168.9 179.9,170.86 178.68,172.08 C178.26,171.66 177.34,170.82 176.78,170.46 C177.96,169.48 179.06,167.9 179.68,166.36 Z M185.86,176.74 L185.86,182.28 C189.04,179.8 189.74,175.8 189.74,173.84 L189.74,171.58 L189.34,171.58 C188.88,172.9 188.34,174.06 187.7,174.98 C187.48,174.8 187.1,174.54 186.72,174.3 C186.94,174.62 187.14,174.96 187.3,175.26 L185.86,176.74 Z M183.64,181.28 L183.64,178.44 L180.98,178.44 L180.98,181.28 L183.64,181.28 Z M180.06,176.32 L185.14,176.32 C184.56,175.24 183.64,173.92 182.68,172.92 C182,173.98 181.14,175.16 180.06,176.32 Z M192.06,171.58 L192.06,173.86 C192.06,175.9 192.86,180.26 196.24,182.68 C195.82,183.18 195.14,184.18 194.78,184.78 C192.34,183.08 191.16,179.64 190.9,177.92 C190.62,179.68 189.3,182.98 186.52,184.78 C186.34,184.42 185.98,183.86 185.64,183.38 L180.98,183.38 L180.98,184.52 L178.78,184.52 L178.78,177.54 C178.64,177.68 178.5,177.8 178.34,177.92 C178,177.38 177.3,176.54 176.78,176.16 C178.96,174.54 180.44,172.36 181.26,170.52 L183.4,170.52 C184.24,171.3 185.14,172.26 185.9,173.18 C187.06,171.44 187.78,168.76 188.12,166.06 L190.56,166.4 C190.4,167.44 190.22,168.44 189.98,169.42 L193.98,169.42 L194.34,169.34 L195.9,169.74 C195.62,171.64 195.2,173.82 194.8,175.2 L192.94,174.66 C193.12,173.86 193.3,172.72 193.46,171.58 L192.06,171.58 Z M200.76,167.16 C200.94,167.94 201.02,168.9 201.02,169.84 C201.02,171.54 200.82,176.74 200.82,179.4 C200.82,182.78 202.92,184.2 206.16,184.2 C210.68,184.2 213.48,181.56 214.76,179.68 L212.96,177.46 C211.54,179.62 209.46,181.5 206.18,181.5 C204.66,181.5 203.46,180.86 203.46,178.86 C203.46,176.4 203.6,171.96 203.7,169.84 C203.72,169.04 203.82,168.04 203.96,167.2 L200.76,167.16 Z M221.74,168.76 L218.7,168.72 C218.82,169.32 218.84,170.16 218.84,170.72 C218.84,171.94 218.88,174.24 219.06,176.06 C219.62,181.38 221.52,183.34 223.68,183.34 C225.28,183.34 226.52,182.12 227.84,178.68 L225.84,176.28 C225.46,177.84 224.68,180.16 223.74,180.16 C222.5,180.16 221.9,178.22 221.62,175.36 C221.5,173.94 221.48,172.44 221.5,171.16 C221.5,170.62 221.6,169.46 221.74,168.76 Z M231.64,169.18 L229.12,170.02 C231.28,172.46 232.34,177.12 232.64,180.3 L235.26,179.3 C235.04,176.26 233.52,171.48 231.64,169.18 Z" id="仕事をひとりで-抱え込まないで社員同士で" fill="#222222"></path>
        </g>
    </g>
</svg>