<?xml version="1.0" encoding="UTF-8"?>
<svg width="312px" height="210px" viewBox="0 0 312 210" version="1.1" xmlns="http://www.w3.org/2000/svg" xmlns:xlink="http://www.w3.org/1999/xlink">
    <!-- Generator: Sketch 42 (36781) - http://www.bohemiancoding.com/sketch -->
    <title>Group 9</title>
    <desc>Created with Sketch.</desc>
    <defs></defs>
    <g id="Page-1" stroke="none" stroke-width="1" fill="none" fill-rule="evenodd">
        <g id="Group-9">
            <polygon id="Triangle-2" fill="#FFFFFF" points="156 10 312 210 0 210"></polygon>
            <path d="M136.92,66 L173.1,66 L173.1,59.16 L159.87,59.16 L159.87,0.03 L153.57,0.03 C149.97,2.1 145.74,3.63 139.89,4.71 L139.89,9.93 L151.59,9.93 L151.59,59.16 L136.92,59.16 L136.92,66 Z" id="1-copy" fill="#EB0028"></path>
            <path d="M66,111.36 L64.56,113.3 C64.14,112.74 63.46,111.94 62.78,111.2 L62.78,118.74 L60.42,118.74 L60.42,111.84 C59.62,112.58 58.78,113.24 57.94,113.76 C57.74,113.12 57.18,111.96 56.82,111.5 C59,110.32 61.1,108.22 62.42,105.9 L57.58,105.9 L57.58,103.76 L60.42,103.76 L60.42,100.08 L62.78,100.08 L62.78,103.76 L63.68,103.76 L64.1,103.66 L65.44,104.52 C64.84,106.04 64.04,107.48 63.08,108.8 C64.04,109.58 65.58,110.96 66,111.36 Z M71.76,115.84 L76.02,115.84 L76.02,118.16 L64.7,118.16 L64.7,115.84 L69.32,115.84 L69.32,108.52 L65.52,108.52 L65.52,106.22 L69.32,106.22 L69.32,100.24 L71.76,100.24 L71.76,106.22 L75.54,106.22 L75.54,108.52 L71.76,108.52 L71.76,115.84 Z M90.58,103.84 L90.58,102.54 L82.5,102.54 L82.5,103.84 L90.58,103.84 Z M93.12,100.68 L93.12,105.68 L80.1,105.68 L80.1,100.68 L93.12,100.68 Z M81.56,112.78 L81.56,113.66 L91.36,113.66 L91.36,112.78 L81.56,112.78 Z M81.56,110.4 L81.56,111.26 L91.36,111.26 L91.36,110.4 L81.56,110.4 Z M81.56,108.04 L81.56,108.9 L91.36,108.9 L91.36,108.04 L81.56,108.04 Z M93.82,115.28 L90.66,115.28 C92.52,115.84 94.56,116.56 95.94,117.1 L93.84,118.78 C92.3,118.06 89.54,117.08 87.42,116.46 L89.08,115.28 L83.66,115.28 L85.18,116.34 C83.56,117.28 81,118.24 78.98,118.74 C78.54,118.24 77.72,117.5 77.18,117.04 C78.9,116.66 80.94,115.96 82.3,115.28 L79.2,115.28 L79.2,106.42 L93.82,106.42 L93.82,115.28 Z M105.46,103.04 L105.48,105.6 C107.96,105.82 111.54,105.82 113.98,105.6 L113.98,103.04 C111.84,103.3 107.9,103.38 105.46,103.04 Z M104.78,111.3 C104.58,112.22 104.44,113.06 104.44,113.88 C104.44,115.9 106.06,117.14 109.48,117.14 C111.72,117.14 113.32,116.98 114.6,116.74 L114.54,114.06 C112.82,114.42 111.36,114.58 109.58,114.58 C107.58,114.58 106.82,114.06 106.82,113.18 C106.82,112.64 106.9,112.16 107.06,111.52 L104.78,111.3 Z M99.64,101.5 C99.64,102.12 99.52,102.88 99.44,103.44 C99.22,104.96 98.62,108.3 98.62,111.28 C98.62,113.96 99,116.38 99.4,117.76 L101.68,117.6 C101.66,117.32 101.66,117 101.64,116.78 C101.64,116.58 101.7,116.14 101.76,115.86 C101.96,114.8 102.62,112.66 103.18,111 L101.94,110.04 C101.66,110.68 101.34,111.34 101.06,112.04 C101,111.62 100.98,111.14 100.98,110.76 C100.98,108.78 101.66,104.82 101.94,103.5 C102.02,103.14 102.26,102.14 102.42,101.74 L99.64,101.5 Z M133.72,103.48 C134.34,103.48 134.86,102.96 134.86,102.34 C134.86,101.7 134.34,101.18 133.72,101.18 C133.08,101.18 132.56,101.7 132.56,102.34 C132.56,102.96 133.08,103.48 133.72,103.48 Z M120.96,102.8 L130.22,102.8 C130.5,102.8 130.92,102.78 131.36,102.72 C131.34,102.6 131.32,102.48 131.32,102.34 C131.32,101.02 132.4,99.94 133.72,99.94 C135.02,99.94 136.1,101.02 136.1,102.34 C136.1,103.64 135.02,104.72 133.72,104.72 C133.64,104.72 133.54,104.72 133.46,104.7 L133.3,105.3 C132.84,107.26 131.98,110.36 130.3,112.58 C128.5,114.98 125.84,116.96 122.26,118.1 L120.08,115.72 C124.06,114.78 126.3,113.06 127.92,111.02 C129.24,109.36 130,107.1 130.28,105.38 L120.96,105.38 C120.04,105.38 119.1,105.42 118.58,105.46 L118.58,102.64 C119.16,102.72 120.3,102.8 120.96,102.8 Z M152.8,106.36 C152.52,106.48 151.98,106.56 151.34,106.56 L141.44,106.56 C140.82,106.56 139.96,106.52 139.12,106.44 L139.12,109.04 C139.96,108.96 140.96,108.94 141.44,108.94 L151.1,108.94 C150.74,110.06 150.12,111.3 149.04,112.4 C147.52,113.96 145.12,115.28 142.1,115.9 L144.1,118.16 C146.66,117.44 149.22,116.08 151.24,113.84 C152.74,112.18 153.6,110.24 154.2,108.3 C154.28,108.08 154.44,107.72 154.58,107.46 L152.8,106.36 Z M140.96,104.24 C141.54,104.2 142.4,104.18 143.04,104.18 L150.7,104.18 C151.42,104.18 152.36,104.2 152.9,104.24 L152.9,101.66 C152.34,101.74 151.36,101.76 150.74,101.76 L143.04,101.76 C142.36,101.76 141.52,101.74 140.96,101.66 L140.96,104.24 Z M168.9,107.08 C170.88,105.8 172.68,104.3 174.2,102.78 L172.06,100.84 C170.94,102.32 168.86,104.1 166.84,105.36 C164.6,106.74 161.24,108.22 157.74,108.98 L159.18,111.42 C161.5,110.78 164,109.74 166.06,108.7 L166.06,115.26 C166.06,116.14 166,117.4 165.92,117.88 L169.08,117.88 C168.94,117.38 168.9,116.14 168.9,115.26 L168.9,107.08 Z M190.68,103.14 C191.24,103.98 192.12,105.42 192.56,106.34 L190.76,107.12 C190.18,105.86 189.68,104.9 188.94,103.86 L190.68,103.14 Z M193.36,102.04 C193.94,102.84 194.84,104.26 195.3,105.16 L193.56,106 C192.92,104.74 192.38,103.82 191.64,102.82 L193.36,102.04 Z M177.22,111.32 C177.82,110.82 178.26,110.4 178.86,109.8 C179.78,108.88 181.34,106.92 182.7,105.28 C183.9,103.86 184.98,103.72 186.62,105.1 C187.96,106.24 189.46,107.82 190.7,109.16 C192.04,110.62 194.18,112.9 195.62,114.56 L193.48,116.88 C192.2,115.24 190.38,113.02 189.2,111.64 C187.96,110.16 186.26,108.3 185.52,107.68 C184.82,107.08 184.48,107.08 183.9,107.8 C183.12,108.8 181.68,110.78 180.86,111.88 C180.4,112.5 179.92,113.22 179.58,113.74 L177.22,111.32 Z M198.34,110.88 C199.08,110.82 200.42,110.78 201.56,110.78 L212.3,110.78 C213.14,110.78 214.16,110.86 214.64,110.88 L214.64,107.74 C214.12,107.78 213.22,107.86 212.3,107.86 L201.56,107.86 C200.52,107.86 199.06,107.8 198.34,107.74 L198.34,110.88 Z M233.88,109.64 C232.04,108.74 228.2,107.32 225.52,106.54 L225.52,103.6 C225.52,102.76 225.62,101.88 225.7,101.18 L222.58,101.18 C222.72,101.88 222.78,102.88 222.78,103.6 L222.78,115.08 C222.78,115.88 222.7,117.08 222.58,117.86 L225.7,117.86 C225.62,117.06 225.52,115.66 225.52,115.08 L225.52,109.42 C227.68,110.16 230.68,111.32 232.74,112.4 L233.88,109.64 Z M251.3,106.6 C251.78,107.32 252.52,108.52 252.9,109.32 L251.38,110 C250.88,108.9 250.46,108.12 249.82,107.22 L251.3,106.6 Z M253.54,105.68 C254.04,106.38 254.8,107.56 255.22,108.34 L253.72,109.06 C253.18,107.98 252.72,107.24 252.08,106.36 L253.54,105.68 Z M237.96,103.32 C238.76,103.3 239.52,103.26 239.9,103.22 C241.56,103.08 244.84,102.78 248.46,102.46 C250.5,102.3 252.66,102.18 254.06,102.12 L254.08,104.68 C253.02,104.68 251.32,104.7 250.26,104.94 C247.86,105.58 246.08,108.14 246.08,110.48 C246.08,113.74 249.12,114.92 252.48,115.08 L251.56,117.82 C247.4,117.56 243.48,115.32 243.48,111.02 C243.48,108.16 245.06,105.92 246.4,104.92 C244.68,105.1 240.52,105.54 238.22,106.04 L237.96,103.32 Z M37.24,135.46 L33.24,135.46 C32.8,136.02 32.32,136.6 31.82,137.14 L36.14,137.14 C36.52,136.64 36.9,136.04 37.24,135.46 Z M41.7,141.9 L41.7,139.28 L37.84,139.28 L37.84,141.9 L41.7,141.9 Z M31.92,139.28 L31.92,141.9 L35.48,141.9 L35.48,139.28 L31.92,139.28 Z M34.42,148.34 L41.06,148.34 C42.9,148.34 43.22,147.94 43.48,145.74 C44.08,146.1 45.12,146.46 45.8,146.6 C45.38,149.66 44.52,150.56 41.24,150.56 L34.44,150.56 C30.64,150.56 29.52,149.82 29.52,146.88 L29.52,139.32 C29.24,139.56 28.96,139.78 28.66,140 C28.26,139.44 27.5,138.62 26.94,138.24 C29.64,136.42 31.6,134.04 32.68,131.96 L35.26,132.46 C35.06,132.78 34.88,133.1 34.66,133.42 L38.54,133.42 L39,133.28 L40.6,134.34 C40.14,135.24 39.54,136.24 38.92,137.14 L44.14,137.14 L44.14,144.82 L41.7,144.82 L41.7,144.02 L31.92,144.02 L31.92,146.86 C31.92,148.14 32.26,148.34 34.42,148.34 Z M62.06,136.76 L61.62,136.86 L55.74,136.86 C56.22,135.76 56.62,134.68 56.98,133.62 L54.32,133.02 C53.32,136.64 51.14,141.18 48.14,143.84 C48.82,144.14 49.88,144.76 50.44,145.18 C52.08,143.62 53.48,141.5 54.64,139.24 L60.36,139.24 C59.68,140.82 58.7,142.62 57.64,144.1 C56.58,143.54 55.5,143.02 54.52,142.6 L53.04,144.6 C55.76,145.86 59.08,147.94 60.58,149.54 L62.24,147.26 C61.64,146.66 60.8,146.04 59.86,145.42 C61.48,143.1 63.04,140.18 63.9,137.74 L62.06,136.76 Z M85.38,138.08 L83.98,140.18 C82.84,139.26 80.58,137.96 79.22,137.36 L80.5,135.4 C81.92,136.02 84.38,137.36 85.38,138.08 Z M77.92,135.04 L77.98,137.34 C77.08,137.58 75.86,137.84 74.54,138.02 C73.6,140.8 71.9,144.24 70.3,146.5 L67.88,145.28 C69.48,143.34 71.04,140.42 71.92,138.28 C71.58,138.3 71.24,138.3 70.9,138.3 C70.08,138.3 69.28,138.28 68.42,138.24 L68.24,135.92 C69.1,136.02 70.16,136.06 70.88,136.06 C71.46,136.06 72.06,136.04 72.66,136 C72.94,134.9 73.16,133.7 73.2,132.68 L75.94,132.96 C75.78,133.6 75.54,134.6 75.26,135.66 C76.22,135.5 77.14,135.28 77.92,135.04 Z M78.4,146.06 L78.4,145.68 C77.88,145.56 77.36,145.48 76.8,145.48 C75.66,145.48 74.92,145.96 74.92,146.66 C74.92,147.4 75.54,147.9 76.62,147.9 C77.96,147.9 78.4,147.12 78.4,146.06 Z M78.08,139.12 L80.58,139.12 C80.52,139.96 80.56,140.78 80.58,141.66 C80.6,142.22 80.64,143.18 80.7,144.16 C82.4,144.8 83.8,145.8 84.8,146.7 L83.48,148.82 C82.78,148.18 81.88,147.38 80.8,146.72 L80.8,146.9 C80.8,148.74 79.8,150.18 76.98,150.18 C74.52,150.18 72.58,149.08 72.58,146.9 C72.58,144.96 74.2,143.46 76.96,143.46 C77.42,143.46 77.88,143.5 78.3,143.54 C78.24,142.06 78.14,140.32 78.08,139.12 Z M90.9,137.14 C92.52,137.26 94.24,137.36 96.32,137.36 C98.2,137.36 100.66,137.22 102.04,137.12 L102.04,134.46 C100.52,134.62 98.26,134.74 96.3,134.74 C94.22,134.74 92.38,134.66 90.9,134.5 L90.9,137.14 Z M89.98,142.66 C89.82,143.4 89.58,144.36 89.58,145.52 C89.58,148.24 91.86,149.76 96.4,149.76 C99.18,149.76 101.56,149.5 103.28,149.08 L103.26,146.3 C101.5,146.78 98.98,147.08 96.3,147.08 C93.44,147.08 92.24,146.16 92.24,144.9 C92.24,144.24 92.4,143.62 92.58,142.9 L89.98,142.66 Z M121.32,135.06 C120.82,135.48 120.24,135.82 119.5,136.26 C118.56,136.78 116.84,137.66 115.22,138.6 C114.42,137.08 113.5,135.18 112.74,133.12 L110.24,134.14 C111.14,136.24 112.1,138.34 113.02,140.04 C111.12,141.44 109.74,143.06 109.74,145.26 C109.74,148.66 112.72,149.76 116.66,149.76 C119.24,149.76 121.34,149.56 123.02,149.28 L123.06,146.42 C121.3,146.82 118.62,147.14 116.58,147.14 C113.84,147.14 112.46,146.38 112.46,144.96 C112.46,143.58 113.56,142.44 115.22,141.36 C117.02,140.2 119.5,139.04 120.74,138.42 C121.46,138.06 122.1,137.72 122.7,137.36 L121.32,135.06 Z M135.46,135.04 L135.48,137.6 C137.96,137.82 141.54,137.82 143.98,137.6 L143.98,135.04 C141.84,135.3 137.9,135.38 135.46,135.04 Z M134.78,143.3 C134.58,144.22 134.44,145.06 134.44,145.88 C134.44,147.9 136.06,149.14 139.48,149.14 C141.72,149.14 143.32,148.98 144.6,148.74 L144.54,146.06 C142.82,146.42 141.36,146.58 139.58,146.58 C137.58,146.58 136.82,146.06 136.82,145.18 C136.82,144.64 136.9,144.16 137.06,143.52 L134.78,143.3 Z M129.64,133.5 C129.64,134.12 129.52,134.88 129.44,135.44 C129.22,136.96 128.62,140.3 128.62,143.28 C128.62,145.96 129,148.38 129.4,149.76 L131.68,149.6 C131.66,149.32 131.66,149 131.64,148.78 C131.64,148.58 131.7,148.14 131.76,147.86 C131.96,146.8 132.62,144.66 133.18,143 L131.94,142.04 C131.66,142.68 131.34,143.34 131.06,144.04 C131,143.62 130.98,143.14 130.98,142.76 C130.98,140.78 131.66,136.82 131.94,135.5 C132.02,135.14 132.26,134.14 132.42,133.74 L129.64,133.5 Z M158.16,139.54 L158.16,136.36 C159.36,136.18 160.54,135.96 161.52,135.7 C161.86,135.62 162.38,135.48 163.06,135.32 L161.42,133.12 C160.42,133.58 158.38,134.04 156.38,134.32 C154.18,134.64 151.08,134.68 149.56,134.64 L150.18,136.96 C151.52,136.92 153.62,136.86 155.54,136.7 L155.54,139.54 L149.9,139.54 C149.28,139.54 148.6,139.48 148.06,139.42 L148.06,142 C148.58,141.96 149.32,141.92 149.94,141.92 L155.44,141.92 C155.06,144.88 153.46,147.02 150.42,148.42 L152.96,150.14 C156.34,148.12 157.78,145.28 158.08,141.92 L163.26,141.92 C163.8,141.92 164.48,141.96 165.02,142 L165.02,139.42 C164.58,139.46 163.62,139.54 163.2,139.54 L158.16,139.54 Z M179.84,145.64 C181.24,144.14 183.26,141.14 184.1,139.38 L182.5,138.24 C182.22,138.38 181.84,138.5 181.48,138.56 C180.7,138.74 177.9,139.28 175.36,139.76 L174.82,137.82 C174.7,137.3 174.58,136.78 174.5,136.3 L171.82,136.94 C172.04,137.36 172.24,137.84 172.38,138.36 C172.52,138.8 172.7,139.44 172.9,140.22 C171.98,140.4 171.26,140.52 170.98,140.56 C170.32,140.68 169.78,140.74 169.14,140.8 L169.76,143.2 C170.36,143.06 171.82,142.76 173.5,142.4 C174.22,145.14 175.04,148.24 175.34,149.32 C175.5,149.88 175.64,150.54 175.7,151.06 L178.42,150.4 C178.26,150 178,149.12 177.88,148.76 C177.56,147.72 176.72,144.64 175.96,141.9 C178.12,141.44 180.1,141.04 180.58,140.94 C180.04,141.92 178.66,143.62 177.64,144.54 L179.84,145.64 Z M192.28,149.84 C192.76,149.54 193.2,149.4 193.48,149.3 C198.18,147.76 202.34,145.38 205.08,142.1 L203.66,139.84 C201.1,142.96 196.64,145.52 193.38,146.44 L193.38,136.06 C193.38,135.28 193.46,134.56 193.58,133.8 L190.44,133.8 C190.56,134.36 190.66,135.3 190.66,136.06 L190.66,146.9 C190.66,147.36 190.64,147.7 190.4,148.2 L192.28,149.84 Z M211.32,133.8 C212.72,134.74 215.32,136.82 216.48,138.02 L214.44,140.12 C213.4,139 210.9,136.82 209.44,135.8 L211.32,133.8 Z M208.82,147.12 C211.94,146.68 214.54,145.66 216.48,144.5 C219.88,142.48 222.5,139.42 223.76,136.72 L225.32,139.54 C223.8,142.24 221.14,145 217.92,146.94 C215.9,148.16 213.32,149.28 210.5,149.76 L208.82,147.12 Z M241.08,133.64 C241.66,134.48 242.46,135.82 242.92,136.74 L241.18,137.48 C240.6,136.22 240.14,135.36 239.42,134.34 L241.08,133.64 Z M243.84,132.68 C244.46,133.48 245.24,134.78 245.72,135.66 L244.02,136.42 C243.38,135.16 242.88,134.38 242.14,133.38 L243.84,132.68 Z M232.4,133.26 C233.72,133.98 235.92,135.4 236.96,136.12 L235.48,138.32 C234.36,137.54 232.28,136.2 230.96,135.46 L232.4,133.26 Z M228.7,147.46 C230.94,147.08 233.34,146.4 235.5,145.2 C238.9,143.3 241.7,140.56 243.28,137.7 L244.82,140.42 C242.98,143.2 240.14,145.72 236.88,147.62 C234.84,148.76 231.96,149.76 230.2,150.08 L228.7,147.46 Z M229.32,137.82 C230.68,138.54 232.88,139.92 233.9,140.64 L232.44,142.88 C231.3,142.08 229.22,140.74 227.88,140.02 L229.32,137.82 Z M250.76,133.16 C250.94,133.94 251.02,134.9 251.02,135.84 C251.02,137.54 250.82,142.74 250.82,145.4 C250.82,148.78 252.92,150.2 256.16,150.2 C260.68,150.2 263.48,147.56 264.76,145.68 L262.96,143.46 C261.54,145.62 259.46,147.5 256.18,147.5 C254.66,147.5 253.46,146.86 253.46,144.86 C253.46,142.4 253.6,137.96 253.7,135.84 C253.72,135.04 253.82,134.04 253.96,133.2 L250.76,133.16 Z M268.02,135.28 L268.26,138 C270.56,137.5 274.74,137.06 276.44,136.88 C275.12,137.88 273.52,140.12 273.52,142.98 C273.52,147.26 277.44,149.5 281.6,149.78 L282.52,147.04 C279.18,146.86 276.12,145.7 276.12,142.44 C276.12,140.1 277.92,137.54 280.3,136.9 C281.36,136.66 283.06,136.64 284.12,136.64 L284.1,134.08 C282.72,134.14 280.54,134.26 278.5,134.42 C274.88,134.74 271.6,135.02 269.96,135.18 C269.56,135.22 268.8,135.26 268.02,135.28 Z M41.36,167.84 L41.36,166.98 L39.38,166.98 L39.38,167.84 L41.36,167.84 Z M41.36,170.18 L41.36,169.3 L39.38,169.3 L39.38,170.18 L41.36,170.18 Z M31.36,169.3 L31.36,170.18 L33.3,170.18 L33.3,169.3 L31.36,169.3 Z M31.36,166.98 L31.36,167.84 L33.3,167.84 L33.3,166.98 L31.36,166.98 Z M37.34,169.3 L35.3,169.3 L35.3,170.18 L37.34,170.18 L37.34,169.3 Z M37.34,166.98 L35.3,166.98 L35.3,167.84 L37.34,167.84 L37.34,166.98 Z M43.64,165.42 L43.64,171.76 L29.18,171.76 L29.18,165.42 L33.3,165.42 L33.3,164.06 L35.3,164.06 L35.3,165.42 L37.34,165.42 L37.34,164.06 L39.38,164.06 L39.38,165.42 L43.64,165.42 Z M45.22,172.42 L27.82,172.42 L27.82,174.1 L45.22,174.1 L45.22,172.42 Z M38.96,178.94 L34,178.94 C34.34,179.46 34.66,180.04 34.8,180.5 L34.38,180.64 L38.32,180.64 L38.04,180.54 C38.32,180.1 38.68,179.5 38.96,178.94 Z M32.32,176.3 L32.32,177.42 L40.52,177.42 L40.52,176.3 L32.32,176.3 Z M40.32,180.64 L45.4,180.64 L45.4,182.44 L27.6,182.44 L27.6,180.64 L32.46,180.64 C32.26,180.14 31.96,179.58 31.68,179.12 L32.32,178.94 L30.02,178.94 L30.02,174.78 L42.98,174.78 L42.98,178.94 L40.76,178.94 L41.28,179.12 C40.96,179.66 40.62,180.18 40.32,180.64 Z M52.8,164.96 L55.74,165.26 C55.62,165.78 55.48,166.4 55.38,166.9 C55.28,167.5 55.12,168.22 54.98,168.94 C55.64,168.9 56.24,168.86 56.64,168.86 C58.74,168.86 60.22,169.8 60.22,172.64 C60.22,174.98 59.94,178.14 59.1,179.86 C58.44,181.24 57.34,181.68 55.84,181.68 C55.08,181.68 54.14,181.56 53.48,181.4 L53.04,178.78 C53.8,179 54.94,179.2 55.46,179.2 C56.12,179.2 56.64,179 56.94,178.34 C57.5,177.24 57.76,174.88 57.76,172.92 C57.76,171.34 57.08,171.12 55.82,171.12 C55.5,171.12 55.02,171.16 54.46,171.2 C53.7,174.2 52.26,178.86 50.44,181.78 L47.84,180.74 C49.78,178.14 51.12,174.18 51.84,171.48 C51.14,171.56 50.52,171.64 50.14,171.7 C49.58,171.76 48.56,171.9 47.94,172 L47.72,169.32 C48.44,169.38 49.1,169.34 49.82,169.32 C50.44,169.3 51.38,169.24 52.38,169.16 C52.66,167.64 52.82,166.2 52.8,164.96 Z M60.18,168.12 L62.58,167.12 C63.78,168.82 65.44,172.6 66.04,174.48 L63.54,175.66 C63.02,173.46 61.6,169.88 60.18,168.12 Z M85.38,170.08 L83.98,172.18 C82.84,171.26 80.58,169.96 79.22,169.36 L80.5,167.4 C81.92,168.02 84.38,169.36 85.38,170.08 Z M77.92,167.04 L77.98,169.34 C77.08,169.58 75.86,169.84 74.54,170.02 C73.6,172.8 71.9,176.24 70.3,178.5 L67.88,177.28 C69.48,175.34 71.04,172.42 71.92,170.28 C71.58,170.3 71.24,170.3 70.9,170.3 C70.08,170.3 69.28,170.28 68.42,170.24 L68.24,167.92 C69.1,168.02 70.16,168.06 70.88,168.06 C71.46,168.06 72.06,168.04 72.66,168 C72.94,166.9 73.16,165.7 73.2,164.68 L75.94,164.96 C75.78,165.6 75.54,166.6 75.26,167.66 C76.22,167.5 77.14,167.28 77.92,167.04 Z M78.4,178.06 L78.4,177.68 C77.88,177.56 77.36,177.48 76.8,177.48 C75.66,177.48 74.92,177.96 74.92,178.66 C74.92,179.4 75.54,179.9 76.62,179.9 C77.96,179.9 78.4,179.12 78.4,178.06 Z M78.08,171.12 L80.58,171.12 C80.52,171.96 80.56,172.78 80.58,173.66 C80.6,174.22 80.64,175.18 80.7,176.16 C82.4,176.8 83.8,177.8 84.8,178.7 L83.48,180.82 C82.78,180.18 81.88,179.38 80.8,178.72 L80.8,178.9 C80.8,180.74 79.8,182.18 76.98,182.18 C74.52,182.18 72.58,181.08 72.58,178.9 C72.58,176.96 74.2,175.46 76.96,175.46 C77.42,175.46 77.88,175.5 78.3,175.54 C78.24,174.06 78.14,172.32 78.08,171.12 Z M97.78,179.84 L97.78,175.82 L103.76,175.82 L103.76,173.52 L97.78,173.52 L97.78,170 L104.52,170 L104.52,167.68 L97.78,167.68 L97.78,164.08 L95.28,164.08 L95.28,167.68 L92.2,167.68 C92.54,166.76 92.86,165.82 93.14,164.86 L90.68,164.32 C90,167.04 88.7,169.8 87.14,171.48 C87.74,171.8 88.8,172.52 89.28,172.9 C89.94,172.12 90.56,171.1 91.14,170 L95.28,170 L95.28,173.52 L89.86,173.52 L89.86,175.82 L95.28,175.82 L95.28,179.84 L87.56,179.84 L87.56,182.18 L105.54,182.18 L105.54,179.84 L97.78,179.84 Z M113.26,166.32 L111.84,168.24 C111.06,167.64 109.36,166.7 108.2,166.04 L109.54,164.32 C110.66,164.88 112.4,165.76 113.26,166.32 Z M112.3,171.72 C111.42,171.18 109.64,170.32 108.54,169.78 L107.26,171.54 C108.44,172.18 110.16,173.12 110.98,173.7 L112.3,171.72 Z M109.54,182.52 C110.76,180.58 112.02,178.3 113.08,176.2 L111.34,174.6 C110.14,176.92 108.6,179.4 107.54,180.9 L109.54,182.52 Z M122.52,179.76 L122.52,176.82 L116.5,176.82 L116.5,179.76 L122.52,179.76 Z M125.78,172.14 L120.7,172.14 L120.7,174.66 L124.78,174.66 L124.78,182.64 L122.52,182.64 L122.52,181.92 L116.5,181.92 L116.5,182.74 L114.36,182.74 L114.36,174.66 L118.44,174.66 L118.44,172.14 L113.12,172.14 L113.12,169.86 L118.44,169.86 L118.44,167.52 C117.12,167.72 115.8,167.86 114.54,167.98 C114.46,167.4 114.14,166.48 113.88,165.94 C117.28,165.6 121.02,164.94 123.22,164.06 L125.06,165.94 C123.76,166.44 122.28,166.82 120.7,167.12 L120.7,169.86 L125.78,169.86 L125.78,172.14 Z M138.96,178.12 C138.94,177.22 138.9,175.76 138.88,174.66 C140.1,174.1 141.22,173.66 142.1,173.32 C142.78,173.04 143.82,172.64 144.46,172.48 L143.46,170.18 C142.74,170.52 142.04,170.86 141.28,171.2 C140.46,171.56 139.62,171.9 138.6,172.38 C138.16,171.36 137.16,170.84 135.96,170.84 C135.3,170.84 134.24,170.98 133.72,171.24 C134.14,170.66 134.54,169.94 134.86,169.24 C136.98,169.16 139.42,169 141.32,168.72 L141.34,166.4 C139.6,166.72 137.6,166.88 135.74,166.98 C135.98,166.18 136.12,165.5 136.22,165.02 L133.62,164.8 C133.6,165.36 133.46,166.16 133.22,167.06 L132.26,167.06 C131.26,167.06 129.78,167 128.78,166.84 L128.78,169.16 C129.86,169.26 131.32,169.3 132.12,169.3 L132.36,169.3 C131.48,171.06 130.08,172.82 128,174.74 L130.12,176.32 C130.8,175.46 131.36,174.74 131.96,174.14 C132.72,173.42 133.94,172.78 135.06,172.78 C135.6,172.78 136.12,172.96 136.44,173.46 C134.18,174.62 131.78,176.22 131.78,178.74 C131.78,181.3 134.12,182.04 137.22,182.04 C139.08,182.04 141.5,181.88 142.82,181.72 L142.9,179.14 C141.16,179.5 138.96,179.72 137.28,179.72 C135.34,179.72 134.4,179.42 134.4,178.32 C134.4,177.34 135.2,176.56 136.66,175.76 C136.64,176.62 136.62,177.54 136.58,178.12 L138.96,178.12 Z M165.56,173.74 L160.76,173.74 C161.64,175.62 163.24,176.94 165.62,177.56 C165.12,178.02 164.44,178.94 164.12,179.56 C161.86,178.78 160.32,177.4 159.3,175.44 C158.5,176.94 157.04,178.4 154.44,179.52 C154.14,179.02 153.4,178.2 152.86,177.8 C155.9,176.68 157.06,175.18 157.5,173.74 L152.86,173.74 L152.86,171.6 L157.76,171.6 L157.76,169.68 L153.54,169.68 L153.54,167.58 L155.54,167.58 C155.22,166.78 154.66,165.74 154.06,164.92 L156.08,164.08 C156.82,165 157.56,166.24 157.82,167.12 L156.76,167.58 L161.22,167.58 L160.2,167.22 C160.78,166.34 161.48,165.02 161.86,164.06 L164.3,164.8 C163.66,165.82 162.98,166.82 162.4,167.58 L164.9,167.58 L164.9,169.68 L160.14,169.68 L160.14,171.6 L165.56,171.6 L165.56,173.74 Z M152.56,167.54 C151.88,166.6 150.42,165.36 149.22,164.52 L147.46,165.96 C148.64,166.84 150.06,168.16 150.68,169.12 L152.56,167.54 Z M152.06,171.82 L152.06,178.1 C152.88,179.44 154.38,179.98 156.46,180.06 C158.8,180.16 163.3,180.1 165.96,179.9 C165.7,180.46 165.34,181.62 165.22,182.3 C162.82,182.42 158.8,182.46 156.42,182.36 C153.96,182.26 152.32,181.7 151.02,180.14 C150.14,180.92 149.26,181.7 148.16,182.54 L147,180.06 C147.86,179.56 148.86,178.9 149.74,178.22 L149.74,174 L147.44,174 L147.44,171.82 L152.06,171.82 Z M169.44,172.5 L170.46,175.1 C172.16,174.38 176.1,172.74 178.4,172.74 C180.12,172.74 181.24,173.78 181.24,175.26 C181.24,177.96 177.88,179.14 173.38,179.26 L174.42,181.72 C180.72,181.34 183.86,178.88 183.86,175.3 C183.86,172.3 181.76,170.44 178.64,170.44 C176.24,170.44 172.88,171.58 171.54,171.98 C170.94,172.18 170.02,172.4 169.44,172.5 Z M188.02,167.28 L188.26,170 C190.56,169.5 194.74,169.06 196.44,168.88 C195.12,169.88 193.52,172.12 193.52,174.98 C193.52,179.26 197.44,181.5 201.6,181.78 L202.52,179.04 C199.18,178.86 196.12,177.7 196.12,174.44 C196.12,172.1 197.92,169.54 200.3,168.9 C201.36,168.66 203.06,168.64 204.12,168.64 L204.1,166.08 C202.72,166.14 200.54,166.26 198.5,166.42 C194.88,166.74 191.6,167.02 189.96,167.18 C189.56,167.22 188.8,167.26 188.02,167.28 Z M217.26,167.84 L215.32,169.06 C214.84,168.04 213.7,166.44 212.72,165.32 L214.54,164.22 C215.52,165.32 216.74,166.8 217.26,167.84 Z M209.68,164.36 L212.02,165.04 C211.24,166.9 209.9,168.86 208.68,170.08 C208.26,169.66 207.34,168.82 206.78,168.46 C207.96,167.48 209.06,165.9 209.68,164.36 Z M215.86,174.74 L215.86,180.28 C219.04,177.8 219.74,173.8 219.74,171.84 L219.74,169.58 L219.34,169.58 C218.88,170.9 218.34,172.06 217.7,172.98 C217.48,172.8 217.1,172.54 216.72,172.3 C216.94,172.62 217.14,172.96 217.3,173.26 L215.86,174.74 Z M213.64,179.28 L213.64,176.44 L210.98,176.44 L210.98,179.28 L213.64,179.28 Z M210.06,174.32 L215.14,174.32 C214.56,173.24 213.64,171.92 212.68,170.92 C212,171.98 211.14,173.16 210.06,174.32 Z M222.06,169.58 L222.06,171.86 C222.06,173.9 222.86,178.26 226.24,180.68 C225.82,181.18 225.14,182.18 224.78,182.78 C222.34,181.08 221.16,177.64 220.9,175.92 C220.62,177.68 219.3,180.98 216.52,182.78 C216.34,182.42 215.98,181.86 215.64,181.38 L210.98,181.38 L210.98,182.52 L208.78,182.52 L208.78,175.54 C208.64,175.68 208.5,175.8 208.34,175.92 C208,175.38 207.3,174.54 206.78,174.16 C208.96,172.54 210.44,170.36 211.26,168.52 L213.4,168.52 C214.24,169.3 215.14,170.26 215.9,171.18 C217.06,169.44 217.78,166.76 218.12,164.06 L220.56,164.4 C220.4,165.44 220.22,166.44 219.98,167.42 L223.98,167.42 L224.34,167.34 L225.9,167.74 C225.62,169.64 225.2,171.82 224.8,173.2 L222.94,172.66 C223.12,171.86 223.3,170.72 223.46,169.58 L222.06,169.58 Z M230.76,165.16 C230.94,165.94 231.02,166.9 231.02,167.84 C231.02,169.54 230.82,174.74 230.82,177.4 C230.82,180.78 232.92,182.2 236.16,182.2 C240.68,182.2 243.48,179.56 244.76,177.68 L242.96,175.46 C241.54,177.62 239.46,179.5 236.18,179.5 C234.66,179.5 233.46,178.86 233.46,176.86 C233.46,174.4 233.6,169.96 233.7,167.84 C233.72,167.04 233.82,166.04 233.96,165.2 L230.76,165.16 Z M251.74,166.76 L248.7,166.72 C248.82,167.32 248.84,168.16 248.84,168.72 C248.84,169.94 248.88,172.24 249.06,174.06 C249.62,179.38 251.52,181.34 253.68,181.34 C255.28,181.34 256.52,180.12 257.84,176.68 L255.84,174.28 C255.46,175.84 254.68,178.16 253.74,178.16 C252.5,178.16 251.9,176.22 251.62,173.36 C251.5,171.94 251.48,170.44 251.5,169.16 C251.5,168.62 251.6,167.46 251.74,166.76 Z M261.64,167.18 L259.12,168.02 C261.28,170.46 262.34,175.12 262.64,178.3 L265.26,177.3 C265.04,174.26 263.52,169.48 261.64,167.18 Z M270.36,176.04 C272.16,176.04 273.6,177.5 273.6,179.28 C273.6,181.06 272.16,182.52 270.36,182.52 C268.6,182.52 267.14,181.06 267.14,179.28 C267.14,177.5 268.6,176.04 270.36,176.04 Z M270.36,181.06 C271.36,181.06 272.16,180.28 272.16,179.28 C272.16,178.28 271.36,177.48 270.36,177.48 C269.4,177.48 268.58,178.28 268.58,179.28 C268.58,180.28 269.4,181.06 270.36,181.06 Z" id="社員にプライベートで-色々なことにチャレ" fill="#222222"></path>
        </g>
    </g>
</svg>